{
.appVersion = "1060";
copyright = "Copyright 2017 Google Inc. All Rights Reserved.";
customParameters = (
{
name = glyphOrder;
value = (
.notdef,
NULL,
CR,
space,
uni00A0,
uniA85E,
uniA849,
uniA84B,
uniA85B,
uniA843,
uniA857,
uniA85C,
uniA84F,
uniA85B.fin,
uniA857.ini,
uniA857.med,
uniA84F.ini,
uniA84F.med,
uniA85D.fin,
uniA85D.ini,
uniA85D.ini.cnt,
uniA85D.med,
uniA85B.ini,
uniA85B.med,
uniA85B.ini.cnt,
uniA85D.med.cnt,
uniA85E.ini,
uniA85E.med,
uniA85E.fin,
uniA843.ini,
uniA85A,
uniA855,
uniA843.fin,
uniA844,
uniA866,
uniA857.fin,
uniA856,
uniA859,
uniA860,
uniA860.ini,
uniA860.med,
uniA860.fin,
uniA861,
uniA861.med,
uniA861.fin,
uniA861.ini,
uniA85F,
uniA85F.ini,
uniA85C.ini,
uniA85C.med,
uniA85F.med,
uniA85F.fin,
uniA840,
uniA840.ini,
uniA840.med,
uniA840.fin,
uniA85C.fin,
uniA848,
uniA840.ini.cnt,
uniA862,
uniA84B.ini,
uniA84B.med,
uniA84B.fin,
uniA840.med.cnt,
uniA862.ini,
uniA862.fin,
uniA862.med,
uniA848.ini,
uniA848.med,
uniA848.fin,
uniA84F.fin,
uniA860.ini.cnt,
uniA860.med.cnt,
uniA85E.ini.cnt,
uniA85E.med.cnt,
uniA84A,
uniA84C,
uniA85C.ini.cnt,
uniA85C.med.cnt,
uniA848.ini.cnt,
uniA848.med.cnt,
uniA84B.ini.cnt,
uniA84B.med.cnt,
uniA858,
uniA846,
uniA84D,
uniA853,
uniA842,
uniA841,
uniA841.ini,
uniA843.ini.cnt,
uniA85B.med.cnt,
uniA852,
uniA857.ini.cnt,
uniA857.med.cnt,
uniA85F.med.cnt,
uniA854,
uniA854.ini,
uniA854.ini.cnt,
uniA854.med,
uniA854.med.cnt,
uniA854.fin,
uniA84F.ini.cnt,
uniA84F.med.cnt,
uniA850,
uniA850.ini,
uniA850.med,
uniA850.fin,
uniA850.ini.cnt,
uniA850.med.cnt,
uniA845,
uniA843.med,
uniA843.med.cnt,
uniA846.ini,
uniA846.ini.cnt,
uniA846.med,
uniA846.med.cnt,
uniA846.fin,
uniA849.ini,
uniA849.ini.cnt,
uniA849.med,
uniA849.med.cnt,
uniA849.fin,
uniA84A.ini,
uniA84A.ini.cnt,
uniA84A.med,
uniA84A.med.cnt,
uniA84A.fin,
uniA844.ini,
uniA844.ini.cnt,
uniA844.med,
uniA844.med.cnt,
uniA844.fin,
uniA845.ini,
uniA845.ini.cnt,
uniA845.med,
uniA845.med.cnt,
uniA845.fin,
uniA84C.ini,
uniA84C.ini.cnt,
uniA84C.med,
uniA84C.med.cnt,
uniA84C.fin,

glyphs = (
{
glyphname = .notdef;
lastChange = "2017-10-20 18:05:14 +0000";
layers = (
{
layerId = UUID0;
paths = (
{
closed = 1;
nodes = (
"505 0 LINE",
"505 714 LINE",
"94 714 LINE",
"94 0 LINE"
);
},
{
closed = 1;
nodes = (
"145 663 LINE",
"454 663 LINE",
"454 51 LINE",
"145 51 LINE"
);
}
);
width = 600;
}
);
},
{
glyphname = uniA85E;
lastChange = "2017-10-20 18:05:14 +0000";
layers = (
{
layerId = UUID0;
paths = (
{
closed = 1;
nodes = (
"601 670 LINE",
"70 670 LINE",
"70 -56 LINE",
"144 -56 LINE",
"144 594 LINE",
"395 594 LINE SMOOTH",
"423 594 OFFCURVE",
"461 595 OFFCURVE",
"490 597 CURVE",
"490 593 LINE",
"326 475 OFFCURVE",
"225 317 OFFCURVE",
"225 153 CURVE SMOOTH",
"225 20 OFFCURVE",
"298 -62 OFFCURVE",
"414 -62 CURVE SMOOTH",
"545 -62 OFFCURVE",
"601 34 OFFCURVE",
"601 146 CURVE SMOOTH",
"601 238 OFFCURVE",
"557 309 OFFCURVE",
"474 349 CURVE",
"434 285 LINE",
"500 254 OFFCURVE",
"523 206 OFFCURVE",
"523 148 CURVE SMOOTH",
"523 66 OFFCURVE",
"487 18 OFFCURVE",
"414 18 CURVE SMOOTH",
"345 18 OFFCURVE",
"303 66 OFFCURVE",
"303 153 CURVE SMOOTH",
"303 295 OFFCURVE",
"372 433 OFFCURVE",
"601 594 CURVE"
);
}
);
width = 671;
}
);
unicode = A85E;
},
{
glyphname = uniA849;
lastChange = "2017-10-20 18:05:14 +0000";
layers = (
{
layerId = UUID0;
paths = (
{
closed = 1;
nodes = (
"608 46 OFFCURVE",
"597 151 OFFCURVE",
"597 264 CURVE SMOOTH",
"597 435 OFFCURVE",
"620 542 OFFCURVE",
"677 670 CURVE",
"70 670 LINE",
"70 -56 LINE",
"144 -56 LINE",
"144 67 LINE",
"190 16 OFFCURVE",
"270 -24 OFFCURVE",
"378 -46 CURVE",
"378 38 LINE",
"426 -10 OFFCURVE",
"515 -56 OFFCURVE",
"636 -56 CURVE"
);
},
{
closed = 1;
nodes = (
"378 594 LINE",
"567 594 LINE",
"537 498 OFFCURVE",
"523 393 OFFCURVE",
"523 264 CURVE SMOOTH",
"523 183 OFFCURVE",
"528 107 OFFCURVE",
"541 32 CURVE",
"466 49 OFFCURVE",
"414 86 OFFCURVE",
"378 134 CURVE"
);
},
{
closed = 1;
nodes = (
"144 594 LINE",
"304 594 LINE",
"304 51 LINE",
"234 72 OFFCURVE",
"182 110 OFFCURVE",
"144 166 CURVE"
);
}
);
width = 727;
}
);
unicode = A849;
},
{
glyphname = uniA84B;
lastChange = "2017-10-20 18:05:14 +0000";
layers = (
{
layerId = UUID0;
paths = (
{
closed = 1;
nodes = (
"601 670 LINE",
"70 670 LINE",
"70 -56 LINE",
"144 -56 LINE",
"144 594 LINE",
"395 594 LINE SMOOTH",
"423 594 OFFCURVE",
"461 595 OFFCURVE",
"490 597 CURVE",
"490 593 LINE",
"326 475 OFFCURVE",
"225 317 OFFCURVE",
"225 153 CURVE SMOOTH",
"225 20 OFFCURVE",
"298 -62 OFFCURVE",
"414 -62 CURVE SMOOTH",
"545 -62 OFFCURVE",
"601 34 OFFCURVE",
"601 146 CURVE SMOOTH",
"601 267 OFFCURVE",
"532 355 OFFCURVE",
"396 408 CURVE",
"442 467 OFFCURVE",
"508 529 OFFCURVE",
"601 594 CURVE"
);
},
{
closed = 1;
nodes = (
"523 66 OFFCURVE",
"487 18 OFFCURVE",
"414 18 CURVE SMOOTH",
"345 18 OFFCURVE",
"303 66 OFFCURVE",
"303 153 CURVE SMOOTH",
"303 217 OFFCURVE",
"317 279 OFFCURVE",
"353 344 CURVE",
"474 301 OFFCURVE",
"523 229 OFFCURVE",
"523 148 CURVE SMOOTH"
);
}
);
width = 671;
}
);
unicode = A84B;
},
{
glyphname = uniA85B;
lastChange = "2017-10-20 18:05:14 +0000";
layers = (
{
layerId = UUID0;
paths = (
{
closed = 1;
nodes = (
"533 360 LINE",
"436 277 OFFCURVE",
"331 170 OFFCURVE",
"264 86 CURVE",
"223 117 OFFCURVE",
"179 157 OFFCURVE",
"144 193 CURVE",
"254 346 OFFCURVE",
"387 477 OFFCURVE",
"533 594 CURVE",
"533 670 LINE",
"70 670 LINE",
"70 594 LINE",
"320 594 LINE SMOOTH",
"348 594 OFFCURVE",
"386 595 OFFCURVE",
"415 597 CURVE",
"415 593 LINE",
"329 527 OFFCURVE",
"224 418 OFFCURVE",
"144 319 CURVE",
"144 448 LINE",
"70 448 LINE",
"70 -56 LINE",
"144 -56 LINE",
"144 91 LINE",
"184 54 OFFCURVE",
"229 17 OFFCURVE",
"275 -16 CURVE",
"357 90 OFFCURVE",
"448 187 OFFCURVE",
"533 263 CURVE"
);
}
);
width = 603;
}
);
unicode = A85B;
},
{
glyphname = uniA843;
lastChange = "2017-10-20 18:05:14 +0000";
layers = (
{
layerId = UUID0;
paths = (
{
closed = 1;
nodes = (
"656 -56 LINE",
"628 46 OFFCURVE",
"617 151 OFFCURVE",
"617 264 CURVE SMOOTH",
"617 435 OFFCURVE",
"640 542 OFFCURVE",
"697 670 CURVE",
"616 670 LINE",
"565 553 OFFCURVE",
"543 428 OFFCURVE",
"543 264 CURVE SMOOTH",
"543 179 OFFCURVE",
"548 99 OFFCURVE",
"563 20 CURVE",
"388 20 LINE",
"388 670 LINE",
"70 670 LINE",
"70 -56 LINE",
"144 -56 LINE",
"144 594 LINE",
"314 594 LINE",
"314 -56 LINE"
);
}
);
width = 747;
}
);
unicode = A843;
},
{
glyphname = uniA857;
lastChange = "2017-10-20 18:05:14 +0000";
layers = (
{
layerId = UUID0;
paths = (
{
closed = 1;
nodes = (
"286 -56 LINE SMOOTH",
"417 -56 OFFCURVE",
"507 23 OFFCURVE",
"507 144 CURVE SMOOTH",
"507 229 OFFCURVE",
"462 295 OFFCURVE",
"389 325 CURVE",
"409 419 OFFCURVE",
"453 523 OFFCURVE",
"572 670 CURVE",
"70 670 LINE",
"70 594 LINE",
"424 594 LINE",
"376 519 OFFCURVE",
"338 434 OFFCURVE",
"316 343 CURVE",
"306 344 OFFCURVE",
"296 345 OFFCURVE",
"286 345 CURVE SMOOTH",
"70 345 LINE",
"70 269 LINE",
"286 269 LINE SMOOTH",
"374 269 OFFCURVE",
"429 223 OFFCURVE",
"429 144 CURVE SMOOTH",
"429 64 OFFCURVE",
"374 20 OFFCURVE",
"286 20 CURVE SMOOTH",
"70 20 LINE",
"70 -56 LINE"
);
}
);
width = 592;
}
);
unicode = A857;
},
{
glyphname = uniA85C;
lastChange = "2017-10-20 18:05:14 +0000";
layers = (
{
layerId = UUID0;
paths = (
{
closed = 1;
nodes = (
"616 670 LINE",
"599 638 OFFCURVE",
"579 601 OFFCURVE",
"563 569 CURVE",
"527 595 OFFCURVE",
"486 610 OFFCURVE",
"435 610 CURVE SMOOTH",
"310 610 OFFCURVE",
"232 522 OFFCURVE",
"232 412 CURVE SMOOTH",
"232 312 OFFCURVE",
"288 248 OFFCURVE",
"376 201 CURVE",
"356 166 OFFCURVE",
"334 123 OFFCURVE",
"318 88 CURVE",
"261 118 OFFCURVE",
"194 163 OFFCURVE",
"144 204 CURVE",
"144 670 LINE",
"70 670 LINE",
"70 -56 LINE",
"144 -56 LINE",
"144 112 LINE",
"205 67 OFFCURVE",
"278 23 OFFCURVE",
"349 -12 CURVE",
"384 61 OFFCURVE",
"431 152 OFFCURVE",
"478 236 CURVE",
"392 273 OFFCURVE",
"310 321 OFFCURVE",
"310 412 CURVE SMOOTH",
"310 488 OFFCURVE",
"361 530 OFFCURVE",
"435 530 CURVE SMOOTH",
"488 530 OFFCURVE",
"536 506 OFFCURVE",
"586 456 CURVE",
"610 503 OFFCURVE",
"660 597 OFFCURVE",
"700 670 CURVE"
);
}
);
width = 720;
}
);
unicode = A85C;
},
{
glyphname = uniA84F;
lastChange = "2017-10-20 18:05:14 +0000";
layers = (
{
layerId = UUID0;
paths = (
{
closed = 1;
nodes = (
"144 385 LINE",
"207 385 OFFCURVE",
"255 381 OFFCURVE",
"304 369 CURVE",
"265 294 OFFCURVE",
"245 216 OFFCURVE",
"245 143 CURVE SMOOTH",
"245 16 OFFCURVE",
"314 -62 OFFCURVE",
"424 -62 CURVE SMOOTH",
"548 -62 OFFCURVE",
"601 29 OFFCURVE",
"601 136 CURVE SMOOTH",
"601 265 OFFCURVE",
"530 359 OFFCURVE",
"417 411 CURVE",
"460 470 OFFCURVE",
"519 531 OFFCURVE",
"601 594 CURVE",
"601 670 LINE",
"70 670 LINE",
"70 594 LINE",
"395 594 LINE SMOOTH",
"423 594 OFFCURVE",
"461 595 OFFCURVE",
"490 597 CURVE",
"490 593 LINE",
"432 548 OFFCURVE",
"383 494 OFFCURVE",
"344 437 CURVE",
"286 453 OFFCURVE",
"220 461 OFFCURVE",
"152 461 CURVE SMOOTH",
"70 461 LINE",
"70 -56 LINE",
"144 -56 LINE"
);
},
{
closed = 1;
nodes = (
"523 62 OFFCURVE",
"490 18 OFFCURVE",
"424 18 CURVE SMOOTH",
"361 18 OFFCURVE",
"323 62 OFFCURVE",
"323 143 CURVE SMOOTH",
"323 207 OFFCURVE",
"338 275 OFFCURVE",
"376 346 CURVE",
"476 304 OFFCURVE",
"523 232 OFFCURVE",
"523 138 CURVE SMOOTH"
);
}
);
width = 671;
}
);
unicode = A84F;
},
{
glyphname = uniA857.ini;
lastChange = "2017-10-20 18:05:14 +0000";
layers = (
{
layerId = UUID0;
paths = (
{
closed = 1;
nodes = (
"286 -56 LINE SMOOTH",
"417 -56 OFFCURVE",
"507 23 OFFCURVE",
"507 144 CURVE SMOOTH",
"507 229 OFFCURVE",
"462 295 OFFCURVE",
"389 325 CURVE",
"405 402 OFFCURVE",
"437 485 OFFCURVE",
"514 594 CURVE",
"689 594 LINE",
"689 670 LINE",
"70 670 LINE",
"70 594 LINE",
"424 594 LINE",
"376 519 OFFCURVE",
"338 434 OFFCURVE",
"316 343 CURVE",
"306 344 OFFCURVE",
"296 345 OFFCURVE",
"286 345 CURVE SMOOTH",
"70 345 LINE",
"70 269 LINE",
"286 269 LINE SMOOTH",
"374 269 OFFCURVE",
"429 223 OFFCURVE",
"429 144 CURVE SMOOTH",
"429 64 OFFCURVE",
"374 20 OFFCURVE",
"286 20 CURVE SMOOTH",
"70 20 LINE",
"70 -56 LINE"
);
}
);
width = 669;
}
);
},
{
glyphname = uniA84F.ini;
lastChange = "2017-10-20 18:05:14 +0000";
layers = (
{
layerId = UUID0;
paths = (
{
closed = 1;
nodes = (
"144 385 LINE",
"207 385 OFFCURVE",
"255 381 OFFCURVE",
"304 369 CURVE",
"265 294 OFFCURVE",
"245 216 OFFCURVE",
"245 143 CURVE SMOOTH",
"245 16 OFFCURVE",
"314 -62 OFFCURVE",
"424 -62 CURVE SMOOTH",
"548 -62 OFFCURVE",
"601 29 OFFCURVE",
"601 136 CURVE SMOOTH",
"601 265 OFFCURVE",
"530 359 OFFCURVE",
"417 411 CURVE",
"460 470 OFFCURVE",
"519 531 OFFCURVE",
"601 594 CURVE",
"781 594 LINE",
"781 670 LINE",
"70 670 LINE",
"70 594 LINE",
"395 594 LINE SMOOTH",
"423 594 OFFCURVE",
"461 595 OFFCURVE",
"490 597 CURVE",
"490 593 LINE",
"432 548 OFFCURVE",
"383 494 OFFCURVE",
"344 437 CURVE",
"286 453 OFFCURVE",
"220 461 OFFCURVE",
"152 461 CURVE SMOOTH",
"70 461 LINE",
"70 -56 LINE",
"144 -56 LINE"
);
},
{
closed = 1;
nodes = (
"523 62 OFFCURVE",
"490 18 OFFCURVE",
"424 18 CURVE SMOOTH",
"361 18 OFFCURVE",
"323 62 OFFCURVE",
"323 143 CURVE SMOOTH",
"323 207 OFFCURVE",
"338 275 OFFCURVE",
"376 346 CURVE",
"476 304 OFFCURVE",
"523 232 OFFCURVE",
"523 138 CURVE SMOOTH"
);
}
);
width = 761;
}
);
},
{
glyphname = uniA85D.ini;
lastChange = "2017-10-20 18:05:14 +0000";
layers = (
{
layerId = UUID0;
paths = (
{
closed = 1;
nodes = (
"70 132 LINE",
"144 132 LINE",
"144 208 LINE",
"178 178 OFFCURVE",
"216 148 OFFCURVE",
"252 122 CURVE",
"283 190 OFFCURVE",
"328 217 OFFCURVE",
"377 217 CURVE SMOOTH",
"441 217 OFFCURVE",
"471 177 OFFCURVE",
"471 124 CURVE SMOOTH",
"471 59 OFFCURVE",
"425 20 OFFCURVE",
"342 20 CURVE SMOOTH",
"70 20 LINE",
"70 -56 LINE",
"342 -56 LINE SMOOTH",
"472 -56 OFFCURVE",
"549 16 OFFCURVE",
"549 124 CURVE SMOOTH",
"549 226 OFFCURVE",
"473 297 OFFCURVE",
"377 297 CURVE SMOOTH",
"317 297 OFFCURVE",
"266 270 OFFCURVE",
"236 224 CURVE",
"211 244 OFFCURVE",
"175 276 OFFCURVE",
"151 299 CURVE",
"250 399 OFFCURVE",
"382 503 OFFCURVE",
"541 594 CURVE",
"721 594 LINE",
"721 670 LINE",
"70 670 LINE",
"70 594 LINE",
"314 594 LINE SMOOTH",
"342 594 OFFCURVE",
"380 595 OFFCURVE",
"409 597 CURVE",
"409 593 LINE",
"331 546 OFFCURVE",
"227 469 OFFCURVE",
"144 392 CURVE",
"144 470 LINE",
"70 470 LINE"
);
}
);
width = 701;
}
);
},
{
glyphname = uniA85D.ini.cnt;
lastChange = "2017-10-20 18:05:14 +0000";
layers = (
{
layerId = UUID0;
paths = (
{
closed = 1;
nodes = (
"446 269 LINE",
"661 269 LINE",
"661 345 LINE",
"526 345 LINE SMOOTH",
"382 345 OFFCURVE",
"290 299 OFFCURVE",
"237 224 CURVE",
"211 243 OFFCURVE",
"175 275 OFFCURVE",
"151 299 CURVE",
"250 399 OFFCURVE",
"382 503 OFFCURVE",
"541 594 CURVE",
"541 670 LINE",
"70 670 LINE",
"70 594 LINE",
"314 594 LINE SMOOTH",
"342 594 OFFCURVE",
"380 595 OFFCURVE",
"409 597 CURVE",
"409 593 LINE",
"331 546 OFFCURVE",
"227 469 OFFCURVE",
"144 392 CURVE",
"144 470 LINE",
"70 470 LINE",
"70 132 LINE",
"144 132 LINE",
"144 208 LINE",
"178 178 OFFCURVE",
"216 148 OFFCURVE",
"252 122 CURVE",
"283 190 OFFCURVE",
"328 217 OFFCURVE",
"377 217 CURVE SMOOTH",
"441 217 OFFCURVE",
"471 177 OFFCURVE",
"471 124 CURVE SMOOTH",
"471 59 OFFCURVE",
"425 20 OFFCURVE",
"342 20 CURVE SMOOTH",
"70 20 LINE",
"70 -56 LINE",
"342 -56 LINE SMOOTH",
"472 -56 OFFCURVE",
"549 16 OFFCURVE",
"549 124 CURVE SMOOTH",
"549 193 OFFCURVE",
"509 252 OFFCURVE",
"446 265 CURVE"
);
}
);
width = 641;
}
);
},
{
glyphname = uniA85B.ini;
lastChange = "2017-10-20 18:05:14 +0000";
layers = (
{
layerId = UUID0;
paths = (
{
closed = 1;
nodes = (
"70 -56 LINE",
"144 -56 LINE",
"144 91 LINE",
"184 54 OFFCURVE",
"229 17 OFFCURVE",
"275 -16 CURVE",
"357 90 OFFCURVE",
"448 187 OFFCURVE",
"533 263 CURVE",
"533 360 LINE",
"436 277 OFFCURVE",
"331 170 OFFCURVE",
"264 86 CURVE",
"223 117 OFFCURVE",
"179 157 OFFCURVE",
"144 193 CURVE",
"254 346 OFFCURVE",
"387 477 OFFCURVE",
"533 594 CURVE",
"713 594 LINE",
"713 670 LINE",
"70 670 LINE",
"70 594 LINE",
"320 594 LINE SMOOTH",
"348 594 OFFCURVE",
"386 595 OFFCURVE",
"415 597 CURVE",
"415 593 LINE",
"329 527 OFFCURVE",
"224 418 OFFCURVE",
"144 319 CURVE",
"144 448 LINE",
"70 448 LINE"
);
}
);
width = 693;
}
);
},
{
glyphname = uniA85B.ini.cnt;
lastChange = "2017-10-20 18:05:14 +0000";
layers = (
{
layerId = UUID0;
paths = (
{
closed = 1;
nodes = (
"416 213 OFFCURVE",
"489 269 OFFCURVE",
"613 269 CURVE SMOOTH",
"633 269 LINE",
"633 345 LINE",
"613 345 LINE SMOOTH",
"477 345 OFFCURVE",
"372 268 OFFCURVE",
"258 91 CURVE",
"219 121 OFFCURVE",
"177 159 OFFCURVE",
"144 193 CURVE",
"254 346 OFFCURVE",
"387 477 OFFCURVE",
"533 594 CURVE",
"533 670 LINE",
"70 670 LINE",
"70 594 LINE",
"320 594 LINE SMOOTH",
"348 594 OFFCURVE",
"386 595 OFFCURVE",
"415 597 CURVE",
"415 593 LINE",
"329 527 OFFCURVE",
"224 418 OFFCURVE",
"144 319 CURVE",
"144 448 LINE",
"70 448 LINE",
"70 -56 LINE",
"144 -56 LINE",
"144 91 LINE",
"184 54 OFFCURVE",
"229 17 OFFCURVE",
"275 -16 CURVE"
);
}
);
width = 613;
}
);
},
{
glyphname = uniA85E.ini;
lastChange = "2017-10-20 18:05:14 +0000";
layers = (
{
layerId = UUID0;
paths = (
{
closed = 1;
nodes = (
"781 670 LINE",
"70 670 LINE",
"70 -56 LINE",
"144 -56 LINE",
"144 594 LINE",
"395 594 LINE SMOOTH",
"423 594 OFFCURVE",
"461 595 OFFCURVE",
"490 597 CURVE",
"490 593 LINE",
"326 475 OFFCURVE",
"225 317 OFFCURVE",
"225 153 CURVE SMOOTH",
"225 20 OFFCURVE",
"298 -62 OFFCURVE",
"414 -62 CURVE SMOOTH",
"545 -62 OFFCURVE",
"601 34 OFFCURVE",
"601 146 CURVE SMOOTH",
"601 238 OFFCURVE",
"557 309 OFFCURVE",
"474 349 CURVE",
"434 285 LINE",
"500 254 OFFCURVE",
"523 206 OFFCURVE",
"523 148 CURVE SMOOTH",
"523 66 OFFCURVE",
"487 18 OFFCURVE",
"414 18 CURVE SMOOTH",
"345 18 OFFCURVE",
"303 66 OFFCURVE",
"303 153 CURVE SMOOTH",
"303 295 OFFCURVE",
"372 433 OFFCURVE",
"601 594 CURVE",
"781 594 LINE"
);
}
);
width = 761;
}
);
},
{
glyphname = uniA85E.med;
lastChange = "2017-10-20 18:05:14 +0000";
layers = (
{
layerId = UUID0;
paths = (
{
closed = 1;
nodes = (
"0 594 LINE",
"170 594 LINE SMOOTH",
"198 594 OFFCURVE",
"236 595 OFFCURVE",
"265 597 CURVE",
"265 593 LINE",
"101 475 OFFCURVE",
"0 317 OFFCURVE",
"0 153 CURVE SMOOTH",
"0 20 OFFCURVE",
"73 -62 OFFCURVE",
"189 -62 CURVE SMOOTH",
"320 -62 OFFCURVE",
"376 34 OFFCURVE",
"376 146 CURVE SMOOTH",
"376 238 OFFCURVE",
"332 309 OFFCURVE",
"249 349 CURVE",
"209 285 LINE",
"275 254 OFFCURVE",
"298 206 OFFCURVE",
"298 148 CURVE SMOOTH",
"298 66 OFFCURVE",
"262 18 OFFCURVE",
"189 18 CURVE SMOOTH",
"120 18 OFFCURVE",
"78 66 OFFCURVE",
"78 153 CURVE SMOOTH",
"78 295 OFFCURVE",
"147 433 OFFCURVE",
"376 594 CURVE",
"556 594 LINE",
"556 670 LINE",
"0 670 LINE"
);
}
);
width = 536;
}
);
},
{
glyphname = uniA85E.fin;
lastChange = "2017-10-20 18:05:14 +0000";
layers = (
{
layerId = UUID0;
paths = (
{
closed = 1;
nodes = (
"0 594 LINE",
"170 594 LINE SMOOTH",
"198 594 OFFCURVE",
"236 595 OFFCURVE",
"265 597 CURVE",
"265 593 LINE",
"101 475 OFFCURVE",
"0 317 OFFCURVE",
"0 153 CURVE SMOOTH",
"0 20 OFFCURVE",
"73 -62 OFFCURVE",
"189 -62 CURVE SMOOTH",
"320 -62 OFFCURVE",
"376 34 OFFCURVE",
"376 146 CURVE SMOOTH",
"376 238 OFFCURVE",
"332 309 OFFCURVE",
"249 349 CURVE",
"209 285 LINE",
"275 254 OFFCURVE",
"298 206 OFFCURVE",
"298 148 CURVE SMOOTH",
"298 66 OFFCURVE",
"262 18 OFFCURVE",
"189 18 CURVE SMOOTH",
"120 18 OFFCURVE",
"78 66 OFFCURVE",
"78 153 CURVE SMOOTH",
"78 295 OFFCURVE",
"147 433 OFFCURVE",
"376 594 CURVE",
"376 670 LINE",
"0 670 LINE"
);
}
);
width = 446;
}
);
},
{
glyphname = uniA843.ini;
lastChange = "2017-10-20 18:05:14 +0000";
layers = (
{
layerId = UUID0;
paths = (
{
closed = 1;
nodes = (
"656 -56 LINE",
"628 46 OFFCURVE",
"617 151 OFFCURVE",
"617 264 CURVE SMOOTH",
"617 400 OFFCURVE",
"631 496 OFFCURVE",
"666 594 CURVE",
"838 594 LINE",
"838 670 LINE",
"616 670 LINE",
"565 553 OFFCURVE",
"543 428 OFFCURVE",
"543 264 CURVE SMOOTH",
"543 179 OFFCURVE",
"548 99 OFFCURVE",
"563 20 CURVE",
"388 20 LINE",
"388 670 LINE",
"70 670 LINE",
"70 -56 LINE",
"144 -56 LINE",
"144 594 LINE",
"314 594 LINE",
"314 -56 LINE"
);
}
);
width = 818;
}
);
},
{
glyphname = uniA85A;
lastChange = "2017-10-20 18:05:14 +0000";
layers = (
{
layerId = UUID0;
paths = (
{
closed = 1;
nodes = (
"682 594 LINE",
"687 620 OFFCURVE",
"693 645 OFFCURVE",
"700 670 CURVE",
"70 670 LINE",
"70 -56 LINE",
"388 -56 LINE",
"388 347 LINE",
"562 347 LINE",
"553 301 OFFCURVE",
"548 242 OFFCURVE",
"548 184 CURVE SMOOTH",
"548 95 OFFCURVE",
"558 14 OFFCURVE",
"577 -56 CURVE",
"652 -56 LINE",
"633 20 OFFCURVE",
"622 102 OFFCURVE",
"622 184 CURVE SMOOTH",
"622 266 OFFCURVE",
"633 347 OFFCURVE",
"652 423 CURVE",
"314 423 LINE",
"314 20 LINE",
"144 20 LINE",
"144 594 LINE"
);
}
);
width = 750;
}
);
unicode = A85A;
},
{
glyphname = uniA855;
lastChange = "2017-10-20 18:05:14 +0000";
layers = (
{
layerId = UUID0;
paths = (
{
closed = 1;
nodes = (
"656 -56 LINE",
"628 46 OFFCURVE",
"617 151 OFFCURVE",
"617 264 CURVE SMOOTH",
"617 435 OFFCURVE",
"640 542 OFFCURVE",
"697 670 CURVE",
"70 670 LINE",
"70 -56 LINE",
"144 -56 LINE",
"144 594 LINE",
"314 594 LINE",
"314 -56 LINE",
"388 -56 LINE",
"388 594 LINE",
"587 594 LINE",
"557 498 OFFCURVE",
"543 393 OFFCURVE",
"543 264 CURVE SMOOTH",
"543 152 OFFCURVE",
"553 47 OFFCURVE",
"581 -56 CURVE"
);
}
);
width = 767;
}
);
unicode = A855;
},
{
glyphname = uniA844;
lastChange = "2017-10-20 18:05:14 +0000";
layers = (
{
layerId = UUID0;
paths = (
{
closed = 1;
nodes = (
"656 -56 LINE",
"628 46 OFFCURVE",
"617 151 OFFCURVE",
"617 264 CURVE SMOOTH",
"617 435 OFFCURVE",
"640 542 OFFCURVE",
"697 670 CURVE",
"70 670 LINE",
"70 -56 LINE",
"144 -56 LINE",
"144 594 LINE",
"314 594 LINE",
"314 -56 LINE"
);
},
{
closed = 1;
nodes = (
"543 179 OFFCURVE",
"548 99 OFFCURVE",
"563 20 CURVE",
"388 20 LINE",
"388 594 LINE",
"587 594 LINE",
"557 498 OFFCURVE",
"543 393 OFFCURVE",
"543 264 CURVE SMOOTH"
);
}
);
width = 747;
}
);
unicode = A844;
},
{
glyphname = uniA866;
lastChange = "2017-10-20 18:05:14 +0000";
layers = (
{
layerId = UUID0;
paths = (
{
closed = 1;
nodes = (
"70 -56 LINE",
"412 -56 LINE",
"384 46 OFFCURVE",
"373 151 OFFCURVE",
"373 264 CURVE SMOOTH",
"373 435 OFFCURVE",
"396 542 OFFCURVE",
"453 670 CURVE",
"372 670 LINE",
"321 553 OFFCURVE",
"299 428 OFFCURVE",
"299 264 CURVE SMOOTH",
"299 178 OFFCURVE",
"304 99 OFFCURVE",
"320 20 CURVE",
"144 20 LINE",
"144 670 LINE",
"70 670 LINE"
);
}
);
width = 503;
}
);
unicode = A866;
},
{
glyphname = uniA856;
lastChange = "2017-10-20 18:05:14 +0000";
layers = (
{
layerId = UUID0;
paths = (
{
closed = 1;
nodes = (
"577 670 LINE",
"558 600 OFFCURVE",
"548 519 OFFCURVE",
"548 430 CURVE SMOOTH",
"548 372 OFFCURVE",
"553 313 OFFCURVE",
"562 267 CURVE",
"388 267 LINE",
"388 670 LINE",
"70 670 LINE",
"70 -56 LINE",
"700 -56 LINE",
"693 -31 OFFCURVE",
"687 -6 OFFCURVE",
"682 20 CURVE",
"144 20 LINE",
"144 594 LINE",
"314 594 LINE",
"314 191 LINE",
"652 191 LINE",
"633 267 OFFCURVE",
"622 348 OFFCURVE",
"622 430 CURVE SMOOTH",
"622 512 OFFCURVE",
"633 594 OFFCURVE",
"652 670 CURVE"
);
}
);
width = 750;
}
);
unicode = A856;
},
{
glyphname = uniA859;
lastChange = "2017-10-20 18:05:14 +0000";
layers = (
{
layerId = UUID0;
paths = (
{
closed = 1;
nodes = (
"70 -56 LINE",
"696 -56 LINE",
"689 -31 OFFCURVE",
"683 -6 OFFCURVE",
"678 20 CURVE",
"144 20 LINE",
"144 380 LINE",
"314 380 LINE",
"314 158 LINE",
"652 158 LINE",
"633 238 OFFCURVE",
"622 327 OFFCURVE",
"622 413 CURVE SMOOTH",
"622 500 OFFCURVE",
"633 589 OFFCURVE",
"652 670 CURVE",
"70 670 LINE",
"70 594 LINE",
"562 594 LINE",
"553 543 OFFCURVE",
"548 478 OFFCURVE",
"548 413 CURVE SMOOTH",
"548 349 OFFCURVE",
"553 284 OFFCURVE",
"562 234 CURVE",
"388 234 LINE",
"388 456 LINE",
"70 456 LINE"
);
}
);
width = 746;
}
);
unicode = A859;
},
{
glyphname = uniA860;
lastChange = "2017-10-20 18:05:14 +0000";
layers = (
{
layerId = UUID0;
paths = (
{
closed = 1;
nodes = (
"559 386 LINE",
"482 271 OFFCURVE",
"427 151 OFFCURVE",
"389 25 CURVE",
"385 25 LINE",
"387 58 OFFCURVE",
"388 98 OFFCURVE",
"388 135 CURVE SMOOTH",
"388 594 LINE",
"660 594 LINE",
"660 670 LINE",
"70 670 LINE",
"70 -56 LINE",
"144 -56 LINE",
"144 594 LINE",
"314 594 LINE",
"314 -56 LINE",
"436 -56 LINE",
"483 100 OFFCURVE",
"555 257 OFFCURVE",
"652 386 CURVE"
);
}
);
width = 730;
}
);
unicode = A860;
},
{
glyphname = uniA860.ini;
lastChange = "2017-10-20 18:05:14 +0000";
layers = (
{
layerId = UUID0;
paths = (
{
closed = 1;
nodes = (
"559 386 LINE",
"482 271 OFFCURVE",
"427 151 OFFCURVE",
"389 25 CURVE",
"385 25 LINE",
"387 58 OFFCURVE",
"388 98 OFFCURVE",
"388 135 CURVE SMOOTH",
"388 594 LINE",
"840 594 LINE",
"840 670 LINE",
"70 670 LINE",
"70 -56 LINE",
"144 -56 LINE",
"144 594 LINE",
"314 594 LINE",
"314 -56 LINE",
"436 -56 LINE",
"483 100 OFFCURVE",
"555 257 OFFCURVE",
"652 386 CURVE"
);
}
);
width = 820;
}
);
},
{
glyphname = uniA860.med;
lastChange = "2017-10-20 18:05:14 +0000";
layers = (
{
layerId = UUID0;
paths = (
{
closed = 1;
nodes = (
"245 386 LINE",
"168 271 OFFCURVE",
"113 151 OFFCURVE",
"75 25 CURVE",
"71 25 LINE",
"73 58 OFFCURVE",
"74 98 OFFCURVE",
"74 135 CURVE SMOOTH",
"74 594 LINE",
"530 594 LINE",
"530 670 LINE",
"0 670 LINE",
"0 -56 LINE",
"122 -56 LINE",
"169 100 OFFCURVE",
"241 257 OFFCURVE",
"338 386 CURVE"
);
}
);
width = 510;
}
);
},
{
glyphname = uniA860.fin;
lastChange = "2017-10-20 18:05:14 +0000";
layers = (
{
layerId = UUID0;
paths = (
{
closed = 1;
nodes = (
"245 386 LINE",
"168 271 OFFCURVE",
"113 151 OFFCURVE",
"75 25 CURVE",
"71 25 LINE",
"73 58 OFFCURVE",
"74 98 OFFCURVE",
"74 135 CURVE SMOOTH",
"74 594 LINE",
"350 594 LINE",
"350 670 LINE",
"0 670 LINE",
"0 -56 LINE",
"122 -56 LINE",
"169 100 OFFCURVE",
"241 257 OFFCURVE",
"338 386 CURVE"
);
}
);
width = 420;
}
);
},
{
glyphname = uniA861;
lastChange = "2017-10-20 18:05:14 +0000";
layers = (
{
layerId = UUID0;
paths = (
{
closed = 1;
nodes = (
"70 670 LINE",
"70 -56 LINE",
"144 -56 LINE",
"144 231 LINE",
"234 143 OFFCURVE",
"295 52 OFFCURVE",
"341 -56 CURVE",
"423 -56 LINE",
"368 84 OFFCURVE",
"282 207 OFFCURVE",
"168 307 CURVE",
"282 406 OFFCURVE",
"368 529 OFFCURVE",
"423 670 CURVE",
"341 670 LINE",
"295 561 OFFCURVE",
"234 470 OFFCURVE",
"144 382 CURVE",
"144 670 LINE"
);
}
);
width = 463;
}
);
unicode = A861;
},
{
glyphname = uniA861.med;
lastChange = "2017-10-20 18:05:14 +0000";
layers = (
{
layerId = UUID0;
paths = (
{
closed = 1;
nodes = (
"469 345 LINE",
"195 345 LINE SMOOTH",
"165 345 OFFCURVE",
"132 344 OFFCURVE",
"101 343 CURVE",
"101 347 LINE",
"187 438 OFFCURVE",
"253 548 OFFCURVE",
"297 670 CURVE",
"217 670 LINE",
"169 546 OFFCURVE",
"102 445 OFFCURVE",
"0 345 CURVE",
"0 269 LINE",
"102 169 OFFCURVE",
"169 68 OFFCURVE",
"217 -56 CURVE",
"297 -56 LINE",
"253 66 OFFCURVE",
"187 176 OFFCURVE",
"101 267 CURVE",
"101 271 LINE",
"132 270 OFFCURVE",
"165 269 OFFCURVE",
"195 269 CURVE SMOOTH",
"469 269 LINE"
);
}
);
width = 449;
}
);
},
{
glyphname = uniA861.fin;
lastChange = "2017-10-20 18:05:14 +0000";
layers = (
{
layerId = UUID0;
paths = (
{
closed = 1;
nodes = (
"167 406 OFFCURVE",
"246 530 OFFCURVE",
"297 670 CURVE",
"217 670 LINE",
"169 546 OFFCURVE",
"102 445 OFFCURVE",
"0 345 CURVE",
"0 269 LINE",
"102 169 OFFCURVE",
"169 68 OFFCURVE",
"217 -56 CURVE",
"297 -56 LINE",
"246 84 OFFCURVE",
"167 208 OFFCURVE",
"61 307 CURVE"
);
}
);
width = 337;
}
);
},
{
glyphname = uniA861.ini;
lastChange = "2017-10-20 18:05:14 +0000";
layers = (
{
layerId = UUID0;
paths = (
{
closed = 1;
nodes = (
"70 670 LINE",
"70 -56 LINE",
"144 -56 LINE",
"144 227 LINE",
"224 140 OFFCURVE",
"279 51 OFFCURVE",
"321 -56 CURVE",
"401 -56 LINE",
"357 66 OFFCURVE",
"291 175 OFFCURVE",
"205 267 CURVE",
"205 271 LINE",
"236 270 OFFCURVE",
"269 269 OFFCURVE",
"299 269 CURVE SMOOTH",
"573 269 LINE",
"573 345 LINE",
"299 345 LINE SMOOTH",
"269 345 OFFCURVE",
"236 344 OFFCURVE",
"205 343 CURVE",
"205 347 LINE",
"291 438 OFFCURVE",
"357 548 OFFCURVE",
"401 670 CURVE",
"321 670 LINE",
"279 563 OFFCURVE",
"224 473 OFFCURVE",
"144 386 CURVE",
"144 670 LINE"
);
}
);
width = 553;
}
);
},
{
glyphname = uniA85F;
lastChange = "2017-10-20 18:05:14 +0000";
layers = (
{
layerId = UUID0;
paths = (
{
closed = 1;
nodes = (
"70 670 LINE",
"70 -56 LINE",
"144 -56 LINE",
"144 269 LINE",
"256 269 LINE",
"285 188 OFFCURVE",
"348 142 OFFCURVE",
"427 142 CURVE SMOOTH",
"531 142 OFFCURVE",
"599 220 OFFCURVE",
"599 319 CURVE SMOOTH",
"599 384 OFFCURVE",
"580 434 OFFCURVE",
"542 473 CURVE",
"479 424 LINE",
"506 398 OFFCURVE",
"521 356 OFFCURVE",
"521 319 CURVE SMOOTH",
"521 258 OFFCURVE",
"482 222 OFFCURVE",
"427 222 CURVE SMOOTH",
"363 222 OFFCURVE",
"318 270 OFFCURVE",
"318 375 CURVE SMOOTH",
"318 501 OFFCURVE",
"388 597 OFFCURVE",
"511 597 CURVE SMOOTH",
"648 597 OFFCURVE",
"724 485 OFFCURVE",
"724 335 CURVE SMOOTH",
"724 141 OFFCURVE",
"608 20 OFFCURVE",
"386 20 CURVE",
"386 -56 LINE",
"648 -56 OFFCURVE",
"802 86 OFFCURVE",
"802 335 CURVE SMOOTH",
"802 520 OFFCURVE",
"696 677 OFFCURVE",
"511 677 CURVE SMOOTH",
"338 677 OFFCURVE",
"240 540 OFFCURVE",
"240 375 CURVE SMOOTH",
"240 364 OFFCURVE",
"240 354 OFFCURVE",
"241 345 CURVE",
"144 345 LINE",
"144 670 LINE"
);
}
);
width = 842;
}
);
unicode = A85F;
},
{
glyphname = uniA85C.ini;
lastChange = "2017-10-20 18:05:14 +0000";
layers = (
{
layerId = UUID0;
paths = (
{
closed = 1;
nodes = (
"775 670 LINE",
"745 670 LINE SMOOTH",
"656 670 OFFCURVE",
"596 627 OFFCURVE",
"563 569 CURVE",
"527 595 OFFCURVE",
"486 610 OFFCURVE",
"435 610 CURVE SMOOTH",
"310 610 OFFCURVE",
"232 522 OFFCURVE",
"232 412 CURVE SMOOTH",
"232 312 OFFCURVE",
"288 248 OFFCURVE",
"376 201 CURVE",
"356 166 OFFCURVE",
"334 123 OFFCURVE",
"318 88 CURVE",
"261 118 OFFCURVE",
"194 163 OFFCURVE",
"144 204 CURVE",
"144 670 LINE",
"70 670 LINE",
"70 -56 LINE",
"144 -56 LINE",
"144 112 LINE",
"205 67 OFFCURVE",
"278 23 OFFCURVE",
"349 -12 CURVE",
"384 61 OFFCURVE",
"431 152 OFFCURVE",
"478 236 CURVE",
"392 273 OFFCURVE",
"310 321 OFFCURVE",
"310 412 CURVE SMOOTH",
"310 488 OFFCURVE",
"361 530 OFFCURVE",
"435 530 CURVE SMOOTH",
"488 530 OFFCURVE",
"536 506 OFFCURVE",
"586 456 CURVE",
"597 478 OFFCURVE",
"610 502 OFFCURVE",
"621 521 CURVE SMOOTH",
"652 574 OFFCURVE",
"693 594 OFFCURVE",
"745 594 CURVE SMOOTH",
"775 594 LINE"
);
}
);
width = 755;
}
);
},
{
glyphname = uniA85F.med;
lastChange = "2017-10-20 18:05:14 +0000";
layers = (
{
layerId = UUID0;
paths = (
{
closed = 1;
nodes = (
"209 312 LINE",
"211 305 OFFCURVE",
"212 296 OFFCURVE",
"212 287 CURVE SMOOTH",
"212 247 OFFCURVE",
"189 219 OFFCURVE",
"145 219 CURVE SMOOTH",
"100 219 OFFCURVE",
"68 251 OFFCURVE",
"68 312 CURVE SMOOTH",
"68 391 OFFCURVE",
"119 452 OFFCURVE",
"217 452 CURVE SMOOTH",
"325 452 OFFCURVE",
"384 378 OFFCURVE",
"384 280 CURVE SMOOTH",
"384 123 OFFCURVE",
"284 20 OFFCURVE",
"80 20 CURVE",
"80 -56 LINE",
"325 -56 OFFCURVE",
"462 79 OFFCURVE",
"462 280 CURVE SMOOTH",
"462 418 OFFCURVE",
"372 532 OFFCURVE",
"217 532 CURVE SMOOTH",
"68 532 OFFCURVE",
"-10 432 OFFCURVE",
"-10 312 CURVE SMOOTH",
"-10 201 OFFCURVE",
"53 139 OFFCURVE",
"145 139 CURVE SMOOTH",
"235 139 OFFCURVE",
"290 205 OFFCURVE",
"290 287 CURVE SMOOTH",
"290 301 OFFCURVE",
"288 316 OFFCURVE",
"285 327 CURVE"
);
},
{
closed = 1;
nodes = (
"0 594 LINE",
"578 594 LINE",
"578 670 LINE",
"0 670 LINE"
);
}
);
width = 558;
}
);
},
{
glyphname = uniA85F.fin;
lastChange = "2017-10-20 18:05:14 +0000";
layers = (
{
layerId = UUID0;
paths = (
{
closed = 1;
nodes = (
"209 312 LINE",
"211 305 OFFCURVE",
"212 296 OFFCURVE",
"212 287 CURVE SMOOTH",
"212 247 OFFCURVE",
"189 219 OFFCURVE",
"145 219 CURVE SMOOTH",
"100 219 OFFCURVE",
"68 251 OFFCURVE",
"68 312 CURVE SMOOTH",
"68 391 OFFCURVE",
"119 452 OFFCURVE",
"217 452 CURVE SMOOTH",
"325 452 OFFCURVE",
"384 378 OFFCURVE",
"384 280 CURVE SMOOTH",
"384 123 OFFCURVE",
"284 20 OFFCURVE",
"80 20 CURVE",
"80 -56 LINE",
"325 -56 OFFCURVE",
"462 79 OFFCURVE",
"462 280 CURVE SMOOTH",
"462 418 OFFCURVE",
"372 532 OFFCURVE",
"217 532 CURVE SMOOTH",
"68 532 OFFCURVE",
"-10 432 OFFCURVE",
"-10 312 CURVE SMOOTH",
"-10 201 OFFCURVE",
"53 139 OFFCURVE",
"145 139 CURVE SMOOTH",
"235 139 OFFCURVE",
"290 205 OFFCURVE",
"290 287 CURVE SMOOTH",
"290 301 OFFCURVE",
"288 316 OFFCURVE",
"285 327 CURVE"
);
},
{
closed = 1;
nodes = (
"0 594 LINE",
"452 594 LINE",
"452 670 LINE",
"0 670 LINE"
);
}
);
width = 502;
}
);
},
{
glyphname = uniA840;
lastChange = "2017-10-20 18:05:14 +0000";
layers = (
{
layerId = UUID0;
paths = (
{
closed = 1;
nodes = (
"309 -56 LINE",
"383 -56 LINE",
"383 76 LINE",
"451 68 OFFCURVE",
"511 51 OFFCURVE",
"568 24 CURVE",
"568 106 LINE",
"482 142 OFFCURVE",
"389 158 OFFCURVE",
"280 158 CURVE SMOOTH",
"144 158 LINE",
"144 338 LINE",
"568 338 LINE",
"568 414 LINE",
"144 414 LINE",
"144 594 LINE",
"568 594 LINE",
"568 670 LINE",
"70 670 LINE",
"70 -56 LINE",
"144 -56 LINE",
"144 82 LINE",
"309 82 LINE"
);
}
);
width = 638;
}
);
unicode = A840;
},
{
glyphname = uniA840.ini;
lastChange = "2017-10-20 18:05:14 +0000";
layers = (
{
layerId = UUID0;
paths = (
{
closed = 1;
nodes = (
"309 -56 LINE",
"383 -56 LINE",
"383 76 LINE",
"451 68 OFFCURVE",
"511 51 OFFCURVE",
"568 24 CURVE",
"568 106 LINE",
"482 142 OFFCURVE",
"389 158 OFFCURVE",
"280 158 CURVE SMOOTH",
"144 158 LINE",
"144 338 LINE",
"568 338 LINE",
"568 414 LINE",
"144 414 LINE",
"144 594 LINE",
"748 594 LINE",
"748 670 LINE",
"70 670 LINE",
"70 -56 LINE",
"144 -56 LINE",
"144 82 LINE",
"309 82 LINE"
);
}
);
width = 728;
}
);
},
{
glyphname = uniA848;
lastChange = "2017-10-20 18:05:14 +0000";
layers = (
{
layerId = UUID0;
paths = (
{
closed = 1;
nodes = (
"70 -56 LINE",
"628 -56 LINE",
"628 20 LINE",
"144 20 LINE",
"144 239 LINE",
"628 239 LINE",
"628 315 LINE",
"361 315 LINE",
"327 355 OFFCURVE",
"310 405 OFFCURVE",
"310 462 CURVE SMOOTH",
"310 533 OFFCURVE",
"355 571 OFFCURVE",
"415 571 CURVE SMOOTH",
"467 571 OFFCURVE",
"516 552 OFFCURVE",
"566 506 CURVE",
"591 555 OFFCURVE",
"625 618 OFFCURVE",
"654 670 CURVE",
"570 670 LINE",
"560 653 OFFCURVE",
"550 634 OFFCURVE",
"541 615 CURVE",
"505 639 OFFCURVE",
"465 651 OFFCURVE",
"415 651 CURVE SMOOTH",
"304 651 OFFCURVE",
"232 569 OFFCURVE",
"232 462 CURVE SMOOTH",
"232 399 OFFCURVE",
"245 356 OFFCURVE",
"275 315 CURVE",
"144 315 LINE",
"144 670 LINE",
"70 670 LINE"
);
}
);
width = 698;
}
);
unicode = A848;
},
{
glyphname = uniA840.ini.cnt;
lastChange = "2017-10-20 18:05:14 +0000";
layers = (
{
layerId = UUID0;
paths = (
{
closed = 1;
nodes = (
"309 -56 LINE",
"383 -56 LINE",
"383 56 LINE",
"451 48 OFFCURVE",
"511 31 OFFCURVE",
"568 4 CURVE",
"568 86 LINE",
"482 122 OFFCURVE",
"389 138 OFFCURVE",
"280 138 CURVE SMOOTH",
"144 138 LINE",
"144 328 LINE",
"195 328 LINE SMOOTH",
"364 328 OFFCURVE",
"524 269 OFFCURVE",
"678 269 CURVE SMOOTH",
"698 269 LINE",
"698 345 LINE",
"678 345 LINE SMOOTH",
"531 345 OFFCURVE",
"372 404 OFFCURVE",
"195 404 CURVE SMOOTH",
"144 404 LINE",
"144 594 LINE",
"568 594 LINE",
"568 670 LINE",
"70 670 LINE",
"70 -56 LINE",
"144 -56 LINE",
"144 62 LINE",
"309 62 LINE"
);
}
);
width = 678;
}
);
},
{
glyphname = uniA862;
lastChange = "2017-10-20 18:05:14 +0000";
layers = (
{
layerId = UUID0;
paths = (
{
closed = 1;
nodes = (
"578 670 LINE",
"70 670 LINE",
"70 -56 LINE",
"578 -56 LINE",
"578 20 LINE",
"144 20 LINE",
"144 291 LINE",
"213 253 OFFCURVE",
"297 239 OFFCURVE",
"404 239 CURVE",
"434 382 OFFCURVE",
"493 499 OFFCURVE",
"578 594 CURVE"
);
},
{
closed = 1;
nodes = (
"144 594 LINE",
"386 594 LINE SMOOTH",
"421 594 OFFCURVE",
"460 595 OFFCURVE",
"489 596 CURVE",
"489 592 LINE",
"422 514 OFFCURVE",
"371 409 OFFCURVE",
"350 316 CURVE",
"266 319 OFFCURVE",
"208 333 OFFCURVE",
"144 375 CURVE"
);
}
);
width = 633;
}
);
unicode = A862;
},
{
glyphname = uniA84B.ini;
lastChange = "2017-10-20 18:05:14 +0000";
layers = (
{
layerId = UUID0;
paths = (
{
closed = 1;
nodes = (
"781 670 LINE",
"70 670 LINE",
"70 -56 LINE",
"144 -56 LINE",
"144 594 LINE",
"395 594 LINE SMOOTH",
"423 594 OFFCURVE",
"461 595 OFFCURVE",
"490 597 CURVE",
"490 593 LINE",
"326 475 OFFCURVE",
"225 317 OFFCURVE",
"225 153 CURVE SMOOTH",
"225 20 OFFCURVE",
"298 -62 OFFCURVE",
"414 -62 CURVE SMOOTH",
"545 -62 OFFCURVE",
"601 34 OFFCURVE",
"601 146 CURVE SMOOTH",
"601 267 OFFCURVE",
"532 355 OFFCURVE",
"396 408 CURVE",
"442 467 OFFCURVE",
"508 529 OFFCURVE",
"601 594 CURVE",
"781 594 LINE"
);
},
{
closed = 1;
nodes = (
"523 66 OFFCURVE",
"487 18 OFFCURVE",
"414 18 CURVE SMOOTH",
"345 18 OFFCURVE",
"303 66 OFFCURVE",
"303 153 CURVE SMOOTH",
"303 217 OFFCURVE",
"317 279 OFFCURVE",
"353 344 CURVE",
"474 301 OFFCURVE",
"523 229 OFFCURVE",
"523 148 CURVE SMOOTH"
);
}
);
width = 761;
}
);
},
{
glyphname = uniA862.ini;
lastChange = "2017-10-20 18:05:14 +0000";
layers = (
{
layerId = UUID0;
paths = (
{
closed = 1;
nodes = (
"758 670 LINE",
"70 670 LINE",
"70 -56 LINE",
"578 -56 LINE",
"578 20 LINE",
"144 20 LINE",
"144 291 LINE",
"213 253 OFFCURVE",
"297 239 OFFCURVE",
"404 239 CURVE",
"434 382 OFFCURVE",
"493 499 OFFCURVE",
"578 594 CURVE",
"758 594 LINE"
);
},
{
closed = 1;
nodes = (
"144 594 LINE",
"386 594 LINE SMOOTH",
"421 594 OFFCURVE",
"460 595 OFFCURVE",
"489 596 CURVE",
"489 592 LINE",
"422 514 OFFCURVE",
"371 409 OFFCURVE",
"350 316 CURVE",
"266 319 OFFCURVE",
"208 333 OFFCURVE",
"144 375 CURVE"
);
}
);
width = 738;
}
);
},
{
glyphname = uniA848.ini;
lastChange = "2017-10-20 18:05:14 +0000";
layers = (
{
layerId = UUID0;
paths = (
{
closed = 1;
nodes = (
"70 -56 LINE",
"628 -56 LINE",
"628 20 LINE",
"144 20 LINE",
"144 239 LINE",
"628 239 LINE",
"628 315 LINE",
"361 315 LINE",
"327 355 OFFCURVE",
"310 405 OFFCURVE",
"310 462 CURVE SMOOTH",
"310 533 OFFCURVE",
"355 571 OFFCURVE",
"415 571 CURVE SMOOTH",
"467 571 OFFCURVE",
"516 552 OFFCURVE",
"566 506 CURVE",
"601 569 OFFCURVE",
"636 594 OFFCURVE",
"707 594 CURVE SMOOTH",
"808 594 LINE",
"808 670 LINE",
"694 670 LINE SMOOTH",
"616 670 OFFCURVE",
"576 650 OFFCURVE",
"546 612 CURVE",
"509 638 OFFCURVE",
"468 651 OFFCURVE",
"415 651 CURVE SMOOTH",
"304 651 OFFCURVE",
"232 569 OFFCURVE",
"232 462 CURVE SMOOTH",
"232 399 OFFCURVE",
"245 356 OFFCURVE",
"275 315 CURVE",
"144 315 LINE",
"144 670 LINE",
"70 670 LINE"
);
}
);
width = 788;
}
);
},
{
glyphname = uniA860.ini.cnt;
lastChange = "2017-10-20 18:05:14 +0000";
layers = (
{
layerId = UUID0;
paths = (
{
closed = 1;
nodes = (
"774 345 LINE",
"754 345 LINE SMOOTH",
"572 345 OFFCURVE",
"463 275 OFFCURVE",
"389 25 CURVE",
"385 25 LINE",
"387 58 OFFCURVE",
"388 98 OFFCURVE",
"388 135 CURVE SMOOTH",
"388 594 LINE",
"660 594 LINE",
"660 670 LINE",
"70 670 LINE",
"70 -56 LINE",
"144 -56 LINE",
"144 594 LINE",
"314 594 LINE",
"314 -56 LINE",
"436 -56 LINE",
"513 216 OFFCURVE",
"585 269 OFFCURVE",
"754 269 CURVE SMOOTH",
"774 269 LINE"
);
}
);
width = 754;
}
);
},
{
glyphname = uniA860.med.cnt;
lastChange = "2017-10-20 18:05:14 +0000";
layers = (
{
layerId = UUID0;
paths = (
{
closed = 1;
nodes = (
"460 345 LINE",
"440 345 LINE SMOOTH",
"258 345 OFFCURVE",
"149 275 OFFCURVE",
"75 25 CURVE",
"71 25 LINE",
"73 58 OFFCURVE",
"74 98 OFFCURVE",
"74 135 CURVE SMOOTH",
"74 594 LINE",
"346 594 LINE",
"346 670 LINE",
"0 670 LINE",
"0 -56 LINE",
"122 -56 LINE",
"199 216 OFFCURVE",
"271 269 OFFCURVE",
"440 269 CURVE SMOOTH",
"460 269 LINE"
);
}
);
width = 440;
}
);
},
{
glyphname = uniA85E.ini.cnt;
lastChange = "2017-10-20 18:05:14 +0000";
layers = (
{
layerId = UUID0;
paths = (
{
closed = 1;
nodes = (
"472 345 LINE",
"438 281 LINE",
"499 251 OFFCURVE",
"523 204 OFFCURVE",
"523 148 CURVE SMOOTH",
"523 66 OFFCURVE",
"487 18 OFFCURVE",
"414 18 CURVE SMOOTH",
"345 18 OFFCURVE",
"303 66 OFFCURVE",
"303 153 CURVE SMOOTH",
"303 295 OFFCURVE",
"372 433 OFFCURVE",
"601 594 CURVE",
"601 670 LINE",
"70 670 LINE",
"70 -56 LINE",
"144 -56 LINE",
"144 594 LINE",
"395 594 LINE SMOOTH",
"423 594 OFFCURVE",
"461 595 OFFCURVE",
"490 597 CURVE",
"490 593 LINE",
"326 475 OFFCURVE",
"225 317 OFFCURVE",
"225 153 CURVE SMOOTH",
"225 20 OFFCURVE",
"298 -62 OFFCURVE",
"414 -62 CURVE SMOOTH",
"545 -62 OFFCURVE",
"601 34 OFFCURVE",
"601 146 CURVE SMOOTH",
"601 193 OFFCURVE",
"589 234 OFFCURVE",
"563 269 CURVE",
"731 269 LINE",
"731 345 LINE"
);
}
);
width = 711;
}
);
},
{
glyphname = uniA85E.med.cnt;
lastChange = "2017-10-20 18:05:14 +0000";
layers = (
{
layerId = UUID0;
paths = (
{
closed = 1;
nodes = (
"247 345 LINE",
"213 281 LINE",
"274 251 OFFCURVE",
"298 204 OFFCURVE",
"298 148 CURVE SMOOTH",
"298 66 OFFCURVE",
"262 18 OFFCURVE",
"189 18 CURVE SMOOTH",
"120 18 OFFCURVE",
"78 66 OFFCURVE",
"78 153 CURVE SMOOTH",
"78 295 OFFCURVE",
"147 433 OFFCURVE",
"376 594 CURVE",
"376 670 LINE",
"0 670 LINE",
"0 594 LINE",
"170 594 LINE SMOOTH",
"198 594 OFFCURVE",
"236 595 OFFCURVE",
"265 597 CURVE",
"265 593 LINE",
"101 475 OFFCURVE",
"0 317 OFFCURVE",
"0 153 CURVE SMOOTH",
"0 20 OFFCURVE",
"73 -62 OFFCURVE",
"189 -62 CURVE SMOOTH",
"320 -62 OFFCURVE",
"376 34 OFFCURVE",
"376 146 CURVE SMOOTH",
"376 193 OFFCURVE",
"364 234 OFFCURVE",
"338 269 CURVE",
"506 269 LINE",
"506 345 LINE"
);
}
);
width = 486;
}
);
},
{
glyphname = uniA84A;
lastChange = "2017-10-20 18:05:14 +0000";
layers = (
{
layerId = UUID0;
paths = (
{
closed = 1;
nodes = (
"404 46 OFFCURVE",
"393 151 OFFCURVE",
"393 264 CURVE SMOOTH",
"393 435 OFFCURVE",
"416 542 OFFCURVE",
"473 670 CURVE",
"392 670 LINE",
"341 553 OFFCURVE",
"319 428 OFFCURVE",
"319 264 CURVE SMOOTH",
"319 183 OFFCURVE",
"324 107 OFFCURVE",
"337 32 CURVE",
"247 51 OFFCURVE",
"186 96 OFFCURVE",
"144 154 CURVE",
"144 670 LINE",
"70 670 LINE",
"70 -56 LINE",
"144 -56 LINE",
"144 57 LINE",
"198 -1 OFFCURVE",
"296 -56 OFFCURVE",
"432 -56 CURVE"
);
}
);
width = 523;
}
);
unicode = A84A;
},
{
glyphname = uniA84C;
lastChange = "2017-10-20 18:05:14 +0000";
layers = (
{
layerId = UUID0;
paths = (
{
closed = 1;
nodes = (
"661 -56 LINE",
"633 46 OFFCURVE",
"622 151 OFFCURVE",
"622 264 CURVE SMOOTH",
"622 435 OFFCURVE",
"645 542 OFFCURVE",
"702 670 CURVE",
"70 670 LINE",
"70 594 LINE",
"592 594 LINE",
"562 498 OFFCURVE",
"548 393 OFFCURVE",
"548 264 CURVE SMOOTH",
"548 179 OFFCURVE",
"553 99 OFFCURVE",
"568 20 CURVE",
"388 20 LINE",
"388 423 LINE",
"70 423 LINE",
"70 -56 LINE",
"144 -56 LINE",
"144 347 LINE",
"314 347 LINE",
"314 -56 LINE"
);
}
);
width = 752;
}
);
unicode = A84C;
},
{
glyphname = uniA85C.ini.cnt;
lastChange = "2017-10-20 18:05:14 +0000";
layers = (
{
layerId = UUID0;
paths = (
{
closed = 1;
nodes = (
"765 345 LINE",
"745 345 LINE SMOOTH",
"705 345 OFFCURVE",
"676 360 OFFCURVE",
"637 454 CURVE SMOOTH",
"591 565 OFFCURVE",
"526 610 OFFCURVE",
"429 610 CURVE SMOOTH",
"307 610 OFFCURVE",
"232 522 OFFCURVE",
"232 412 CURVE SMOOTH",
"232 312 OFFCURVE",
"288 248 OFFCURVE",
"376 201 CURVE",
"356 166 OFFCURVE",
"334 123 OFFCURVE",
"318 88 CURVE",
"261 118 OFFCURVE",
"194 163 OFFCURVE",
"144 204 CURVE",
"144 670 LINE",
"70 670 LINE",
"70 -56 LINE",
"144 -56 LINE",
"144 112 LINE",
"205 67 OFFCURVE",
"278 23 OFFCURVE",
"349 -12 CURVE",
"384 61 OFFCURVE",
"431 152 OFFCURVE",
"478 236 CURVE",
"392 273 OFFCURVE",
"310 321 OFFCURVE",
"310 412 CURVE SMOOTH",
"310 488 OFFCURVE",
"358 530 OFFCURVE",
"429 530 CURVE SMOOTH",
"500 530 OFFCURVE",
"534 506 OFFCURVE",
"571 419 CURVE SMOOTH",
"617 311 OFFCURVE",
"662 269 OFFCURVE",
"745 269 CURVE SMOOTH",
"765 269 LINE"
);
}
);
width = 745;
}
);
},
{
glyphname = uniA848.ini.cnt;
lastChange = "2017-10-20 18:05:14 +0000";
layers = (
{
layerId = UUID0;
paths = (
{
closed = 1;
nodes = (
"70 -56 LINE",
"628 -56 LINE",
"628 20 LINE",
"144 20 LINE",
"144 269 LINE",
"738 269 LINE",
"738 345 LINE",
"356 345 LINE",
"325 384 OFFCURVE",
"310 432 OFFCURVE",
"310 486 CURVE SMOOTH",
"310 557 OFFCURVE",
"355 595 OFFCURVE",
"415 595 CURVE SMOOTH",
"467 595 OFFCURVE",
"516 576 OFFCURVE",
"566 530 CURVE",
"587 572 OFFCURVE",
"615 623 OFFCURVE",
"641 670 CURVE",
"557 670 LINE",
"538 635 LINE",
"503 662 OFFCURVE",
"464 675 OFFCURVE",
"415 675 CURVE SMOOTH",
"304 675 OFFCURVE",
"232 593 OFFCURVE",
"232 486 CURVE SMOOTH",
"232 426 OFFCURVE",
"243 384 OFFCURVE",
"270 345 CURVE",
"144 345 LINE",
"144 670 LINE",
"70 670 LINE"
);
}
);
width = 718;
}
);
},
{
glyphname = uniA84B.ini.cnt;
lastChange = "2017-10-20 18:05:14 +0000";
layers = (
{
layerId = UUID0;
paths = (
{
closed = 1;
nodes = (
"601 670 LINE",
"70 670 LINE",
"70 -56 LINE",
"144 -56 LINE",
"144 594 LINE",
"395 594 LINE SMOOTH",
"423 594 OFFCURVE",
"461 595 OFFCURVE",
"490 597 CURVE",
"490 593 LINE",
"326 475 OFFCURVE",
"225 317 OFFCURVE",
"225 153 CURVE SMOOTH",
"225 20 OFFCURVE",
"298 -62 OFFCURVE",
"414 -62 CURVE SMOOTH",
"545 -62 OFFCURVE",
"601 34 OFFCURVE",
"601 146 CURVE SMOOTH",
"601 198 OFFCURVE",
"585 243 OFFCURVE",
"555 282 CURVE",
"556 285 LINE",
"598 273 OFFCURVE",
"640 269 OFFCURVE",
"691 269 CURVE SMOOTH",
"731 269 LINE",
"731 345 LINE",
"691 345 LINE SMOOTH",
"581 345 OFFCURVE",
"497 365 OFFCURVE",
"395 408 CURVE",
"442 468 OFFCURVE",
"508 529 OFFCURVE",
"601 594 CURVE"
);
},
{
closed = 1;
nodes = (
"523 66 OFFCURVE",
"487 18 OFFCURVE",
"414 18 CURVE SMOOTH",
"345 18 OFFCURVE",
"303 66 OFFCURVE",
"303 153 CURVE SMOOTH",
"303 217 OFFCURVE",
"317 279 OFFCURVE",
"353 344 CURVE",
"474 301 OFFCURVE",
"523 229 OFFCURVE",
"523 148 CURVE SMOOTH"
);
}
);
width = 711;
}
);
},
{
glyphname = uniA858;
lastChange = "2017-10-20 18:05:14 +0000";
layers = (
{
layerId = UUID0;
paths = (
{
closed = 1;
nodes = (
"432 -56 LINE",
"404 46 OFFCURVE",
"393 151 OFFCURVE",
"393 264 CURVE SMOOTH",
"393 435 OFFCURVE",
"416 542 OFFCURVE",
"473 670 CURVE",
"392 670 LINE",
"349 573 OFFCURVE",
"327 470 OFFCURVE",
"321 345 CURVE",
"144 345 LINE",
"144 670 LINE",
"70 670 LINE",
"70 -56 LINE",
"144 -56 LINE",
"144 269 LINE",
"319 269 LINE",
"319 152 OFFCURVE",
"329 47 OFFCURVE",
"357 -56 CURVE"
);
}
);
width = 523;
}
);
unicode = A858;
},
{
glyphname = uniA846;
lastChange = "2017-10-20 18:05:14 +0000";
layers = (
{
layerId = UUID0;
paths = (
{
closed = 1;
nodes = (
"70 -56 LINE",
"656 -56 LINE",
"628 46 OFFCURVE",
"617 151 OFFCURVE",
"617 264 CURVE SMOOTH",
"617 435 OFFCURVE",
"640 542 OFFCURVE",
"697 670 CURVE",
"616 670 LINE",
"565 553 OFFCURVE",
"543 428 OFFCURVE",
"543 264 CURVE SMOOTH",
"543 179 OFFCURVE",
"548 99 OFFCURVE",
"563 20 CURVE",
"388 20 LINE",
"388 670 LINE",
"314 670 LINE",
"314 20 LINE",
"144 20 LINE",
"144 670 LINE",
"70 670 LINE"
);
}
);
width = 747;
}
);
unicode = A846;
},
{
glyphname = uniA84D;
lastChange = "2017-10-20 18:05:14 +0000";
layers = (
{
layerId = UUID0;
paths = (
{
closed = 1;
nodes = (
"661 -56 LINE",
"633 46 OFFCURVE",
"622 151 OFFCURVE",
"622 264 CURVE SMOOTH",
"622 435 OFFCURVE",
"645 542 OFFCURVE",
"702 670 CURVE",
"70 670 LINE",
"70 -56 LINE",
"144 -56 LINE",
"144 269 LINE",
"314 269 LINE",
"314 -56 LINE"
);
},
{
closed = 1;
nodes = (
"388 345 LINE",
"144 345 LINE",
"144 594 LINE",
"592 594 LINE",
"562 498 OFFCURVE",
"548 393 OFFCURVE",
"548 264 CURVE SMOOTH",
"548 179 OFFCURVE",
"553 99 OFFCURVE",
"568 20 CURVE",
"388 20 LINE"
);
}
);
width = 752;
}
);
unicode = A84D;
},
{
glyphname = uniA853;
lastChange = "2017-10-20 18:05:14 +0000";
layers = (
{
layerId = UUID0;
paths = (
{
closed = 1;
nodes = (
"70 -56 LINE",
"720 -56 LINE",
"713 -31 OFFCURVE",
"707 -6 OFFCURVE",
"702 20 CURVE",
"144 20 LINE",
"144 357 LINE",
"270 357 LINE",
"270 120 LINE",
"344 120 LINE",
"344 294 LINE",
"418 201 OFFCURVE",
"557 120 OFFCURVE",
"682 120 CURVE",
"660 206 OFFCURVE",
"648 303 OFFCURVE",
"648 395 CURVE SMOOTH",
"648 487 OFFCURVE",
"660 584 OFFCURVE",
"682 670 CURVE",
"557 670 OFFCURVE",
"418 589 OFFCURVE",
"344 495 CURVE",
"344 670 LINE",
"270 670 LINE",
"270 433 LINE",
"144 433 LINE",
"144 670 LINE",
"70 670 LINE"
);
},
{
closed = 1;
nodes = (
"579 524 OFFCURVE",
"574 460 OFFCURVE",
"574 395 CURVE SMOOTH",
"574 330 OFFCURVE",
"579 266 OFFCURVE",
"587 214 CURVE",
"497 241 OFFCURVE",
"406 308 OFFCURVE",
"344 395 CURVE",
"406 481 OFFCURVE",
"497 548 OFFCURVE",
"587 575 CURVE"
);
}
);
width = 770;
}
);
unicode = A853;
},
{
glyphname = uniA842;
lastChange = "2017-10-20 18:05:14 +0000";
layers = (
{
layerId = UUID0;
paths = (
{
closed = 1;
nodes = (
"612 -56 LINE",
"593 26 OFFCURVE",
"582 115 OFFCURVE",
"582 203 CURVE SMOOTH",
"582 291 OFFCURVE",
"593 380 OFFCURVE",
"612 462 CURVE",
"274 462 LINE",
"274 241 LINE",
"144 241 LINE",
"144 594 LINE",
"644 594 LINE",
"649 620 OFFCURVE",
"655 645 OFFCURVE",
"662 670 CURVE",
"70 670 LINE",
"70 -56 LINE",
"144 -56 LINE",
"144 165 LINE",
"274 165 LINE",
"274 -56 LINE"
);
},
{
closed = 1;
nodes = (
"348 386 LINE",
"522 386 LINE",
"513 334 OFFCURVE",
"508 269 OFFCURVE",
"508 203 CURVE SMOOTH",
"508 137 OFFCURVE",
"513 72 OFFCURVE",
"522 20 CURVE",
"348 20 LINE"
);
}
);
width = 712;
}
);
unicode = A842;
},
{
glyphname = uniA841;
lastChange = "2017-10-20 18:05:14 +0000";
layers = (
{
layerId = UUID0;
paths = (
{
closed = 1;
nodes = (
"144 20 LINE",
"144 373 LINE",
"274 373 LINE",
"274 152 LINE",
"612 152 LINE",
"593 234 OFFCURVE",
"582 323 OFFCURVE",
"582 411 CURVE SMOOTH",
"582 499 OFFCURVE",
"593 588 OFFCURVE",
"612 670 CURVE",
"274 670 LINE",
"274 449 LINE",
"144 449 LINE",
"144 670 LINE",
"70 670 LINE",
"70 -56 LINE",
"662 -56 LINE",
"655 -31 OFFCURVE",
"649 -6 OFFCURVE",
"644 20 CURVE"
);
},
{
closed = 1;
nodes = (
"522 594 LINE",
"513 542 OFFCURVE",
"508 477 OFFCURVE",
"508 411 CURVE SMOOTH",
"508 345 OFFCURVE",
"513 280 OFFCURVE",
"522 228 CURVE",
"348 228 LINE",
"348 594 LINE"
);
}
);
width = 712;
}
);
unicode = A841;
},
{
glyphname = uniA841.ini;
lastChange = "2017-10-20 18:05:14 +0000";
layers = (
{
layerId = UUID0;
paths = (
{
closed = 1;
nodes = (
"144 20 LINE",
"144 373 LINE",
"274 373 LINE",
"274 152 LINE",
"612 152 LINE",
"593 234 OFFCURVE",
"582 323 OFFCURVE",
"582 411 CURVE SMOOTH",
"582 472 OFFCURVE",
"587 534 OFFCURVE",
"597 594 CURVE",
"804 594 LINE",
"804 670 LINE",
"274 670 LINE",
"274 449 LINE",
"144 449 LINE",
"144 670 LINE",
"70 670 LINE",
"70 -56 LINE",
"662 -56 LINE",
"655 -31 OFFCURVE",
"649 -6 OFFCURVE",
"644 20 CURVE"
);
},
{
closed = 1;
nodes = (
"522 594 LINE",
"513 542 OFFCURVE",
"508 477 OFFCURVE",
"508 411 CURVE SMOOTH",
"508 345 OFFCURVE",
"513 280 OFFCURVE",
"522 228 CURVE",
"348 228 LINE",
"348 594 LINE"
);
}
);
width = 784;
}
);
},
{
glyphname = uniA852;
lastChange = "2017-10-20 18:05:14 +0000";
layers = (
{
layerId = UUID0;
paths = (
{
closed = 1;
nodes = (
"632 270 LINE",
"632 438 OFFCURVE",
"655 545 OFFCURVE",
"712 670 CURVE",
"70 670 LINE",
"70 -56 LINE",
"144 -56 LINE",
"144 74 LINE",
"314 74 LINE",
"314 -56 LINE",
"388 -56 LINE",
"388 269 LINE",
"558 269 LINE",
"558 -56 LINE",
"632 -56 LINE"
);
},
{
closed = 1;
nodes = (
"144 594 LINE",
"602 594 LINE",
"578 519 OFFCURVE",
"564 438 OFFCURVE",
"559 345 CURVE",
"314 345 LINE",
"314 150 LINE",
"144 150 LINE"
);
}
);
width = 762;
}
);
unicode = A852;
},
{
glyphname = uniA857.ini.cnt;
lastChange = "2017-10-20 18:05:14 +0000";
layers = (
{
layerId = UUID0;
paths = (
{
closed = 1;
nodes = (
"70 345 LINE",
"70 269 LINE",
"286 269 LINE SMOOTH",
"374 269 OFFCURVE",
"429 223 OFFCURVE",
"429 144 CURVE SMOOTH",
"429 64 OFFCURVE",
"374 20 OFFCURVE",
"286 20 CURVE SMOOTH",
"70 20 LINE",
"70 -56 LINE",
"286 -56 LINE SMOOTH",
"417 -56 OFFCURVE",
"507 23 OFFCURVE",
"507 144 CURVE SMOOTH",
"507 194 OFFCURVE",
"487 239 OFFCURVE",
"453 267 CURVE",
"453 271 LINE",
"478 270 OFFCURVE",
"512 269 OFFCURVE",
"545 269 CURVE SMOOTH",
"639 269 LINE",
"639 345 LINE",
"393 345 LINE",
"415 434 OFFCURVE",
"461 533 OFFCURVE",
"572 670 CURVE",
"70 670 LINE",
"70 594 LINE",
"424 594 LINE",
"376 520 OFFCURVE",
"339 435 OFFCURVE",
"316 345 CURVE"
);
}
);
width = 619;
}
);
},
{
glyphname = uniA85F.med.cnt;
lastChange = "2017-10-20 18:05:14 +0000";
layers = (
{
layerId = UUID0;
paths = (
{
closed = 1;
nodes = (
"209 312 LINE",
"211 305 OFFCURVE",
"212 296 OFFCURVE",
"212 287 CURVE SMOOTH",
"212 247 OFFCURVE",
"189 219 OFFCURVE",
"145 219 CURVE SMOOTH",
"100 219 OFFCURVE",
"68 251 OFFCURVE",
"68 312 CURVE SMOOTH",
"68 391 OFFCURVE",
"119 452 OFFCURVE",
"217 452 CURVE SMOOTH",
"325 452 OFFCURVE",
"384 378 OFFCURVE",
"384 280 CURVE SMOOTH",
"384 123 OFFCURVE",
"284 20 OFFCURVE",
"80 20 CURVE",
"80 -56 LINE",
"320 -56 OFFCURVE",
"456 74 OFFCURVE",
"461 269 CURVE",
"582 269 LINE",
"582 345 LINE",
"455 345 LINE",
"431 452 OFFCURVE",
"347 532 OFFCURVE",
"217 532 CURVE SMOOTH",
"68 532 OFFCURVE",
"-10 432 OFFCURVE",
"-10 312 CURVE SMOOTH",
"-10 201 OFFCURVE",
"53 139 OFFCURVE",
"145 139 CURVE SMOOTH",
"235 139 OFFCURVE",
"290 205 OFFCURVE",
"290 287 CURVE SMOOTH",
"290 301 OFFCURVE",
"288 316 OFFCURVE",
"285 327 CURVE"
);
},
{
closed = 1;
nodes = (
"0 594 LINE",
"452 594 LINE",
"452 670 LINE",
"0 670 LINE"
);
}
);
width = 562;
}
);
},
{
glyphname = uniA854;
lastChange = "2017-10-20 18:05:14 +0000";
layers = (
{
layerId = UUID0;
paths = (
{
closed = 1;
nodes = (
"635 594 LINE",
"635 670 LINE",
"617 670 LINE SMOOTH",
"540 670 OFFCURVE",
"479 658 OFFCURVE",
"424 626 CURVE",
"368 658 OFFCURVE",
"308 670 OFFCURVE",
"231 670 CURVE SMOOTH",
"70 670 LINE",
"70 -56 LINE",
"635 -56 LINE",
"635 20 LINE",
"144 20 LINE",
"144 594 LINE",
"224 594 LINE SMOOTH",
"281 594 OFFCURVE",
"322 588 OFFCURVE",
"356 575 CURVE",
"286 509 OFFCURVE",
"245 418 OFFCURVE",
"245 318 CURVE SMOOTH",
"245 193 OFFCURVE",
"314 118 OFFCURVE",
"424 118 CURVE SMOOTH",
"534 118 OFFCURVE",
"603 193 OFFCURVE",
"603 318 CURVE SMOOTH",
"603 418 OFFCURVE",
"561 509 OFFCURVE",
"492 575 CURVE",
"525 588 OFFCURVE",
"566 594 OFFCURVE",
"624 594 CURVE SMOOTH"
);
},
{
closed = 1;
nodes = (
"525 238 OFFCURVE",
"487 198 OFFCURVE",
"424 198 CURVE SMOOTH",
"361 198 OFFCURVE",
"323 238 OFFCURVE",
"323 318 CURVE SMOOTH",
"323 398 OFFCURVE",
"356 474 OFFCURVE",
"424 532 CURVE",
"491 474 OFFCURVE",
"525 398 OFFCURVE",
"525 318 CURVE SMOOTH"
);
}
);
width = 705;
}
);
unicode = A854;
},
{
glyphname = uniA854.ini;
lastChange = "2017-10-20 18:05:14 +0000";
layers = (
{
layerId = UUID0;
paths = (
{
closed = 1;
nodes = (
"808 670 LINE",
"617 670 LINE SMOOTH",
"540 670 OFFCURVE",
"479 658 OFFCURVE",
"424 626 CURVE",
"368 658 OFFCURVE",
"308 670 OFFCURVE",
"231 670 CURVE SMOOTH",
"70 670 LINE",
"70 -56 LINE",
"635 -56 LINE",
"635 20 LINE",
"144 20 LINE",
"144 594 LINE",
"224 594 LINE SMOOTH",
"281 594 OFFCURVE",
"322 588 OFFCURVE",
"356 575 CURVE",
"286 509 OFFCURVE",
"245 418 OFFCURVE",
"245 318 CURVE SMOOTH",
"245 193 OFFCURVE",
"314 118 OFFCURVE",
"424 118 CURVE SMOOTH",
"534 118 OFFCURVE",
"603 193 OFFCURVE",
"603 318 CURVE SMOOTH",
"603 418 OFFCURVE",
"561 509 OFFCURVE",
"492 575 CURVE",
"525 588 OFFCURVE",
"566 594 OFFCURVE",
"624 594 CURVE SMOOTH",
"808 594 LINE"
);
},
{
closed = 1;
nodes = (
"525 238 OFFCURVE",
"487 198 OFFCURVE",
"424 198 CURVE SMOOTH",
"361 198 OFFCURVE",
"323 238 OFFCURVE",
"323 318 CURVE SMOOTH",
"323 398 OFFCURVE",
"356 474 OFFCURVE",
"424 532 CURVE",
"491 474 OFFCURVE",
"525 398 OFFCURVE",
"525 318 CURVE SMOOTH"
);
}
);
width = 788;
}
);
},
{
glyphname = uniA84F.ini.cnt;
lastChange = "2017-10-20 18:05:14 +0000";
layers = (
{
layerId = UUID0;
paths = (
{
closed = 1;
nodes = (
"144 385 LINE",
"207 385 OFFCURVE",
"255 381 OFFCURVE",
"304 369 CURVE",
"265 294 OFFCURVE",
"245 216 OFFCURVE",
"245 143 CURVE SMOOTH",
"245 16 OFFCURVE",
"314 -62 OFFCURVE",
"424 -62 CURVE SMOOTH",
"548 -62 OFFCURVE",
"601 29 OFFCURVE",
"601 136 CURVE SMOOTH",
"601 185 OFFCURVE",
"590 230 OFFCURVE",
"571 269 CURVE",
"731 269 LINE",
"731 345 LINE",
"515 345 LINE",
"487 371 OFFCURVE",
"455 393 OFFCURVE",
"417 411 CURVE",
"460 470 OFFCURVE",
"519 531 OFFCURVE",
"601 594 CURVE",
"601 670 LINE",
"70 670 LINE",
"70 594 LINE",
"395 594 LINE SMOOTH",
"423 594 OFFCURVE",
"461 595 OFFCURVE",
"490 597 CURVE",
"490 593 LINE",
"432 548 OFFCURVE",
"383 494 OFFCURVE",
"344 437 CURVE",
"286 453 OFFCURVE",
"220 461 OFFCURVE",
"152 461 CURVE SMOOTH",
"70 461 LINE",
"70 -56 LINE",
"144 -56 LINE"
);
},
{
closed = 1;
nodes = (
"523 62 OFFCURVE",
"490 18 OFFCURVE",
"424 18 CURVE SMOOTH",
"361 18 OFFCURVE",
"323 62 OFFCURVE",
"323 143 CURVE SMOOTH",
"323 207 OFFCURVE",
"338 275 OFFCURVE",
"376 346 CURVE",
"476 304 OFFCURVE",
"523 232 OFFCURVE",
"523 138 CURVE SMOOTH"
);
}
);
width = 711;
}
);
},
{
glyphname = uniA850;
lastChange = "2017-10-20 18:05:14 +0000";
layers = (
{
layerId = UUID0;
paths = (
{
closed = 1;
nodes = (
"70 670 LINE",
"70 -56 LINE",
"144 -56 LINE",
"144 269 LINE",
"232 269 LINE",
"250 195 OFFCURVE",
"309 154 OFFCURVE",
"387 154 CURVE SMOOTH",
"412 154 OFFCURVE",
"438 160 OFFCURVE",
"454 171 CURVE",
"427 246 LINE",
"415 237 OFFCURVE",
"401 234 OFFCURVE",
"387 234 CURVE SMOOTH",
"333 234 OFFCURVE",
"304 262 OFFCURVE",
"304 322 CURVE SMOOTH",
"304 383 OFFCURVE",
"345 432 OFFCURVE",
"423 432 CURVE SMOOTH",
"513 432 OFFCURVE",
"560 362 OFFCURVE",
"560 270 CURVE SMOOTH",
"560 119 OFFCURVE",
"466 20 OFFCURVE",
"276 20 CURVE",
"276 -56 LINE",
"509 -56 OFFCURVE",
"638 75 OFFCURVE",
"638 270 CURVE SMOOTH",
"638 389 OFFCURVE",
"577 487 OFFCURVE",
"468 508 CURVE",
"468 594 LINE",
"628 594 LINE",
"628 670 LINE"
);
},
{
closed = 1;
nodes = (
"144 345 LINE",
"144 594 LINE",
"394 594 LINE",
"394 510 LINE",
"293 499 OFFCURVE",
"235 430 OFFCURVE",
"227 345 CURVE"
);
}
);
width = 698;
}
);
unicode = A850;
},
{
glyphname = uniA850.ini;
lastChange = "2017-10-20 18:05:14 +0000";
layers = (
{
layerId = UUID0;
paths = (
{
closed = 1;
nodes = (
"70 670 LINE",
"70 -56 LINE",
"144 -56 LINE",
"144 269 LINE",
"232 269 LINE",
"250 195 OFFCURVE",
"309 154 OFFCURVE",
"387 154 CURVE SMOOTH",
"412 154 OFFCURVE",
"438 160 OFFCURVE",
"454 171 CURVE",
"427 246 LINE",
"415 237 OFFCURVE",
"401 234 OFFCURVE",
"387 234 CURVE SMOOTH",
"333 234 OFFCURVE",
"304 262 OFFCURVE",
"304 322 CURVE SMOOTH",
"304 383 OFFCURVE",
"345 432 OFFCURVE",
"423 432 CURVE SMOOTH",
"513 432 OFFCURVE",
"560 362 OFFCURVE",
"560 270 CURVE SMOOTH",
"560 119 OFFCURVE",
"466 20 OFFCURVE",
"276 20 CURVE",
"276 -56 LINE",
"509 -56 OFFCURVE",
"638 75 OFFCURVE",
"638 270 CURVE SMOOTH",
"638 389 OFFCURVE",
"577 487 OFFCURVE",
"468 508 CURVE",
"468 594 LINE",
"808 594 LINE",
"808 670 LINE"
);
},
{
closed = 1;
nodes = (
"144 345 LINE",
"144 594 LINE",
"394 594 LINE",
"394 510 LINE",
"293 499 OFFCURVE",
"235 430 OFFCURVE",
"227 345 CURVE"
);
}
);
width = 788;
}
);
},
{
glyphname = uniA845;
lastChange = "2017-10-20 18:05:14 +0000";
layers = (
{
layerId = UUID0;
paths = (
{
closed = 1;
nodes = (
"144 -56 LINE",
"144 269 LINE",
"274 269 LINE",
"274 -56 LINE",
"621 -56 LINE",
"593 46 OFFCURVE",
"582 151 OFFCURVE",
"582 264 CURVE SMOOTH",
"582 435 OFFCURVE",
"605 542 OFFCURVE",
"662 670 CURVE",
"274 670 LINE",
"274 345 LINE",
"144 345 LINE",
"144 670 LINE",
"70 670 LINE",
"70 -56 LINE"
);
},
{
closed = 1;
nodes = (
"348 594 LINE",
"552 594 LINE",
"528 519 OFFCURVE",
"515 438 OFFCURVE",
"510 345 CURVE",
"348 345 LINE"
);
},
{
closed = 1;
nodes = (
"348 20 LINE",
"348 269 LINE",
"508 269 LINE",
"508 179 OFFCURVE",
"514 99 OFFCURVE",
"529 20 CURVE"
);
}
);
width = 712;
}
);
unicode = A845;
},
{
glyphname = uniA846.ini;
lastChange = "2017-10-20 18:05:14 +0000";
layers = (
{
layerId = UUID0;
paths = (
{
closed = 1;
nodes = (
"70 -56 LINE",
"656 -56 LINE",
"628 46 OFFCURVE",
"617 151 OFFCURVE",
"617 264 CURVE SMOOTH",
"617 400 OFFCURVE",
"631 496 OFFCURVE",
"666 594 CURVE",
"838 594 LINE",
"838 670 LINE",
"616 670 LINE",
"565 553 OFFCURVE",
"543 428 OFFCURVE",
"543 264 CURVE SMOOTH",
"543 179 OFFCURVE",
"548 99 OFFCURVE",
"563 20 CURVE",
"388 20 LINE",
"388 670 LINE",
"314 670 LINE",
"314 20 LINE",
"144 20 LINE",
"144 670 LINE",
"70 670 LINE"
);
}
);
width = 818;
}
);
},
{
glyphname = uniA849.ini;
lastChange = "2017-10-20 18:05:14 +0000";
layers = (
{
layerId = UUID0;
paths = (
{
closed = 1;
nodes = (
"608 46 OFFCURVE",
"597 151 OFFCURVE",
"597 264 CURVE SMOOTH",
"597 400 OFFCURVE",
"611 496 OFFCURVE",
"646 594 CURVE",
"818 594 LINE",
"818 670 LINE",
"70 670 LINE",
"70 -56 LINE",
"144 -56 LINE",
"144 67 LINE",
"190 16 OFFCURVE",
"270 -24 OFFCURVE",
"378 -46 CURVE",
"378 38 LINE",
"426 -10 OFFCURVE",
"515 -56 OFFCURVE",
"636 -56 CURVE"
);
},
{
closed = 1;
nodes = (
"378 594 LINE",
"567 594 LINE",
"537 498 OFFCURVE",
"523 393 OFFCURVE",
"523 264 CURVE SMOOTH",
"523 183 OFFCURVE",
"528 107 OFFCURVE",
"541 32 CURVE",
"466 49 OFFCURVE",
"414 86 OFFCURVE",
"378 134 CURVE"
);
},
{
closed = 1;
nodes = (
"144 594 LINE",
"304 594 LINE",
"304 51 LINE",
"234 72 OFFCURVE",
"182 110 OFFCURVE",
"144 166 CURVE"
);
}
);
width = 798;
}
);
},
{
glyphname = uniA84A.ini;
lastChange = "2017-10-20 18:05:14 +0000";
layers = (
{
layerId = UUID0;
paths = (
{
closed = 1;
nodes = (
"404 46 OFFCURVE",
"393 151 OFFCURVE",
"393 264 CURVE SMOOTH",
"393 400 OFFCURVE",
"407 496 OFFCURVE",
"442 594 CURVE",
"614 594 LINE",
"614 670 LINE",
"392 670 LINE",
"341 553 OFFCURVE",
"319 428 OFFCURVE",
"319 264 CURVE SMOOTH",
"319 183 OFFCURVE",
"324 107 OFFCURVE",
"337 32 CURVE",
"247 51 OFFCURVE",
"186 96 OFFCURVE",
"144 154 CURVE",
"144 670 LINE",
"70 670 LINE",
"70 -56 LINE",
"144 -56 LINE",
"144 57 LINE",
"198 -1 OFFCURVE",
"296 -56 OFFCURVE",
"432 -56 CURVE"
);
}
);
width = 594;
}
);
},
{
glyphname = uniA844.ini;
lastChange = "2017-10-20 18:05:14 +0000";
layers = (
{
layerId = UUID0;
paths = (
{
closed = 1;
nodes = (
"656 -56 LINE",
"628 46 OFFCURVE",
"617 151 OFFCURVE",
"617 264 CURVE SMOOTH",
"617 400 OFFCURVE",
"631 496 OFFCURVE",
"666 594 CURVE",
"839 594 LINE",
"839 670 LINE",
"70 670 LINE",
"70 -56 LINE",
"144 -56 LINE",
"144 594 LINE",
"314 594 LINE",
"314 -56 LINE"
);
},
{
closed = 1;
nodes = (
"543 179 OFFCURVE",
"548 99 OFFCURVE",
"563 20 CURVE",
"388 20 LINE",
"388 594 LINE",
"587 594 LINE",
"557 498 OFFCURVE",
"543 393 OFFCURVE",
"543 264 CURVE SMOOTH"
);
}
);
width = 819;
}
);
},
{
glyphname = uniA845.ini;
lastChange = "2017-10-20 18:05:14 +0000";
layers = (
{
layerId = UUID0;
paths = (
{
closed = 1;
nodes = (
"144 -56 LINE",
"144 269 LINE",
"274 269 LINE",
"274 -56 LINE",
"621 -56 LINE",
"593 46 OFFCURVE",
"582 151 OFFCURVE",
"582 264 CURVE SMOOTH",
"582 400 OFFCURVE",
"596 496 OFFCURVE",
"631 594 CURVE",
"787 594 LINE",
"787 670 LINE",
"274 670 LINE",
"274 345 LINE",
"144 345 LINE",
"144 670 LINE",
"70 670 LINE",
"70 -56 LINE"
);
},
{
closed = 1;
nodes = (
"348 594 LINE",
"552 594 LINE",
"528 519 OFFCURVE",
"515 438 OFFCURVE",
"510 345 CURVE",
"348 345 LINE"
);
},
{
closed = 1;
nodes = (
"348 20 LINE",
"348 269 LINE",
"508 269 LINE",
"508 179 OFFCURVE",
"514 99 OFFCURVE",
"529 20 CURVE"
);
}
);
width = 767;
}
);
},
{
glyphname = uniA84C.ini;
lastChange = "2017-10-20 18:05:14 +0000";
layers = (
{
layerId = UUID0;
paths = (
{
closed = 1;
nodes = (
"661 -56 LINE",
"633 46 OFFCURVE",
"622 151 OFFCURVE",
"622 264 CURVE SMOOTH",
"622 400 OFFCURVE",
"636 496 OFFCURVE",
"671 594 CURVE",
"843 594 LINE",
"843 670 LINE",
"70 670 LINE",
"70 594 LINE",
"592 594 LINE",
"562 498 OFFCURVE",
"548 393 OFFCURVE",
"548 264 CURVE SMOOTH",
"548 179 OFFCURVE",
"553 99 OFFCURVE",
"568 20 CURVE",
"388 20 LINE",
"388 423 LINE",
"70 423 LINE",
"70 -56 LINE",
"144 -56 LINE",
"144 347 LINE",
"314 347 LINE",
"314 -56 LINE"
);
}
);
width = 823;
}
);
},
{
glyphname = uniA84D.ini;
lastChange = "2017-10-20 18:05:14 +0000";
layers = (
{
layerId = UUID0;
paths = (
{
closed = 1;
nodes = (
"661 -56 LINE",
"633 46 OFFCURVE",
"622 151 OFFCURVE",
"622 264 CURVE SMOOTH",
"622 400 OFFCURVE",
"636 496 OFFCURVE",
"671 594 CURVE",
"843 594 LINE",
"843 670 LINE",
"70 670 LINE",
"70 -56 LINE",
"144 -56 LINE",
"144 269 LINE",
"314 269 LINE",
"314 -56 LINE"
);
},
{
closed = 1;
nodes = (
"388 345 LINE",
"144 345 LINE",
"144 594 LINE",
"592 594 LINE",
"562 498 OFFCURVE",
"548 393 OFFCURVE",
"548 264 CURVE SMOOTH",
"548 179 OFFCURVE",
"553 99 OFFCURVE",
"568 20 CURVE",
"388 20 LINE"
);
}
);
width = 823;
}
);
},
{
glyphname = uniA852.ini;
lastChange = "2017-10-20 18:05:14 +0000";
layers = (
{
layerId = UUID0;
paths = (
{
closed = 1;
nodes = (
"632 270 LINE SMOOTH",
"632 403 OFFCURVE",
"646 498 OFFCURVE",
"681 594 CURVE",
"853 594 LINE",
"853 670 LINE",
"70 670 LINE",
"70 -56 LINE",
"144 -56 LINE",
"144 74 LINE",
"314 74 LINE",
"314 -56 LINE",
"388 -56 LINE",
"388 269 LINE",
"558 269 LINE",
"558 -56 LINE",
"632 -56 LINE"
);
},
{
closed = 1;
nodes = (
"144 594 LINE",
"602 594 LINE",
"578 519 OFFCURVE",
"564 438 OFFCURVE",
"559 345 CURVE",
"314 345 LINE",
"314 150 LINE",
"144 150 LINE"
);
}
);
width = 833;
}
);
},
{
glyphname = uniA855.ini;
lastChange = "2017-10-20 18:05:14 +0000";
layers = (
{
layerId = UUID0;
paths = (
{
closed = 1;
nodes = (
"656 -56 LINE",
"628 46 OFFCURVE",
"617 151 OFFCURVE",
"617 264 CURVE SMOOTH",
"617 400 OFFCURVE",
"631 496 OFFCURVE",
"666 594 CURVE",
"838 594 LINE",
"838 670 LINE",
"70 670 LINE",
"70 -56 LINE",
"144 -56 LINE",
"144 594 LINE",
"314 594 LINE",
"314 -56 LINE",
"388 -56 LINE",
"388 594 LINE",
"587 594 LINE",
"557 498 OFFCURVE",
"543 393 OFFCURVE",
"543 264 CURVE SMOOTH",
"543 152 OFFCURVE",
"553 47 OFFCURVE",
"581 -56 CURVE"
);
}
);
width = 818;
}
);
},
{
glyphname = uniA856.ini;
lastChange = "2017-10-20 18:05:14 +0000";
layers = (
{
layerId = UUID0;
paths = (
{
closed = 1;
nodes = (
"577 670 LINE",
"558 600 OFFCURVE",
"548 519 OFFCURVE",
"548 430 CURVE SMOOTH",
"548 372 OFFCURVE",
"553 313 OFFCURVE",
"562 267 CURVE",
"388 267 LINE",
"388 670 LINE",
"70 670 LINE",
"70 -56 LINE",
"700 -56 LINE",
"693 -31 OFFCURVE",
"687 -6 OFFCURVE",
"682 20 CURVE",
"144 20 LINE",
"144 594 LINE",
"314 594 LINE",
"314 191 LINE",
"652 191 LINE",
"633 267 OFFCURVE",
"622 348 OFFCURVE",
"622 430 CURVE SMOOTH",
"622 485 OFFCURVE",
"627 540 OFFCURVE",
"636 594 CURVE",
"844 594 LINE",
"844 670 LINE"
);
}
);
width = 824;
}
);
},
{
glyphname = uniA858.ini;
lastChange = "2017-10-20 18:05:14 +0000";
layers = (
{
layerId = UUID0;
paths = (
{
closed = 1;
nodes = (
"432 -56 LINE",
"404 46 OFFCURVE",
"393 151 OFFCURVE",
"393 264 CURVE SMOOTH",
"393 400 OFFCURVE",
"407 496 OFFCURVE",
"442 594 CURVE",
"614 594 LINE",
"614 670 LINE",
"392 670 LINE",
"349 573 OFFCURVE",
"327 470 OFFCURVE",
"321 345 CURVE",
"144 345 LINE",
"144 670 LINE",
"70 670 LINE",
"70 -56 LINE",
"144 -56 LINE",
"144 269 LINE",
"319 269 LINE",
"319 152 OFFCURVE",
"329 47 OFFCURVE",
"357 -56 CURVE"
);
}
);
width = 594;
}
);
},
{
glyphname = uniA866.ini;
lastChange = "2017-10-20 18:05:14 +0000";
layers = (
{
layerId = UUID0;
paths = (
{
closed = 1;
nodes = (
"70 -56 LINE",
"412 -56 LINE",
"384 46 OFFCURVE",
"373 151 OFFCURVE",
"373 264 CURVE SMOOTH",
"373 400 OFFCURVE",
"387 496 OFFCURVE",
"422 594 CURVE",
"594 594 LINE",
"594 670 LINE",
"372 670 LINE",
"321 553 OFFCURVE",
"299 428 OFFCURVE",
"299 264 CURVE SMOOTH",
"299 178 OFFCURVE",
"304 99 OFFCURVE",
"320 20 CURVE",
"144 20 LINE",
"144 670 LINE",
"70 670 LINE"
);
}
);
width = 574;
}
);
},
{
glyphname = uniA85A.ini;
lastChange = "2017-10-20 18:05:14 +0000";
layers = (
{
layerId = UUID0;
paths = (
{
closed = 1;
nodes = (
"144 594 LINE",
"844 594 LINE",
"844 670 LINE",
"70 670 LINE",
"70 -56 LINE",
"388 -56 LINE",
"388 347 LINE",
"562 347 LINE",
"553 301 OFFCURVE",
"548 242 OFFCURVE",
"548 184 CURVE SMOOTH",
"548 95 OFFCURVE",
"558 14 OFFCURVE",
"577 -56 CURVE",
"652 -56 LINE",
"633 20 OFFCURVE",
"622 102 OFFCURVE",
"622 184 CURVE SMOOTH",
"622 266 OFFCURVE",
"633 347 OFFCURVE",
"652 423 CURVE",
"314 423 LINE",
"314 20 LINE",
"144 20 LINE"
);
}
);
width = 824;
}
);
},
{
glyphname = uniA842.ini;
lastChange = "2017-10-20 18:05:14 +0000";
layers = (
{
layerId = UUID0;
paths = (
{
closed = 1;
nodes = (
"612 -56 LINE",
"593 26 OFFCURVE",
"582 115 OFFCURVE",
"582 203 CURVE SMOOTH",
"582 291 OFFCURVE",
"593 380 OFFCURVE",
"612 462 CURVE",
"274 462 LINE",
"274 241 LINE",
"144 241 LINE",
"144 594 LINE",
"804 594 LINE",
"804 670 LINE",
"70 670 LINE",
"70 -56 LINE",
"144 -56 LINE",
"144 165 LINE",
"274 165 LINE",
"274 -56 LINE"
);
},
{
closed = 1;
nodes = (
"348 386 LINE",
"522 386 LINE",
"513 334 OFFCURVE",
"508 269 OFFCURVE",
"508 203 CURVE SMOOTH",
"508 137 OFFCURVE",
"513 72 OFFCURVE",
"522 20 CURVE",
"348 20 LINE"
);
}
);
width = 784;
}
);
},
{
glyphname = uniA859.ini;
lastChange = "2017-10-20 18:05:14 +0000";
layers = (
{
layerId = UUID0;
paths = (
{
closed = 1;
nodes = (
"70 -56 LINE",
"696 -56 LINE",
"689 -31 OFFCURVE",
"683 -6 OFFCURVE",
"678 20 CURVE",
"144 20 LINE",
"144 380 LINE",
"314 380 LINE",
"314 158 LINE",
"652 158 LINE",
"633 238 OFFCURVE",
"622 327 OFFCURVE",
"622 413 CURVE SMOOTH",
"622 473 OFFCURVE",
"627 535 OFFCURVE",
"637 594 CURVE",
"844 594 LINE",
"844 670 LINE",
"70 670 LINE",
"70 594 LINE",
"562 594 LINE",
"553 543 OFFCURVE",
"548 478 OFFCURVE",
"548 413 CURVE SMOOTH",
"548 349 OFFCURVE",
"553 284 OFFCURVE",
"562 234 CURVE",
"388 234 LINE",
"388 456 LINE",
"70 456 LINE"
);
}
);
width = 824;
}
);
},
{
glyphname = uniA853.ini;
lastChange = "2017-10-20 18:05:14 +0000";
layers = (
{
layerId = UUID0;
paths = (
{
closed = 1;
nodes = (
"70 -56 LINE",
"720 -56 LINE",
"713 -31 OFFCURVE",
"707 -6 OFFCURVE",
"702 20 CURVE",
"144 20 LINE",
"144 357 LINE",
"270 357 LINE",
"270 120 LINE",
"344 120 LINE",
"344 294 LINE",
"418 201 OFFCURVE",
"557 120 OFFCURVE",
"682 120 CURVE",
"660 206 OFFCURVE",
"648 303 OFFCURVE",
"648 395 CURVE SMOOTH",
"648 460 OFFCURVE",
"654 529 OFFCURVE",
"665 594 CURVE",
"873 594 LINE",
"873 670 LINE",
"682 670 LINE SMOOTH",
"557 670 OFFCURVE",
"418 589 OFFCURVE",
"344 495 CURVE",
"344 670 LINE",
"270 670 LINE",
"270 433 LINE",
"144 433 LINE",
"144 670 LINE",
"70 670 LINE"
);
},
{
closed = 1;
nodes = (
"579 524 OFFCURVE",
"574 460 OFFCURVE",
"574 395 CURVE SMOOTH",
"574 330 OFFCURVE",
"579 266 OFFCURVE",
"587 214 CURVE",
"497 241 OFFCURVE",
"406 308 OFFCURVE",
"344 395 CURVE",
"406 481 OFFCURVE",
"497 548 OFFCURVE",
"587 575 CURVE"
);
}
);
width = 853;
}
);
},
{
glyphname = uniA867;
lastChange = "2017-10-20 18:05:14 +0000";
layers = (
{
layerId = UUID0;
paths = (
{
closed = 1;
nodes = (
"345 -56 LINE",
"363 197 OFFCURVE",
"413 451 OFFCURVE",
"540 670 CURVE",
"40 670 LINE",
"49 359 OFFCURVE",
"139 102 OFFCURVE",
"233 -56 CURVE"
);
},
{
closed = 1;
nodes = (
"416 594 LINE",
"338 408 OFFCURVE",
"299 248 OFFCURVE",
"279 19 CURVE",
"275 19 LINE",
"186 199 OFFCURVE",
"135 379 OFFCURVE",
"118 594 CURVE"
);
}
);
width = 570;
}
);
unicode = A867;
},
{
glyphname = uniA867.ini;
lastChange = "2017-10-20 18:05:14 +0000";
layers = (
{
layerId = UUID0;
paths = (
{
closed = 1;
nodes = (
"345 -56 LINE",
"361 168 OFFCURVE",
"402 393 OFFCURVE",
"499 594 CURVE",
"611 594 LINE",
"611 670 LINE",
"40 670 LINE",
"49 359 OFFCURVE",
"139 102 OFFCURVE",
"233 -56 CURVE"
);
},
{
closed = 1;
nodes = (
"416 594 LINE",
"338 408 OFFCURVE",
"299 248 OFFCURVE",
"279 19 CURVE",
"275 19 LINE",
"186 199 OFFCURVE",
"135 379 OFFCURVE",
"118 594 CURVE"
);
}
);
width = 591;
}
);
},
{
glyphname = uniA864;
lastChange = "2017-10-20 18:05:14 +0000";
layers = (
{
layerId = UUID0;
paths = (
{
closed = 1;
nodes = (
"842 -56 LINE",
"836 -16 OFFCURVE",
"833 35 OFFCURVE",
"833 84 CURVE SMOOTH",
"833 308 OFFCURVE",
"873 488 OFFCURVE",
"967 670 CURVE",
"851 670 LINE SMOOTH",
"702 670 OFFCURVE",
"608 642 OFFCURVE",
"516 566 CURVE",
"483 590 OFFCURVE",
"447 600 OFFCURVE",
"405 600 CURVE SMOOTH",
"300 600 OFFCURVE",
"232 515 OFFCURVE",
"232 412 CURVE SMOOTH",
"232 312 OFFCURVE",
"288 248 OFFCURVE",
"376 201 CURVE",
"356 166 OFFCURVE",
"334 123 OFFCURVE",
"318 88 CURVE",
"261 118 OFFCURVE",
"194 163 OFFCURVE",
"144 204 CURVE",
"144 670 LINE",
"70 670 LINE",
"70 -56 LINE",
"144 -56 LINE",
"144 112 LINE",
"205 67 OFFCURVE",
"278 23 OFFCURVE",
"349 -12 CURVE",
"384 61 OFFCURVE",
"431 152 OFFCURVE",
"478 236 CURVE",
"392 273 OFFCURVE",
"310 321 OFFCURVE",
"310 412 CURVE SMOOTH",
"310 481 OFFCURVE",
"351 520 OFFCURVE",
"405 520 CURVE SMOOTH",
"477 520 OFFCURVE",
"521 486 OFFCURVE",
"572 307 CURVE SMOOTH",
"616 152 OFFCURVE",
"660 45 OFFCURVE",
"720 -56 CURVE"
);
},
{
closed = 1;
nodes = (
"640 574 OFFCURVE",
"723 594 OFFCURVE",
"849 594 CURVE",
"788 443 OFFCURVE",
"759 282 OFFCURVE",
"759 84 CURVE SMOOTH",
"759 65 OFFCURVE",
"760 44 OFFCURVE",
"763 27 CURVE",
"759 27 LINE",
"710 122 OFFCURVE",
"677 209 OFFCURVE",
"643 328 CURVE SMOOTH",
"620 409 OFFCURVE",
"595 469 OFFCURVE",
"567 511 CURVE"
);
}
);
width = 997;
}
);
unicode = A864;
},
{
glyphname = uniA864.ini;
lastChange = "2017-10-20 18:05:14 +0000";
layers = (
{
layerId = UUID0;
paths = (
{
closed = 1;
nodes = (
"842 -56 LINE",
"836 -16 OFFCURVE",
"833 35 OFFCURVE",
"833 84 CURVE SMOOTH",
"833 276 OFFCURVE",
"863 437 OFFCURVE",
"931 594 CURVE",
"1074 594 LINE",
"1074 670 LINE",
"851 670 LINE SMOOTH",
"702 670 OFFCURVE",
"608 642 OFFCURVE",
"516 566 CURVE",
"483 590 OFFCURVE",
"447 600 OFFCURVE",
"405 600 CURVE SMOOTH",
"300 600 OFFCURVE",
"232 515 OFFCURVE",
"232 412 CURVE SMOOTH",
"232 312 OFFCURVE",
"288 248 OFFCURVE",
"376 201 CURVE",
"356 166 OFFCURVE",
"334 123 OFFCURVE",
"318 88 CURVE",
"261 118 OFFCURVE",
"194 163 OFFCURVE",
"144 204 CURVE",
"144 670 LINE",
"70 670 LINE",
"70 -56 LINE",
"144 -56 LINE",
"144 112 LINE",
"205 67 OFFCURVE",
"278 23 OFFCURVE",
"349 -12 CURVE",
"384 61 OFFCURVE",
"431 152 OFFCURVE",
"478 236 CURVE",
"392 273 OFFCURVE",
"310 321 OFFCURVE",
"310 412 CURVE SMOOTH",
"310 481 OFFCURVE",
"351 520 OFFCURVE",
"405 520 CURVE SMOOTH",
"477 520 OFFCURVE",
"521 486 OFFCURVE",
"572 307 CURVE SMOOTH",
"616 152 OFFCURVE",
"660 45 OFFCURVE",
"720 -56 CURVE"
);
},
{
closed = 1;
nodes = (
"640 574 OFFCURVE",
"723 594 OFFCURVE",
"849 594 CURVE",
"788 443 OFFCURVE",
"759 282 OFFCURVE",
"759 84 CURVE SMOOTH",
"759 65 OFFCURVE",
"760 44 OFFCURVE",
"763 27 CURVE",
"759 27 LINE",
"710 122 OFFCURVE",
"677 209 OFFCURVE",
"643 328 CURVE SMOOTH",
"620 409 OFFCURVE",
"595 469 OFFCURVE",
"567 511 CURVE"
);
}
);
width = 1054;
}
);
},
{
glyphname = uniA869;
lastChange = "2017-10-20 18:05:14 +0000";
layers = (
{
layerId = UUID0;
paths = (
{
closed = 1;
nodes = (
"144 -56 LINE",
"144 299 LINE",
"275 299 LINE",
"245 258 OFFCURVE",
"232 215 OFFCURVE",
"232 152 CURVE SMOOTH",
"232 45 OFFCURVE",
"304 -37 OFFCURVE",
"415 -37 CURVE SMOOTH",
"465 -37 OFFCURVE",
"505 -25 OFFCURVE",
"540 -1 CURVE",
"550 -20 OFFCURVE",
"560 -39 OFFCURVE",
"570 -56 CURVE",
"654 -56 LINE",
"625 -4 OFFCURVE",
"591 59 OFFCURVE",
"566 108 CURVE",
"516 62 OFFCURVE",
"467 43 OFFCURVE",
"415 43 CURVE SMOOTH",
"355 43 OFFCURVE",
"310 81 OFFCURVE",
"310 152 CURVE SMOOTH",
"310 209 OFFCURVE",
"327 259 OFFCURVE",
"361 299 CURVE",
"628 299 LINE",
"628 375 LINE",
"144 375 LINE",
"144 594 LINE",
"628 594 LINE",
"628 670 LINE",
"70 670 LINE",
"70 -56 LINE"
);
}
);
width = 698;
}
);
unicode = A869;
},
{
glyphname = uniA865;
lastChange = "2017-10-20 18:05:14 +0000";
layers = (
{
layerId = UUID0;
paths = (
{
closed = 1;
nodes = (
"578 20 LINE",
"493 115 OFFCURVE",
"434 232 OFFCURVE",
"404 375 CURVE",
"297 375 OFFCURVE",
"213 360 OFFCURVE",
"144 323 CURVE",
"144 594 LINE",
"578 594 LINE",
"578 670 LINE",
"70 670 LINE",
"70 -56 LINE",
"578 -56 LINE"
);
},
{
closed = 1;
nodes = (
"371 205 OFFCURVE",
"422 99 OFFCURVE",
"489 22 CURVE",
"489 18 LINE",
"460 19 OFFCURVE",
"421 20 OFFCURVE",
"386 20 CURVE SMOOTH",
"144 20 LINE",
"144 238 LINE",
"208 280 OFFCURVE",
"266 294 OFFCURVE",
"350 298 CURVE"
);
}
);
width = 633;
}
);
unicode = A865;
},
{
glyphname = uniA865.ini;
lastChange = "2017-10-20 18:05:14 +0000";
layers = (
{
layerId = UUID0;
paths = (
{
closed = 1;
nodes = (
"578 20 LINE",
"493 115 OFFCURVE",
"434 232 OFFCURVE",
"404 375 CURVE",
"297 375 OFFCURVE",
"213 360 OFFCURVE",
"144 323 CURVE",
"144 594 LINE",
"758 594 LINE",
"758 670 LINE",
"70 670 LINE",
"70 -56 LINE",
"578 -56 LINE"
);
},
{
closed = 1;
nodes = (
"371 205 OFFCURVE",
"422 99 OFFCURVE",
"489 22 CURVE",
"489 18 LINE",
"460 19 OFFCURVE",
"421 20 OFFCURVE",
"386 20 CURVE SMOOTH",
"144 20 LINE",
"144 238 LINE",
"208 280 OFFCURVE",
"266 294 OFFCURVE",
"350 298 CURVE"
);
}
);
width = 738;
}
);
},
{
glyphname = uniA865.ini.cnt;
lastChange = "2017-10-20 18:05:14 +0000";
layers = (
{
layerId = UUID0;
paths = (
{
closed = 1;
nodes = (
"578 20 LINE",
"510 89 OFFCURVE",
"458 171 OFFCURVE",
"425 269 CURVE",
"708 269 LINE",
"708 345 LINE",
"404 345 LINE SMOOTH",
"297 345 OFFCURVE",
"213 330 OFFCURVE",
"144 293 CURVE",
"144 594 LINE",
"578 594 LINE",
"578 670 LINE",
"70 670 LINE",
"70 -56 LINE",
"578 -56 LINE"
);
},
{
closed = 1;
nodes = (
"371 184 OFFCURVE",
"422 90 OFFCURVE",
"489 22 CURVE",
"489 18 LINE",
"460 19 OFFCURVE",
"421 20 OFFCURVE",
"386 20 CURVE SMOOTH",
"144 20 LINE",
"144 208 LINE",
"208 250 OFFCURVE",
"266 264 OFFCURVE",
"350 268 CURVE"
);
}
);
width = 688;
}
);
},
{
glyphname = uniA869.ini;
lastChange = "2017-10-20 18:05:14 +0000";
layers = (
{
layerId = UUID0;
paths = (
{
closed = 1;
nodes = (
"144 -56 LINE",
"144 299 LINE",
"275 299 LINE",
"245 258 OFFCURVE",
"232 215 OFFCURVE",
"232 152 CURVE SMOOTH",
"232 45 OFFCURVE",
"304 -37 OFFCURVE",
"415 -37 CURVE SMOOTH",
"468 -37 OFFCURVE",
"509 -24 OFFCURVE",
"546 2 CURVE",
"576 -36 OFFCURVE",
"616 -56 OFFCURVE",
"694 -56 CURVE SMOOTH",
"808 -56 LINE",
"808 20 LINE",
"707 20 LINE SMOOTH",
"636 20 OFFCURVE",
"601 45 OFFCURVE",
"566 108 CURVE",
"516 62 OFFCURVE",
"467 43 OFFCURVE",
"415 43 CURVE SMOOTH",
"355 43 OFFCURVE",
"310 81 OFFCURVE",
"310 152 CURVE SMOOTH",
"310 209 OFFCURVE",
"327 259 OFFCURVE",
"361 299 CURVE",
"628 299 LINE",
"628 375 LINE",
"144 375 LINE",
"144 594 LINE",
"628 594 LINE",
"628 670 LINE",
"70 670 LINE",
"70 -56 LINE"
);
}
);
width = 788;
}
);
},
{
glyphname = uniA869.ini.cnt;
lastChange = "2017-10-20 18:05:14 +0000";
layers = (
{
layerId = UUID0;
paths = (
{
closed = 1;
nodes = (
"144 -56 LINE",
"144 269 LINE",
"270 269 LINE",
"243 230 OFFCURVE",
"232 188 OFFCURVE",
"232 128 CURVE SMOOTH",
"232 21 OFFCURVE",
"304 -61 OFFCURVE",
"415 -61 CURVE SMOOTH",
"464 -61 OFFCURVE",
"503 -48 OFFCURVE",
"538 -21 CURVE",
"557 -56 LINE",
"641 -56 LINE",
"615 -9 OFFCURVE",
"587 42 OFFCURVE",
"566 84 CURVE",
"516 38 OFFCURVE",
"467 19 OFFCURVE",
"415 19 CURVE SMOOTH",
"355 19 OFFCURVE",
"310 57 OFFCURVE",
"310 128 CURVE SMOOTH",
"310 182 OFFCURVE",
"325 230 OFFCURVE",
"356 269 CURVE",
"738 269 LINE",
"738 345 LINE",
"144 345 LINE",
"144 594 LINE",
"628 594 LINE",
"628 670 LINE",
"70 670 LINE",
"70 -56 LINE"
);
}
);
width = 718;
}
);
},
{
glyphname = uniA86A;
lastChange = "2017-10-20 18:05:14 +0000";
layers = (
{
layerId = UUID0;
paths = (
{
closed = 1;
nodes = (
"515 670 OFFCURVE",
"426 624 OFFCURVE",
"378 576 CURVE",
"378 660 LINE",
"270 638 OFFCURVE",
"190 597 OFFCURVE",
"144 547 CURVE",
"144 670 LINE",
"70 670 LINE",
"70 -56 LINE",
"677 -56 LINE",
"620 72 OFFCURVE",
"597 179 OFFCURVE",
"597 350 CURVE SMOOTH",
"597 463 OFFCURVE",
"608 568 OFFCURVE",
"636 670 CURVE"
);
},
{
closed = 1;
nodes = (
"528 506 OFFCURVE",
"523 431 OFFCURVE",
"523 350 CURVE SMOOTH",
"523 221 OFFCURVE",
"537 116 OFFCURVE",
"567 20 CURVE",
"378 20 LINE",
"378 479 LINE",
"414 527 OFFCURVE",
"466 565 OFFCURVE",
"541 581 CURVE"
);
},
{
closed = 1;
nodes = (
"304 20 LINE",
"144 20 LINE",
"144 447 LINE",
"182 503 OFFCURVE",
"234 542 OFFCURVE",
"304 562 CURVE"
);
}
);
width = 727;
}
);
unicode = A86A;
},
{
glyphname = uniA86A.ini;
lastChange = "2017-10-20 18:05:14 +0000";
layers = (
{
layerId = UUID0;
paths = (
{
closed = 1;
nodes = (
"515 670 OFFCURVE",
"426 624 OFFCURVE",
"378 576 CURVE",
"378 660 LINE",
"270 638 OFFCURVE",
"190 597 OFFCURVE",
"144 547 CURVE",
"144 670 LINE",
"70 670 LINE",
"70 -56 LINE",
"818 -56 LINE",
"818 20 LINE",
"646 20 LINE",
"611 118 OFFCURVE",
"597 214 OFFCURVE",
"597 350 CURVE SMOOTH",
"597 463 OFFCURVE",
"608 568 OFFCURVE",
"636 670 CURVE"
);
},
{
closed = 1;
nodes = (
"528 506 OFFCURVE",
"523 431 OFFCURVE",
"523 350 CURVE SMOOTH",
"523 221 OFFCURVE",
"537 116 OFFCURVE",
"567 20 CURVE",
"378 20 LINE",
"378 479 LINE",
"414 527 OFFCURVE",
"466 565 OFFCURVE",
"541 581 CURVE"
);
},
{
closed = 1;
nodes = (
"304 20 LINE",
"144 20 LINE",
"144 447 LINE",
"182 503 OFFCURVE",
"234 542 OFFCURVE",
"304 562 CURVE"
);
}
);
width = 798;
}
);
},
{
glyphname = uniA85F.mir.med;
lastChange = "2017-10-20 18:05:14 +0000";
layers = (
{
layerId = UUID0;
paths = (
{
closed = 1;
nodes = (
"285 287 LINE",
"288 298 OFFCURVE",
"290 313 OFFCURVE",
"290 327 CURVE SMOOTH",
"290 409 OFFCURVE",
"235 475 OFFCURVE",
"145 475 CURVE SMOOTH",
"53 475 OFFCURVE",
"-10 413 OFFCURVE",
"-10 302 CURVE SMOOTH",
"-10 182 OFFCURVE",
"68 82 OFFCURVE",
"217 82 CURVE SMOOTH",
"372 82 OFFCURVE",
"462 196 OFFCURVE",
"462 334 CURVE SMOOTH",
"462 535 OFFCURVE",
"325 670 OFFCURVE",
"80 670 CURVE",
"80 594 LINE",
"284 594 OFFCURVE",
"384 491 OFFCURVE",
"384 334 CURVE SMOOTH",
"384 236 OFFCURVE",
"325 162 OFFCURVE",
"217 162 CURVE SMOOTH",
"119 162 OFFCURVE",
"68 223 OFFCURVE",
"68 302 CURVE SMOOTH",
"68 363 OFFCURVE",
"100 395 OFFCURVE",
"145 395 CURVE SMOOTH",
"189 395 OFFCURVE",
"212 367 OFFCURVE",
"212 327 CURVE SMOOTH",
"212 318 OFFCURVE",
"211 309 OFFCURVE",
"209 302 CURVE"
);
},
{
closed = 1;
nodes = (
"0 -56 LINE",
"578 -56 LINE",
"578 20 LINE",
"0 20 LINE"
);
}
);
width = 558;
}
);
},
{
glyphname = uniA85F.mir.med.cnt;
lastChange = "2017-10-20 18:05:14 +0000";
layers = (
{
layerId = UUID0;
paths = (
{
closed = 1;
nodes = (
"285 287 LINE",
"288 298 OFFCURVE",
"290 313 OFFCURVE",
"290 327 CURVE SMOOTH",
"290 409 OFFCURVE",
"235 475 OFFCURVE",
"145 475 CURVE SMOOTH",
"53 475 OFFCURVE",
"-10 413 OFFCURVE",
"-10 302 CURVE SMOOTH",
"-10 182 OFFCURVE",
"68 82 OFFCURVE",
"217 82 CURVE SMOOTH",
"347 82 OFFCURVE",
"431 162 OFFCURVE",
"455 269 CURVE",
"582 269 LINE",
"582 345 LINE",
"461 345 LINE",
"456 540 OFFCURVE",
"320 670 OFFCURVE",
"80 670 CURVE",
"80 594 LINE",
"284 594 OFFCURVE",
"384 491 OFFCURVE",
"384 334 CURVE SMOOTH",
"384 236 OFFCURVE",
"325 162 OFFCURVE",
"217 162 CURVE SMOOTH",
"119 162 OFFCURVE",
"68 223 OFFCURVE",
"68 302 CURVE SMOOTH",
"68 363 OFFCURVE",
"100 395 OFFCURVE",
"145 395 CURVE SMOOTH",
"189 395 OFFCURVE",
"212 367 OFFCURVE",
"212 327 CURVE SMOOTH",
"212 318 OFFCURVE",
"211 309 OFFCURVE",
"209 302 CURVE"
);
},
{
closed = 1;
nodes = (
"0 -56 LINE",
"452 -56 LINE",
"452 20 LINE",
"0 20 LINE"
);
}
);
width = 562;
}
);
},
{
glyphname = uniA85F.mir.fin;
lastChange = "2017-10-20 18:05:14 +0000";
layers = (
{
layerId = UUID0;
paths = (
{
closed = 1;
nodes = (
"285 287 LINE",
"288 298 OFFCURVE",
"290 313 OFFCURVE",
"290 327 CURVE SMOOTH",
"290 409 OFFCURVE",
"235 475 OFFCURVE",
"145 475 CURVE SMOOTH",
"53 475 OFFCURVE",
"-10 413 OFFCURVE",
"-10 302 CURVE SMOOTH",
"-10 182 OFFCURVE",
"68 82 OFFCURVE",
"217 82 CURVE SMOOTH",
"372 82 OFFCURVE",
"462 196 OFFCURVE",
"462 334 CURVE SMOOTH",
"462 535 OFFCURVE",
"325 670 OFFCURVE",
"80 670 CURVE",
"80 594 LINE",
"284 594 OFFCURVE",
"384 491 OFFCURVE",
"384 334 CURVE SMOOTH",
"384 236 OFFCURVE",
"325 162 OFFCURVE",
"217 162 CURVE SMOOTH",
"119 162 OFFCURVE",
"68 223 OFFCURVE",
"68 302 CURVE SMOOTH",
"68 363 OFFCURVE",
"100 395 OFFCURVE",
"145 395 CURVE SMOOTH",
"189 395 OFFCURVE",
"212 367 OFFCURVE",
"212 327 CURVE SMOOTH",
"212 318 OFFCURVE",
"211 309 OFFCURVE",
"209 302 CURVE"
);
},
{
closed = 1;
nodes = (
"0 -56 LINE",
"452 -56 LINE",
"452 20 LINE",
"0 20 LINE"
);
}
);
width = 502;
}
);
},
{
glyphname = uniA863;
lastChange = "2017-10-20 18:05:14 +0000";
layers = (
{
layerId = UUID0;
paths = (
{
closed = 1;
nodes = (
"70 -56 LINE",
"668 -56 LINE",
"661 -31 OFFCURVE",
"655 -6 OFFCURVE",
"650 20 CURVE",
"144 20 LINE",
"144 286 LINE",
"190 235 OFFCURVE",
"270 195 OFFCURVE",
"378 174 CURVE",
"378 249 LINE",
"428 204 OFFCURVE",
"511 165 OFFCURVE",
"622 164 CURVE",
"617 202 OFFCURVE",
"615 235 OFFCURVE",
"615 274 CURVE SMOOTH",
"615 441 OFFCURVE",
"637 545 OFFCURVE",
"693 670 CURVE",
"70 670 LINE"
);
},
{
closed = 1;
nodes = (
"378 594 LINE",
"583 594 LINE",
"554 501 OFFCURVE",
"541 399 OFFCURVE",
"541 274 CURVE SMOOTH",
"541 250 LINE",
"467 264 OFFCURVE",
"415 298 OFFCURVE",
"378 342 CURVE"
);
},
{
closed = 1;
nodes = (
"144 594 LINE",
"304 594 LINE",
"304 271 LINE",
"234 292 OFFCURVE",
"182 330 OFFCURVE",
"144 386 CURVE"
);
}
);
width = 743;
}
);
unicode = A863;
},
{
glyphname = uniA863.ini;
lastChange = "2017-10-20 18:05:14 +0000";
layers = (
{
layerId = UUID0;
paths = (
{
closed = 1;
nodes = (
"70 -56 LINE",
"668 -56 LINE",
"661 -31 OFFCURVE",
"655 -6 OFFCURVE",
"650 20 CURVE",
"144 20 LINE",
"144 286 LINE",
"190 235 OFFCURVE",
"270 195 OFFCURVE",
"378 174 CURVE",
"378 249 LINE",
"428 204 OFFCURVE",
"511 165 OFFCURVE",
"622 164 CURVE",
"617 202 OFFCURVE",
"615 235 OFFCURVE",
"615 274 CURVE SMOOTH",
"615 406 OFFCURVE",
"628 499 OFFCURVE",
"662 594 CURVE",
"818 594 LINE",
"818 670 LINE",
"70 670 LINE"
);
},
{
closed = 1;
nodes = (
"378 594 LINE",
"583 594 LINE",
"554 501 OFFCURVE",
"541 399 OFFCURVE",
"541 274 CURVE SMOOTH",
"541 250 LINE",
"467 264 OFFCURVE",
"415 298 OFFCURVE",
"378 342 CURVE"
);
},
{
closed = 1;
nodes = (
"144 594 LINE",
"304 594 LINE",
"304 271 LINE",
"234 292 OFFCURVE",
"182 330 OFFCURVE",
"144 386 CURVE"
);
}
);
width = 798;
}
);
},
{
glyphname = uniA860.mir.med;
lastChange = "2017-10-20 18:05:14 +0000";
layers = (
{
layerId = UUID0;
paths = (
{
closed = 1;
nodes = (
"338 228 LINE",
"241 357 OFFCURVE",
"169 514 OFFCURVE",
"122 670 CURVE",
"0 670 LINE",
"0 -56 LINE",
"530 -56 LINE",
"530 20 LINE",
"74 20 LINE",
"74 479 LINE SMOOTH",
"74 516 OFFCURVE",
"73 556 OFFCURVE",
"71 589 CURVE",
"75 589 LINE",
"113 463 OFFCURVE",
"168 343 OFFCURVE",
"245 228 CURVE"
);
}
);
width = 510;
}
);
},
{
glyphname = uniA860.mir.med.cnt;
lastChange = "2017-10-20 18:05:14 +0000";
layers = (
{
layerId = UUID0;
paths = (
{
closed = 1;
nodes = (
"460 345 LINE",
"440 345 LINE SMOOTH",
"271 345 OFFCURVE",
"199 398 OFFCURVE",
"122 670 CURVE",
"0 670 LINE",
"0 -56 LINE",
"346 -56 LINE",
"346 20 LINE",
"74 20 LINE",
"74 479 LINE SMOOTH",
"74 516 OFFCURVE",
"73 556 OFFCURVE",
"71 589 CURVE",
"75 589 LINE",
"149 339 OFFCURVE",
"258 269 OFFCURVE",
"440 269 CURVE SMOOTH",
"460 269 LINE"
);
}
);
width = 440;
}
);
},
{
glyphname = uniA860.mir.fin;
lastChange = "2017-10-20 18:05:14 +0000";
layers = (
{
layerId = UUID0;
paths = (
{
closed = 1;
nodes = (
"338 228 LINE",
"241 357 OFFCURVE",
"169 514 OFFCURVE",
"122 670 CURVE",
"0 670 LINE",
"0 -56 LINE",
"350 -56 LINE",
"350 20 LINE",
"74 20 LINE",
"74 479 LINE SMOOTH",
"74 516 OFFCURVE",
"73 556 OFFCURVE",
"71 589 CURVE",
"75 589 LINE",
"113 463 OFFCURVE",
"168 343 OFFCURVE",
"245 228 CURVE"
);
}
);
width = 420;
}
);
},
{
glyphname = uniA86B;
lastChange = "2017-10-20 18:05:14 +0000";
layers = (
{
layerId = UUID0;
paths = (
{
closed = 1;
nodes = (
"296 670 OFFCURVE",
"198 615 OFFCURVE",
"144 556 CURVE",
"144 670 LINE",
"70 670 LINE",
"70 -56 LINE",
"144 -56 LINE",
"144 459 LINE",
"186 517 OFFCURVE",
"247 563 OFFCURVE",
"337 581 CURVE",
"324 506 OFFCURVE",
"319 431 OFFCURVE",
"319 350 CURVE SMOOTH",
"319 186 OFFCURVE",
"341 61 OFFCURVE",
"392 -56 CURVE",
"473 -56 LINE",
"416 72 OFFCURVE",
"393 179 OFFCURVE",
"393 350 CURVE SMOOTH",
"393 463 OFFCURVE",
"404 568 OFFCURVE",
"432 670 CURVE"
);
}
);
width = 523;
}
);
unicode = A86B;
},
{
glyphname = uniA86B.ini;
lastChange = "2017-10-20 18:05:14 +0000";
layers = (
{
layerId = UUID0;
paths = (
{
closed = 1;
nodes = (
"296 670 OFFCURVE",
"198 615 OFFCURVE",
"144 556 CURVE",
"144 670 LINE",
"70 670 LINE",
"70 -56 LINE",
"144 -56 LINE",
"144 459 LINE",
"186 517 OFFCURVE",
"247 563 OFFCURVE",
"337 581 CURVE",
"324 506 OFFCURVE",
"319 431 OFFCURVE",
"319 350 CURVE SMOOTH",
"319 186 OFFCURVE",
"341 61 OFFCURVE",
"392 -56 CURVE",
"614 -56 LINE",
"614 20 LINE",
"442 20 LINE",
"407 118 OFFCURVE",
"393 214 OFFCURVE",
"393 350 CURVE SMOOTH",
"393 463 OFFCURVE",
"404 568 OFFCURVE",
"432 670 CURVE"
);
}
);
width = 594;
}
);
},
{
glyphname = uniA86C;
lastChange = "2017-10-20 18:05:14 +0000";
layers = (
{
layerId = UUID0;
paths = (
{
closed = 1;
nodes = (
"601 20 LINE",
"508 85 OFFCURVE",
"442 146 OFFCURVE",
"396 205 CURVE",
"532 258 OFFCURVE",
"601 347 OFFCURVE",
"601 468 CURVE SMOOTH",
"601 580 OFFCURVE",
"545 676 OFFCURVE",
"414 676 CURVE SMOOTH",
"298 676 OFFCURVE",
"225 594 OFFCURVE",
"225 461 CURVE SMOOTH",
"225 297 OFFCURVE",
"326 139 OFFCURVE",
"490 21 CURVE",
"490 17 LINE",
"461 19 OFFCURVE",
"423 20 OFFCURVE",
"395 20 CURVE SMOOTH",
"144 20 LINE",
"144 670 LINE",
"70 670 LINE",
"70 -56 LINE",
"601 -56 LINE"
);
},
{
closed = 1;
nodes = (
"303 548 OFFCURVE",
"345 596 OFFCURVE",
"414 596 CURVE SMOOTH",
"487 596 OFFCURVE",
"523 548 OFFCURVE",
"523 466 CURVE SMOOTH",
"523 385 OFFCURVE",
"474 313 OFFCURVE",
"353 270 CURVE",
"317 334 OFFCURVE",
"303 397 OFFCURVE",
"303 461 CURVE SMOOTH"
);
}
);
width = 671;
}
);
unicode = A86C;
},
{
glyphname = uniA86C.ini;
lastChange = "2017-10-20 18:05:14 +0000";
layers = (
{
layerId = UUID0;
paths = (
{
closed = 1;
nodes = (
"601 20 LINE",
"508 85 OFFCURVE",
"442 146 OFFCURVE",
"396 205 CURVE",
"532 258 OFFCURVE",
"601 347 OFFCURVE",
"601 468 CURVE SMOOTH",
"601 580 OFFCURVE",
"545 676 OFFCURVE",
"414 676 CURVE SMOOTH",
"298 676 OFFCURVE",
"225 594 OFFCURVE",
"225 461 CURVE SMOOTH",
"225 297 OFFCURVE",
"326 139 OFFCURVE",
"490 21 CURVE",
"490 17 LINE",
"461 19 OFFCURVE",
"423 20 OFFCURVE",
"395 20 CURVE SMOOTH",
"144 20 LINE",
"144 670 LINE",
"70 670 LINE",
"70 -56 LINE",
"781 -56 LINE",
"781 20 LINE"
);
},
{
closed = 1;
nodes = (
"303 548 OFFCURVE",
"345 596 OFFCURVE",
"414 596 CURVE SMOOTH",
"487 596 OFFCURVE",
"523 548 OFFCURVE",
"523 466 CURVE SMOOTH",
"523 385 OFFCURVE",
"474 313 OFFCURVE",
"353 270 CURVE",
"317 334 OFFCURVE",
"303 397 OFFCURVE",
"303 461 CURVE SMOOTH"
);
}
);
width = 761;
}
);
},
{
glyphname = uniA86C.ini.cnt;
lastChange = "2017-10-20 18:05:14 +0000";
layers = (
{
layerId = UUID0;
paths = (
{
closed = 1;
nodes = (
"731 269 LINE",
"731 345 LINE",
"691 345 LINE SMOOTH",
"640 345 OFFCURVE",
"598 341 OFFCURVE",
"556 329 CURVE",
"555 332 LINE",
"585 371 OFFCURVE",
"601 416 OFFCURVE",
"601 468 CURVE SMOOTH",
"601 580 OFFCURVE",
"545 676 OFFCURVE",
"414 676 CURVE SMOOTH",
"298 676 OFFCURVE",
"225 594 OFFCURVE",
"225 461 CURVE SMOOTH",
"225 297 OFFCURVE",
"326 139 OFFCURVE",
"490 21 CURVE",
"490 17 LINE",
"461 19 OFFCURVE",
"423 20 OFFCURVE",
"395 20 CURVE SMOOTH",
"144 20 LINE",
"144 670 LINE",
"70 670 LINE",
"70 -56 LINE",
"601 -56 LINE",
"601 20 LINE",
"508 85 OFFCURVE",
"442 146 OFFCURVE",
"395 205 CURVE",
"497 248 OFFCURVE",
"581 269 OFFCURVE",
"691 269 CURVE"
);
},
{
closed = 1;
nodes = (
"303 548 OFFCURVE",
"345 596 OFFCURVE",
"414 596 CURVE SMOOTH",
"487 596 OFFCURVE",
"523 548 OFFCURVE",
"523 466 CURVE SMOOTH",
"523 385 OFFCURVE",
"474 313 OFFCURVE",
"353 270 CURVE",
"317 334 OFFCURVE",
"303 397 OFFCURVE",
"303 461 CURVE SMOOTH"
);
}
);
width = 711;
}
);
},
{
glyphname = uniA85E.mir.med;
lastChange = "2017-10-20 18:05:14 +0000";
layers = (
{
layerId = UUID0;
paths = (
{
closed = 1;
nodes = (
"0 -56 LINE",
"556 -56 LINE",
"556 20 LINE",
"376 20 LINE",
"147 181 OFFCURVE",
"78 319 OFFCURVE",
"78 461 CURVE SMOOTH",
"78 548 OFFCURVE",
"120 596 OFFCURVE",
"189 596 CURVE SMOOTH",
"262 596 OFFCURVE",
"298 548 OFFCURVE",
"298 466 CURVE SMOOTH",
"298 408 OFFCURVE",
"275 360 OFFCURVE",
"209 329 CURVE",
"249 265 LINE",
"332 305 OFFCURVE",
"376 376 OFFCURVE",
"376 468 CURVE SMOOTH",
"376 580 OFFCURVE",
"320 676 OFFCURVE",
"189 676 CURVE SMOOTH",
"73 676 OFFCURVE",
"0 594 OFFCURVE",
"0 461 CURVE SMOOTH",
"0 297 OFFCURVE",
"101 139 OFFCURVE",
"265 21 CURVE",
"265 17 LINE",
"236 19 OFFCURVE",
"198 20 OFFCURVE",
"170 20 CURVE SMOOTH",
"0 20 LINE"
);
}
);
width = 536;
}
);
},
{
glyphname = uniA85E.mir.med.cnt;
lastChange = "2017-10-20 18:05:14 +0000";
layers = (
{
layerId = UUID0;
paths = (
{
closed = 1;
nodes = (
"506 269 LINE",
"506 345 LINE",
"338 345 LINE",
"364 379 OFFCURVE",
"376 420 OFFCURVE",
"376 468 CURVE SMOOTH",
"376 580 OFFCURVE",
"320 676 OFFCURVE",
"189 676 CURVE SMOOTH",
"73 676 OFFCURVE",
"0 594 OFFCURVE",
"0 461 CURVE SMOOTH",
"0 297 OFFCURVE",
"101 139 OFFCURVE",
"265 21 CURVE",
"265 17 LINE",
"236 19 OFFCURVE",
"198 20 OFFCURVE",
"170 20 CURVE SMOOTH",
"0 20 LINE",
"0 -56 LINE",
"376 -56 LINE",
"376 20 LINE",
"147 181 OFFCURVE",
"78 319 OFFCURVE",
"78 461 CURVE SMOOTH",
"78 548 OFFCURVE",
"120 596 OFFCURVE",
"189 596 CURVE SMOOTH",
"262 596 OFFCURVE",
"298 548 OFFCURVE",
"298 466 CURVE SMOOTH",
"298 410 OFFCURVE",
"274 363 OFFCURVE",
"213 333 CURVE",
"247 269 LINE"
);
}
);
width = 486;
}
);
},
{
glyphname = uniA85E.mir.fin;
lastChange = "2017-10-20 18:05:14 +0000";
layers = (
{
layerId = UUID0;
paths = (
{
closed = 1;
nodes = (
"376 20 LINE",
"147 181 OFFCURVE",
"78 319 OFFCURVE",
"78 461 CURVE SMOOTH",
"78 548 OFFCURVE",
"120 596 OFFCURVE",
"189 596 CURVE SMOOTH",
"262 596 OFFCURVE",
"298 548 OFFCURVE",
"298 466 CURVE SMOOTH",
"298 408 OFFCURVE",
"275 360 OFFCURVE",
"209 329 CURVE",
"249 265 LINE",
"332 305 OFFCURVE",
"376 376 OFFCURVE",
"376 468 CURVE SMOOTH",
"376 580 OFFCURVE",
"320 676 OFFCURVE",
"189 676 CURVE SMOOTH",
"73 676 OFFCURVE",
"0 594 OFFCURVE",
"0 461 CURVE SMOOTH",
"0 297 OFFCURVE",
"101 139 OFFCURVE",
"265 21 CURVE",
"265 17 LINE",
"236 19 OFFCURVE",
"198 20 OFFCURVE",
"170 20 CURVE SMOOTH",
"0 20 LINE",
"0 -56 LINE",
"376 -56 LINE"
);
}
);
width = 446;
}
);
},
{
glyphname = uniA86F;
lastChange = "2017-10-20 18:05:14 +0000";
layers = (
{
layerId = UUID0;
paths = (
{
closed = 1;
nodes = (
"700 464 LINE",
"681 482 OFFCURVE",
"659 502 OFFCURVE",
"641 517 CURVE SMOOTH",
"563 584 OFFCURVE",
"506 610 OFFCURVE",
"435 610 CURVE SMOOTH",
"310 610 OFFCURVE",
"232 522 OFFCURVE",
"232 412 CURVE SMOOTH",
"232 312 OFFCURVE",
"288 248 OFFCURVE",
"376 201 CURVE",
"356 166 OFFCURVE",
"334 123 OFFCURVE",
"318 88 CURVE",
"261 118 OFFCURVE",
"194 163 OFFCURVE",
"144 204 CURVE",
"144 670 LINE",
"70 670 LINE",
"70 -56 LINE",
"144 -56 LINE",
"144 112 LINE",
"205 67 OFFCURVE",
"278 23 OFFCURVE",
"349 -12 CURVE",
"384 61 OFFCURVE",
"431 152 OFFCURVE",
"478 236 CURVE",
"392 273 OFFCURVE",
"310 321 OFFCURVE",
"310 412 CURVE SMOOTH",
"310 488 OFFCURVE",
"361 530 OFFCURVE",
"435 530 CURVE SMOOTH",
"488 530 OFFCURVE",
"538 508 OFFCURVE",
"596 456 CURVE SMOOTH",
"623 432 OFFCURVE",
"662 395 OFFCURVE",
"700 356 CURVE"
);
}
);
width = 730;
}
);
unicode = A86F;
},
{
glyphname = uniA86F.ini;
lastChange = "2017-10-20 18:05:14 +0000";
layers = (
{
layerId = UUID0;
paths = (
{
closed = 1;
nodes = (
"646 670 LINE",
"505 670 LINE SMOOTH",
"322 670 OFFCURVE",
"232 566 OFFCURVE",
"232 432 CURVE SMOOTH",
"232 323 OFFCURVE",
"289 253 OFFCURVE",
"376 201 CURVE",
"357 167 OFFCURVE",
"334 123 OFFCURVE",
"318 88 CURVE",
"261 118 OFFCURVE",
"194 163 OFFCURVE",
"144 204 CURVE",
"144 670 LINE",
"70 670 LINE",
"70 -56 LINE",
"144 -56 LINE",
"144 112 LINE",
"205 67 OFFCURVE",
"278 23 OFFCURVE",
"349 -12 CURVE",
"384 61 OFFCURVE",
"431 152 OFFCURVE",
"478 236 CURVE",
"392 277 OFFCURVE",
"310 331 OFFCURVE",
"310 432 CURVE SMOOTH",
"310 534 OFFCURVE",
"373 594 OFFCURVE",
"505 594 CURVE SMOOTH",
"646 594 LINE"
);
}
);
width = 626;
}
);
},
{
glyphname = uniA870;
lastChange = "2017-10-20 18:05:14 +0000";
layers = (
{
layerId = UUID0;
paths = (
{
closed = 1;
nodes = (
"557 398 LINE",
"550 421 OFFCURVE",
"544 457 OFFCURVE",
"544 484 CURVE SMOOTH",
"544 527 OFFCURVE",
"571 560 OFFCURVE",
"610 560 CURVE SMOOTH",
"670 560 OFFCURVE",
"696 526 OFFCURVE",
"730 353 CURVE SMOOTH",
"765 175 OFFCURVE",
"821 45 OFFCURVE",
"891 -56 CURVE",
"1006 -56 LINE",
"1000 -16 OFFCURVE",
"997 35 OFFCURVE",
"997 84 CURVE SMOOTH",
"997 308 OFFCURVE",
"1037 488 OFFCURVE",
"1131 670 CURVE",
"1017 670 LINE SMOOTH",
"887 670 OFFCURVE",
"799 649 OFFCURVE",
"717 593 CURVE",
"688 627 OFFCURVE",
"652 640 OFFCURVE",
"610 640 CURVE SMOOTH",
"549 640 OFFCURVE",
"505 611 OFFCURVE",
"487 555 CURVE",
"460 591 OFFCURVE",
"422 610 OFFCURVE",
"366 610 CURVE SMOOTH",
"271 610 OFFCURVE",
"208 538 OFFCURVE",
"208 448 CURVE SMOOTH",
"208 315 OFFCURVE",
"297 232 OFFCURVE",
"435 170 CURVE",
"416 136 OFFCURVE",
"394 92 OFFCURVE",
"378 58 CURVE",
"303 94 OFFCURVE",
"212 154 OFFCURVE",
"144 204 CURVE",
"144 670 LINE",
"70 670 LINE",
"70 -56 LINE",
"144 -56 LINE",
"144 112 LINE",
"223 56 OFFCURVE",
"314 2 OFFCURVE",
"409 -42 CURVE",
"444 31 OFFCURVE",
"491 122 OFFCURVE",
"538 206 CURVE",
"410 257 OFFCURVE",
"286 324 OFFCURVE",
"286 448 CURVE SMOOTH",
"286 501 OFFCURVE",
"322 530 OFFCURVE",
"366 530 CURVE SMOOTH",
"422 530 OFFCURVE",
"457 503 OFFCURVE",
"485 398 CURVE"
);
},
{
closed = 1;
nodes = (
"824 578 OFFCURVE",
"902 593 OFFCURVE",
"1013 594 CURVE",
"952 443 OFFCURVE",
"923 282 OFFCURVE",
"923 84 CURVE SMOOTH",
"923 65 OFFCURVE",
"924 44 OFFCURVE",
"927 27 CURVE",
"924 27 LINE",
"867 129 OFFCURVE",
"829 233 OFFCURVE",
"803 368 CURVE SMOOTH",
"790 436 OFFCURVE",
"774 489 OFFCURVE",
"756 529 CURVE"
);
}
);
width = 1161;
}
);
unicode = A870;
},
{
glyphname = uniA871;
lastChange = "2017-10-20 18:05:14 +0000";
layers = (
{
layerId = UUID0;
paths = (
{
closed = 1;
nodes = (
"379 670 LINE",
"70 670 LINE",
"70 594 LINE",
"284 594 LINE",
"135 393 OFFCURVE",
"70 196 OFFCURVE",
"70 -56 CURVE",
"144 -56 LINE",
"144 181 OFFCURVE",
"215 392 OFFCURVE",
"379 594 CURVE"
);
}
);
width = 429;
}
);
unicode = A871;
},
{
glyphname = uniA871.ini;
lastChange = "2017-10-20 18:05:14 +0000";
layers = (
{
layerId = UUID0;
paths = (
{
closed = 1;
nodes = (
"499 594 LINE",
"499 670 LINE",
"70 670 LINE",
"70 594 LINE",
"284 594 LINE",
"135 393 OFFCURVE",
"70 196 OFFCURVE",
"70 -56 CURVE",
"144 -56 LINE",
"144 181 OFFCURVE",
"215 392 OFFCURVE",
"379 594 CURVE"
);
}
);
width = 479;
}
);
},
{
glyphname = uniA871.ini.cnt;
lastChange = "2017-10-20 18:05:14 +0000";
layers = (
{
layerId = UUID0;
paths = (
{
closed = 1;
nodes = (
"379 670 LINE",
"70 670 LINE",
"70 594 LINE",
"284 594 LINE",
"135 393 OFFCURVE",
"70 196 OFFCURVE",
"70 -56 CURVE",
"144 -56 LINE",
"144 57 OFFCURVE",
"160 165 OFFCURVE",
"195 269 CURVE",
"449 269 LINE",
"449 345 LINE",
"225 345 LINE",
"262 430 OFFCURVE",
"313 513 OFFCURVE",
"379 594 CURVE"
);
}
);
width = 429;
}
);
},
{
glyphname = uniA872;
lastChange = "2017-10-20 18:05:14 +0000";
layers = (
{
layerId = UUID0;
paths = (
{
closed = 1;
nodes = (
"144 670 LINE",
"70 670 LINE",
"70 -56 LINE",
"144 -56 LINE",
"144 269 LINE",
"356 269 LINE",
"356 345 LINE",
"144 345 LINE"
);
}
);
width = 396;
}
);
unicode = A872;
},
{
glyphname = uniA873;
lastChange = "2017-10-20 18:05:14 +0000";
layers = (
{
layerId = UUID0;
paths = (
{
closed = 1;
nodes = (
"493 474 OFFCURVE",
"428 590 OFFCURVE",
"348 670 CURVE",
"253 670 LINE",
"354 579 OFFCURVE",
"413 461 OFFCURVE",
"413 307 CURVE SMOOTH",
"413 153 OFFCURVE",
"354 35 OFFCURVE",
"253 -56 CURVE",
"348 -56 LINE",
"428 24 OFFCURVE",
"493 140 OFFCURVE",
"493 307 CURVE SMOOTH"
);
},
{
closed = 1;
nodes = (
"40 274 LINE",
"137 239 LINE SMOOTH",
"168 228 OFFCURVE",
"187 225 OFFCURVE",
"210 225 CURVE SMOOTH",
"265 225 OFFCURVE",
"292 252 OFFCURVE",
"292 307 CURVE SMOOTH",
"292 362 OFFCURVE",
"265 389 OFFCURVE",
"210 389 CURVE SMOOTH",
"187 389 OFFCURVE",
"168 386 OFFCURVE",
"137 375 CURVE SMOOTH",
"40 340 LINE"
);
}
);
width = 563;
}
);
unicode = A873;
},
{
glyphname = uniA875;
lastChange = "2017-10-20 18:05:14 +0000";
layers = (
{
layerId = UUID0;
paths = (
{
closed = 1;
nodes = (
"159 460 LINE",
"139 479 OFFCURVE",
"128 497 OFFCURVE",
"128 523 CURVE SMOOTH",
"128 571 OFFCURVE",
"162 600 OFFCURVE",
"215 600 CURVE SMOOTH",
"273 600 OFFCURVE",
"306 564 OFFCURVE",
"306 504 CURVE SMOOTH",
"306 456 OFFCURVE",
"285 418 OFFCURVE",
"247 387 CURVE",
"237 388 OFFCURVE",
"226 389 OFFCURVE",
"215 389 CURVE SMOOTH",
"118 389 OFFCURVE",
"50 330 OFFCURVE",
"50 231 CURVE SMOOTH",
"50 163 OFFCURVE",
"82 113 OFFCURVE",
"150 83 CURVE",
"190 151 LINE",
"146 172 OFFCURVE",
"128 195 OFFCURVE",
"128 231 CURVE SMOOTH",
"128 280 OFFCURVE",
"162 309 OFFCURVE",
"215 309 CURVE SMOOTH",
"273 309 OFFCURVE",
"306 274 OFFCURVE",
"306 206 CURVE SMOOTH",
"306 142 OFFCURVE",
"279 85 OFFCURVE",
"145 -66 CURVE",
"241 -66 LINE",
"342 47 OFFCURVE",
"384 127 OFFCURVE",
"384 214 CURVE SMOOTH",
"384 275 OFFCURVE",
"361 327 OFFCURVE",
"319 358 CURVE",
"362 402 OFFCURVE",
"384 456 OFFCURVE",
"384 512 CURVE SMOOTH",
"384 604 OFFCURVE",
"324 680 OFFCURVE",
"215 680 CURVE SMOOTH",
"118 680 OFFCURVE",
"50 619 OFFCURVE",
"50 525 CURVE SMOOTH",
"50 479 OFFCURVE",
"66 444 OFFCURVE",
"101 411 CURVE"
);
},
{
closed = 1;
nodes = (
"439 -33 LINE",
"503 33 OFFCURVE",
"546 108 OFFCURVE",
"546 207 CURVE SMOOTH",
"546 273 OFFCURVE",
"519 324 OFFCURVE",
"479 358 CURVE",
"519 396 OFFCURVE",
"546 442 OFFCURVE",
"546 505 CURVE SMOOTH",
"546 567 OFFCURVE",
"519 615 OFFCURVE",
"479 649 CURVE",
"395 649 LINE",
"444 612 OFFCURVE",
"468 566 OFFCURVE",
"468 505 CURVE SMOOTH",
"468 443 OFFCURVE",
"444 398 OFFCURVE",
"395 358 CURVE",
"444 319 OFFCURVE",
"468 272 OFFCURVE",
"468 207 CURVE SMOOTH",
"468 112 OFFCURVE",
"425 37 OFFCURVE",
"355 -33 CURVE"
);
}
);
width = 626;
}
);
unicode = A875;
},
{
glyphname = uniA874;
lastChange = "2017-10-20 18:05:14 +0000";
layers = (
{
layerId = UUID0;
paths = (
{
closed = 1;
nodes = (
"226 -56 LINE",
"398 145 OFFCURVE",
"469 283 OFFCURVE",
"469 419 CURVE SMOOTH",
"469 564 OFFCURVE",
"389 670 OFFCURVE",
"251 670 CURVE SMOOTH",
"129 670 OFFCURVE",
"45 588 OFFCURVE",
"45 454 CURVE SMOOTH",
"45 355 OFFCURVE",
"91 286 OFFCURVE",
"185 241 CURVE",
"225 310 LINE",
"161 341 OFFCURVE",
"123 385 OFFCURVE",
"123 457 CURVE SMOOTH",
"123 540 OFFCURVE",
"173 590 OFFCURVE",
"250 590 CURVE SMOOTH",
"339 590 OFFCURVE",
"391 524 OFFCURVE",
"391 416 CURVE SMOOTH",
"391 306 OFFCURVE",
"337 189 OFFCURVE",
"130 -56 CURVE"
);
},
{
closed = 1;
nodes = (
"454 -8 LINE",
"570 122 OFFCURVE",
"631 260 OFFCURVE",
"631 409 CURVE SMOOTH",
"631 498 OFFCURVE",
"604 576 OFFCURVE",
"564 626 CURVE",
"480 626 LINE",
"529 568 OFFCURVE",
"553 497 OFFCURVE",
"553 409 CURVE SMOOTH",
"553 264 OFFCURVE",
"503 150 OFFCURVE",
"370 -8 CURVE"
);
}
);
width = 711;
}
);
unicode = A874;
},
{
glyphname = uniA876;
lastChange = "2017-10-20 18:05:14 +0000";
layers = (
{
layerId = UUID0;
paths = (
{
closed = 1;
nodes = (
"90 -56 LINE",
"173 -56 LINE",
"173 670 LINE",
"90 670 LINE"
);
}
);
width = 263;
}
);
unicode = A876;
},
{
glyphname = uniA86E;
lastChange = "2017-10-20 18:05:14 +0000";
layers = (
{
layerId = UUID0;
paths = (
{
closed = 1;
nodes = (
"682 594 LINE",
"687 620 OFFCURVE",
"693 645 OFFCURVE",
"700 670 CURVE",
"70 670 LINE",
"70 -56 LINE",
"388 110 LINE",
"388 347 LINE",
"562 347 LINE",
"553 301 OFFCURVE",
"548 242 OFFCURVE",
"548 184 CURVE SMOOTH",
"548 95 OFFCURVE",
"558 14 OFFCURVE",
"577 -56 CURVE",
"652 -56 LINE",
"633 20 OFFCURVE",
"622 102 OFFCURVE",
"622 184 CURVE SMOOTH",
"622 266 OFFCURVE",
"633 347 OFFCURVE",
"652 423 CURVE",
"314 423 LINE",
"314 156 LINE",
"144 67 LINE",
"144 594 LINE"
);
}
);
width = 750;
}
);
unicode = A86E;
},
{
glyphname = uniA86E.ini;
lastChange = "2017-10-20 18:05:14 +0000";
layers = (
{
layerId = UUID0;
paths = (
{
closed = 1;
nodes = (
"144 594 LINE",
"844 594 LINE",
"844 670 LINE",
"70 670 LINE",
"70 -56 LINE",
"388 110 LINE",
"388 347 LINE",
"562 347 LINE",
"553 301 OFFCURVE",
"548 242 OFFCURVE",
"548 184 CURVE SMOOTH",
"548 95 OFFCURVE",
"558 14 OFFCURVE",
"577 -56 CURVE",
"652 -56 LINE",
"633 20 OFFCURVE",
"622 102 OFFCURVE",
"622 184 CURVE SMOOTH",
"622 266 OFFCURVE",
"633 347 OFFCURVE",
"652 423 CURVE",
"314 423 LINE",
"314 156 LINE",
"144 67 LINE"
);
}
);
width = 824;
}
);
},
{
export = 0;
glyphname = stem;
lastChange = "2017-10-23 13:07:01 +0000";
layers = (
{
layerId = UUID0;
paths = (
{
closed = 1;
nodes = (
"0 594 LINE",
"210 594 LINE",
"210 670 LINE",
"0 670 LINE"
);
}
);
width = 190;
}
);
},
{
glyphname = uniA868;
lastChange = "2017-10-20 18:05:14 +0000";
layers = (
{
layerId = UUID0;
paths = (
{
closed = 1;
nodes = (
"60 670 LINE",
"78 561 OFFCURVE",
"89 450 OFFCURVE",
"89 311 CURVE SMOOTH",
"89 185 OFFCURVE",
"80 59 OFFCURVE",
"62 -56 CURVE",
"109 -56 LINE SMOOTH",
"268 -56 OFFCURVE",
"393 28 OFFCURVE",
"393 358 CURVE SMOOTH",
"393 464 OFFCURVE",
"381 571 OFFCURVE",
"356 670 CURVE",
"282 670 LINE",
"307 571 OFFCURVE",
"319 464 OFFCURVE",
"319 361 CURVE SMOOTH",
"319 105 OFFCURVE",
"242 28 OFFCURVE",
"144 20 CURVE",
"156 102 OFFCURVE",
"163 204 OFFCURVE",
"163 311 CURVE SMOOTH",
"163 450 OFFCURVE",
"154 561 OFFCURVE",
"136 670 CURVE"
);
}
);
width = 453;
}
);
unicode = A868;
},
{
glyphname = uniA868.ini;
lastChange = "2017-10-20 18:05:14 +0000";
layers = (
{
layerId = UUID0;
paths = (
{
closed = 1;
nodes = (
"60 670 LINE",
"78 561 OFFCURVE",
"89 450 OFFCURVE",
"89 311 CURVE SMOOTH",
"89 185 OFFCURVE",
"80 59 OFFCURVE",
"62 -56 CURVE",
"109 -56 LINE SMOOTH",
"268 -56 OFFCURVE",
"393 28 OFFCURVE",
"393 358 CURVE SMOOTH",
"393 437 OFFCURVE",
"386 517 OFFCURVE",
"372 594 CURVE",
"566 594 LINE",
"566 670 LINE",
"282 670 LINE",
"307 571 OFFCURVE",
"319 464 OFFCURVE",
"319 361 CURVE SMOOTH",
"319 105 OFFCURVE",
"242 28 OFFCURVE",
"144 20 CURVE",
"156 102 OFFCURVE",
"163 204 OFFCURVE",
"163 311 CURVE SMOOTH",
"163 450 OFFCURVE",
"154 561 OFFCURVE",
"136 670 CURVE"
);
}
);
width = 546;
}
);
},
{
glyphname = uniA870.ini;
lastChange = "2017-10-20 18:05:14 +0000";
layers = (
{
layerId = UUID0;
paths = (
{
closed = 1;
nodes = (
"557 398 LINE",
"550 421 OFFCURVE",
"544 457 OFFCURVE",
"544 484 CURVE SMOOTH",
"544 527 OFFCURVE",
"571 560 OFFCURVE",
"610 560 CURVE SMOOTH",
"670 560 OFFCURVE",
"696 526 OFFCURVE",
"730 353 CURVE SMOOTH",
"765 175 OFFCURVE",
"821 45 OFFCURVE",
"891 -56 CURVE",
"1006 -56 LINE",
"1000 -16 OFFCURVE",
"997 35 OFFCURVE",
"997 84 CURVE SMOOTH",
"997 276 OFFCURVE",
"1027 437 OFFCURVE",
"1095 594 CURVE",
"1231 594 LINE",
"1231 670 LINE",
"1017 670 LINE SMOOTH",
"887 670 OFFCURVE",
"799 649 OFFCURVE",
"717 593 CURVE",
"688 627 OFFCURVE",
"652 640 OFFCURVE",
"610 640 CURVE SMOOTH",
"549 640 OFFCURVE",
"505 611 OFFCURVE",
"487 555 CURVE",
"460 591 OFFCURVE",
"422 610 OFFCURVE",
"366 610 CURVE SMOOTH",
"271 610 OFFCURVE",
"208 538 OFFCURVE",
"208 448 CURVE SMOOTH",
"208 315 OFFCURVE",
"297 232 OFFCURVE",
"435 170 CURVE",
"416 136 OFFCURVE",
"394 92 OFFCURVE",
"378 58 CURVE",
"303 94 OFFCURVE",
"212 154 OFFCURVE",
"144 204 CURVE",
"144 670 LINE",
"70 670 LINE",
"70 -56 LINE",
"144 -56 LINE",
"144 112 LINE",
"223 56 OFFCURVE",
"314 2 OFFCURVE",
"409 -42 CURVE",
"444 31 OFFCURVE",
"491 122 OFFCURVE",
"538 206 CURVE",
"410 257 OFFCURVE",
"286 324 OFFCURVE",
"286 448 CURVE SMOOTH",
"286 501 OFFCURVE",
"322 530 OFFCURVE",
"366 530 CURVE SMOOTH",
"422 530 OFFCURVE",
"457 503 OFFCURVE",
"485 398 CURVE"
);
},
{
closed = 1;
nodes = (
"824 578 OFFCURVE",
"902 593 OFFCURVE",
"1013 594 CURVE",
"952 443 OFFCURVE",
"923 282 OFFCURVE",
"923 84 CURVE SMOOTH",
"923 65 OFFCURVE",
"924 44 OFFCURVE",
"927 27 CURVE",
"924 27 LINE",
"867 129 OFFCURVE",
"829 233 OFFCURVE",
"803 368 CURVE SMOOTH",
"790 436 OFFCURVE",
"774 489 OFFCURVE",
"756 529 CURVE"
);
}
);
width = 1211;
}
);
},
{
glyphname = uniA84E;
lastChange = "2017-10-20 18:05:14 +0000";
layers = (
{
layerId = UUID0;
paths = (
{
closed = 1;
nodes = (
"70 670 LINE",
"70 -56 LINE",
"144 -56 LINE",
"144 269 LINE",
"196 269 LINE SMOOTH",
"275 269 OFFCURVE",
"316 230 OFFCURVE",
"316 164 CURVE SMOOTH",
"316 143 OFFCURVE",
"312 117 OFFCURVE",
"312 100 CURVE SMOOTH",
"312 -9 OFFCURVE",
"364 -80 OFFCURVE",
"476 -80 CURVE SMOOTH",
"587 -80 OFFCURVE",
"640 -11 OFFCURVE",
"640 104 CURVE SMOOTH",
"640 160 OFFCURVE",
"624 230 OFFCURVE",
"624 294 CURVE SMOOTH",
"624 453 OFFCURVE",
"650 551 OFFCURVE",
"702 670 CURVE"
);
},
{
closed = 1;
nodes = (
"592 594 LINE",
"564 507 OFFCURVE",
"550 411 OFFCURVE",
"550 294 CURVE SMOOTH",
"550 230 OFFCURVE",
"566 160 OFFCURVE",
"566 104 CURVE SMOOTH",
"566 34 OFFCURVE",
"536 0 OFFCURVE",
"476 0 CURVE SMOOTH",
"416 0 OFFCURVE",
"386 36 OFFCURVE",
"386 100 CURVE SMOOTH",
"386 117 OFFCURVE",
"390 143 OFFCURVE",
"390 164 CURVE SMOOTH",
"390 278 OFFCURVE",
"324 345 OFFCURVE",
"196 345 CURVE SMOOTH",
"144 345 LINE",
"144 594 LINE"
);
}
);
width = 752;
}
);
unicode = A84E;
},
{
glyphname = uniA84E.ini;
lastChange = "2017-10-20 18:05:14 +0000";
layers = (
{
layerId = UUID0;
paths = (
{
closed = 1;
nodes = (
"843 594 LINE",
"843 670 LINE",
"70 670 LINE",
"70 -56 LINE",
"144 -56 LINE",
"144 269 LINE",
"196 269 LINE SMOOTH",
"275 269 OFFCURVE",
"316 230 OFFCURVE",
"316 164 CURVE SMOOTH",
"316 143 OFFCURVE",
"312 117 OFFCURVE",
"312 100 CURVE SMOOTH",
"312 -9 OFFCURVE",
"364 -80 OFFCURVE",
"476 -80 CURVE SMOOTH",
"587 -80 OFFCURVE",
"640 -11 OFFCURVE",
"640 104 CURVE SMOOTH",
"640 160 OFFCURVE",
"624 230 OFFCURVE",
"624 294 CURVE SMOOTH",
"624 418 OFFCURVE",
"640 505 OFFCURVE",
"671 594 CURVE"
);
},
{
closed = 1;
nodes = (
"550 230 OFFCURVE",
"566 160 OFFCURVE",
"566 104 CURVE SMOOTH",
"566 34 OFFCURVE",
"536 0 OFFCURVE",
"476 0 CURVE SMOOTH",
"416 0 OFFCURVE",
"386 36 OFFCURVE",
"386 100 CURVE SMOOTH",
"386 117 OFFCURVE",
"390 143 OFFCURVE",
"390 164 CURVE SMOOTH",
"390 278 OFFCURVE",
"324 345 OFFCURVE",
"196 345 CURVE SMOOTH",
"144 345 LINE",
"144 594 LINE",
"592 594 LINE",
"564 507 OFFCURVE",
"550 411 OFFCURVE",
"550 294 CURVE SMOOTH"
);
}
);
width = 823;
}
);
},
{
glyphname = uniA86D;
lastChange = "2017-10-20 18:05:14 +0000";
layers = (
{
layerId = UUID0;
paths = (
{
closed = 1;
nodes = (
"70 323 LINE",
"115 288 OFFCURVE",
"179 269 OFFCURVE",
"243 269 CURVE SMOOTH",
"318 269 LINE SMOOTH",
"387 269 OFFCURVE",
"429 235 OFFCURVE",
"429 174 CURVE SMOOTH",
"429 113 OFFCURVE",
"387 80 OFFCURVE",
"318 80 CURVE SMOOTH",
"243 80 LINE SMOOTH",
"179 80 OFFCURVE",
"115 61 OFFCURVE",
"70 26 CURVE",
"70 -56 LINE",
"118 -20 OFFCURVE",
"179 4 OFFCURVE",
"243 4 CURVE SMOOTH",
"318 4 LINE SMOOTH",
"430 4 OFFCURVE",
"507 71 OFFCURVE",
"507 174 CURVE SMOOTH",
"507 253 OFFCURVE",
"462 311 OFFCURVE",
"390 334 CURVE",
"411 426 OFFCURVE",
"456 527 OFFCURVE",
"572 670 CURVE",
"70 670 LINE",
"70 594 LINE",
"424 594 LINE",
"376 520 OFFCURVE",
"339 435 OFFCURVE",
"316 345 CURVE",
"243 345 LINE SMOOTH",
"179 345 OFFCURVE",
"118 369 OFFCURVE",
"70 405 CURVE"
);
}
);
width = 592;
}
);
unicode = A86D;
},
{
glyphname = uniA86D.ini;
lastChange = "2017-10-20 18:05:14 +0000";
layers = (
{
layerId = UUID0;
paths = (
{
closed = 1;
nodes = (
"70 323 LINE",
"115 288 OFFCURVE",
"179 269 OFFCURVE",
"243 269 CURVE SMOOTH",
"318 269 LINE SMOOTH",
"387 269 OFFCURVE",
"429 235 OFFCURVE",
"429 174 CURVE SMOOTH",
"429 113 OFFCURVE",
"387 80 OFFCURVE",
"318 80 CURVE SMOOTH",
"243 80 LINE SMOOTH",
"179 80 OFFCURVE",
"115 61 OFFCURVE",
"70 26 CURVE",
"70 -56 LINE",
"118 -20 OFFCURVE",
"179 4 OFFCURVE",
"243 4 CURVE SMOOTH",
"318 4 LINE SMOOTH",
"430 4 OFFCURVE",
"507 71 OFFCURVE",
"507 174 CURVE SMOOTH",
"507 253 OFFCURVE",
"462 311 OFFCURVE",
"390 334 CURVE",
"407 409 OFFCURVE",
"440 489 OFFCURVE",
"514 594 CURVE",
"689 594 LINE",
"689 670 LINE",
"70 670 LINE",
"70 594 LINE",
"424 594 LINE",
"376 520 OFFCURVE",
"339 435 OFFCURVE",
"316 345 CURVE",
"243 345 LINE SMOOTH",
"179 345 OFFCURVE",
"118 369 OFFCURVE",
"70 405 CURVE"
);
}
);
width = 669;
}
);
},
{
glyphname = uniA86D.ini.cnt;
lastChange = "2017-10-20 18:05:14 +0000";
layers = (
{
layerId = UUID0;
paths = (
{
closed = 1;
nodes = (
"70 323 LINE",
"115 288 OFFCURVE",
"179 269 OFFCURVE",
"243 269 CURVE SMOOTH",
"318 269 LINE SMOOTH",
"387 269 OFFCURVE",
"429 235 OFFCURVE",
"429 174 CURVE SMOOTH",
"429 113 OFFCURVE",
"387 80 OFFCURVE",
"318 80 CURVE SMOOTH",
"243 80 LINE SMOOTH",
"179 80 OFFCURVE",
"115 61 OFFCURVE",
"70 26 CURVE",
"70 -56 LINE",
"118 -20 OFFCURVE",
"179 4 OFFCURVE",
"243 4 CURVE SMOOTH",
"318 4 LINE SMOOTH",
"430 4 OFFCURVE",
"507 71 OFFCURVE",
"507 174 CURVE SMOOTH",
"507 210 OFFCURVE",
"493 243 OFFCURVE",
"468 267 CURVE",
"468 271 LINE",
"491 270 OFFCURVE",
"523 269 OFFCURVE",
"558 269 CURVE SMOOTH",
"639 269 LINE",
"639 345 LINE",
"393 345 LINE",
"415 434 OFFCURVE",
"461 533 OFFCURVE",
"572 670 CURVE",
"70 670 LINE",
"70 594 LINE",
"424 594 LINE",
"376 520 OFFCURVE",
"339 435 OFFCURVE",
"316 345 CURVE",
"243 345 LINE SMOOTH",
"179 345 OFFCURVE",
"118 369 OFFCURVE",
"70 405 CURVE"
);
}
);
width = 619;
}
);
},
{
glyphname = uniA86D.str.med;
lastChange = "2017-10-20 18:05:14 +0000";
layers = (
{
layerId = UUID0;
paths = (
{
closed = 1;
nodes = (
"0 345 LINE",
"0 269 LINE",
"248 269 LINE SMOOTH",
"317 269 OFFCURVE",
"359 235 OFFCURVE",
"359 174 CURVE SMOOTH",
"359 113 OFFCURVE",
"317 80 OFFCURVE",
"248 80 CURVE SMOOTH",
"173 80 LINE SMOOTH",
"109 80 OFFCURVE",
"45 61 OFFCURVE",
"0 26 CURVE",
"0 -56 LINE",
"48 -20 OFFCURVE",
"109 4 OFFCURVE",
"173 4 CURVE SMOOTH",
"248 4 LINE SMOOTH",
"360 4 OFFCURVE",
"437 71 OFFCURVE",
"437 174 CURVE SMOOTH",
"437 253 OFFCURVE",
"392 311 OFFCURVE",
"320 334 CURVE",
"338 408 OFFCURVE",
"371 489 OFFCURVE",
"444 594 CURVE",
"619 594 LINE",
"619 670 LINE",
"0 670 LINE",
"0 594 LINE",
"354 594 LINE",
"306 520 OFFCURVE",
"269 435 OFFCURVE",
"246 345 CURVE"
);
}
);
width = 599;
}
);
},
{
glyphname = uniA86D.str.med.cnt;
lastChange = "2017-10-20 18:05:14 +0000";
layers = (
{
layerId = UUID0;
paths = (
{
closed = 1;
nodes = (
"569 269 LINE",
"569 345 LINE",
"323 345 LINE",
"345 434 OFFCURVE",
"391 533 OFFCURVE",
"502 670 CURVE",
"0 670 LINE",
"0 594 LINE",
"354 594 LINE",
"306 520 OFFCURVE",
"269 435 OFFCURVE",
"246 345 CURVE",
"0 345 LINE",
"0 269 LINE",
"248 269 LINE SMOOTH",
"317 269 OFFCURVE",
"359 235 OFFCURVE",
"359 174 CURVE SMOOTH",
"359 113 OFFCURVE",
"317 80 OFFCURVE",
"248 80 CURVE SMOOTH",
"173 80 LINE SMOOTH",
"109 80 OFFCURVE",
"45 61 OFFCURVE",
"0 26 CURVE",
"0 -56 LINE",
"48 -20 OFFCURVE",
"109 4 OFFCURVE",
"173 4 CURVE SMOOTH",
"248 4 LINE SMOOTH",
"360 4 OFFCURVE",
"437 71 OFFCURVE",
"437 174 CURVE SMOOTH",
"437 210 OFFCURVE",
"423 243 OFFCURVE",
"398 267 CURVE",
"398 271 LINE",
"421 270 OFFCURVE",
"453 269 OFFCURVE",
"488 269 CURVE SMOOTH"
);
}
);
width = 549;
}
);
},
{
glyphname = uniA86D.str.fin;
lastChange = "2017-10-20 18:05:14 +0000";
layers = (
{
layerId = UUID0;
paths = (
{
closed = 1;
nodes = (
"0 345 LINE",
"0 269 LINE",
"248 269 LINE SMOOTH",
"317 269 OFFCURVE",
"359 235 OFFCURVE",
"359 174 CURVE SMOOTH",
"359 113 OFFCURVE",
"317 80 OFFCURVE",
"248 80 CURVE SMOOTH",
"173 80 LINE SMOOTH",
"109 80 OFFCURVE",
"45 61 OFFCURVE",
"0 26 CURVE",
"0 -56 LINE",
"48 -20 OFFCURVE",
"109 4 OFFCURVE",
"173 4 CURVE SMOOTH",
"248 4 LINE SMOOTH",
"360 4 OFFCURVE",
"437 71 OFFCURVE",
"437 174 CURVE SMOOTH",
"437 253 OFFCURVE",
"392 311 OFFCURVE",
"320 334 CURVE",
"341 426 OFFCURVE",
"386 527 OFFCURVE",
"502 670 CURVE",
"0 670 LINE",
"0 594 LINE",
"354 594 LINE",
"306 520 OFFCURVE",
"269 435 OFFCURVE",
"246 345 CURVE"
);
}
);
width = 522;
}
);
},
{
glyphname = uniA851;
lastChange = "2017-10-20 18:05:14 +0000";
layers = (
{
layerId = UUID0;
paths = (
{
closed = 1;
nodes = (
"568 670 LINE",
"70 670 LINE",
"70 -56 LINE",
"144 -56 LINE",
"144 594 LINE",
"243 594 LINE SMOOTH",
"271 594 OFFCURVE",
"309 594 OFFCURVE",
"338 596 CURVE",
"338 593 LINE",
"281 532 OFFCURVE",
"255 473 OFFCURVE",
"255 398 CURVE SMOOTH",
"255 347 OFFCURVE",
"269 304 OFFCURVE",
"292 269 CURVE",
"385 269 LINE SMOOTH",
"463 269 OFFCURVE",
"500 235 OFFCURVE",
"500 164 CURVE SMOOTH",
"500 79 OFFCURVE",
"443 20 OFFCURVE",
"313 20 CURVE SMOOTH",
"245 20 LINE",
"245 -56 LINE",
"313 -56 LINE SMOOTH",
"488 -56 OFFCURVE",
"578 28 OFFCURVE",
"578 164 CURVE SMOOTH",
"578 273 OFFCURVE",
"518 345 OFFCURVE",
"385 345 CURVE SMOOTH",
"344 345 LINE",
"336 358 OFFCURVE",
"331 378 OFFCURVE",
"331 401 CURVE SMOOTH",
"331 464 OFFCURVE",
"363 531 OFFCURVE",
"433 594 CURVE",
"568 594 LINE"
);
}
);
width = 638;
}
);
unicode = A851;
},
{
glyphname = uniA847;
lastChange = "2017-10-20 18:05:14 +0000";
layers = (
{
layerId = UUID0;
paths = (
{
closed = 1;
nodes = (
"300 269 LINE",
"548 269 LINE",
"548 345 LINE",
"374 345 LINE",
"374 594 LINE",
"548 594 LINE",
"548 670 LINE",
"70 670 LINE",
"70 -56 LINE",
"548 -56 LINE",
"548 20 LINE",
"144 20 LINE",
"144 594 LINE",
"300 594 LINE"
);
}
);
width = 618;
}
);
unicode = A847;
},
{
glyphname = uniA847.ini;
lastChange = "2017-10-20 18:05:14 +0000";
layers = (
{
layerId = UUID0;
paths = (
{
closed = 1;
nodes = (
"300 269 LINE",
"548 269 LINE",
"548 345 LINE",
"374 345 LINE",
"374 594 LINE",
"728 594 LINE",
"728 670 LINE",
"70 670 LINE",
"70 -56 LINE",
"548 -56 LINE",
"548 20 LINE",
"144 20 LINE",
"144 594 LINE",
"300 594 LINE"
);
}
);
width = 708;
}
);
},
{
glyphname = uniA847.ini.cnt;
lastChange = "2017-10-20 18:05:14 +0000";
layers = (
{
layerId = UUID0;
paths = (
{
closed = 1;
nodes = (
"300 269 LINE",
"640 269 LINE",
"640 345 LINE",
"374 345 LINE",
"374 594 LINE",
"548 594 LINE",
"548 670 LINE",
"70 670 LINE",
"70 -56 LINE",
"548 -56 LINE",
"548 20 LINE",
"144 20 LINE",
"144 594 LINE",
"300 594 LINE"
);
}
);
width = 620;
}
);
},
{
glyphname = uniA851.ini;
lastChange = "2017-10-20 18:05:14 +0000";
layers = (
{
layerId = UUID0;
paths = (
{
closed = 1;
nodes = (
"748 594 LINE",
"748 670 LINE",
"70 670 LINE",
"70 -56 LINE",
"144 -56 LINE",
"144 594 LINE",
"243 594 LINE SMOOTH",
"271 594 OFFCURVE",
"309 594 OFFCURVE",
"338 596 CURVE",
"338 593 LINE",
"281 532 OFFCURVE",
"255 473 OFFCURVE",
"255 398 CURVE SMOOTH",
"255 347 OFFCURVE",
"269 304 OFFCURVE",
"292 269 CURVE",
"385 269 LINE SMOOTH",
"463 269 OFFCURVE",
"500 235 OFFCURVE",
"500 164 CURVE SMOOTH",
"500 79 OFFCURVE",
"443 20 OFFCURVE",
"313 20 CURVE SMOOTH",
"245 20 LINE",
"245 -56 LINE",
"313 -56 LINE SMOOTH",
"488 -56 OFFCURVE",
"578 28 OFFCURVE",
"578 164 CURVE SMOOTH",
"578 273 OFFCURVE",
"518 345 OFFCURVE",
"385 345 CURVE SMOOTH",
"344 345 LINE",
"336 358 OFFCURVE",
"331 378 OFFCURVE",
"331 401 CURVE SMOOTH",
"331 464 OFFCURVE",
"363 531 OFFCURVE",
"433 594 CURVE"
);
}
);
width = 728;
}
);
},
{
glyphname = uniA851.ini.cnt;
lastChange = "2017-10-20 18:05:14 +0000";
layers = (
{
layerId = UUID0;
paths = (
{
closed = 1;
nodes = (
"578 206 OFFCURVE",
"562 248 OFFCURVE",
"535 268 CURVE",
"535 271 LINE",
"554 270 OFFCURVE",
"587 269 OFFCURVE",
"609 269 CURVE SMOOTH",
"698 269 LINE",
"698 345 LINE",
"344 345 LINE",
"336 358 OFFCURVE",
"331 378 OFFCURVE",
"331 401 CURVE SMOOTH",
"331 464 OFFCURVE",
"363 531 OFFCURVE",
"433 594 CURVE",
"568 594 LINE",
"568 670 LINE",
"70 670 LINE",
"70 -56 LINE",
"144 -56 LINE",
"144 594 LINE",
"243 594 LINE SMOOTH",
"271 594 OFFCURVE",
"309 594 OFFCURVE",
"338 596 CURVE",
"338 593 LINE",
"281 532 OFFCURVE",
"255 473 OFFCURVE",
"255 398 CURVE SMOOTH",
"255 347 OFFCURVE",
"269 304 OFFCURVE",
"292 269 CURVE",
"385 269 LINE SMOOTH",
"463 269 OFFCURVE",
"500 235 OFFCURVE",
"500 164 CURVE SMOOTH",
"500 79 OFFCURVE",
"443 20 OFFCURVE",
"313 20 CURVE SMOOTH",
"245 20 LINE",
"245 -56 LINE",
"313 -56 LINE SMOOTH",
"488 -56 OFFCURVE",
"578 28 OFFCURVE",
"578 164 CURVE SMOOTH"
);
}
);
width = 678;
}
);
},
{
glyphname = uni1802;
lastChange = "2017-10-20 18:05:14 +0000";
layers = (
{
layerId = UUID0;
paths = (
{
closed = 1;
nodes = (
"260 259 OFFCURVE",
"287 239 OFFCURVE",
"321 239 CURVE SMOOTH",
"355 239 OFFCURVE",
"384 259 OFFCURVE",
"384 307 CURVE SMOOTH",
"384 356 OFFCURVE",
"355 374 OFFCURVE",
"321 374 CURVE SMOOTH",
"287 374 OFFCURVE",
"260 356 OFFCURVE",
"260 307 CURVE SMOOTH"
);
}
);
width = 384;
}
);
unicode = 1802;
},
{
glyphname = uni1803;
lastChange = "2017-10-20 18:05:14 +0000";
layers = (
{
layerId = UUID0;
paths = (
{
closed = 1;
nodes = (
"260 259 OFFCURVE",
"287 239 OFFCURVE",
"321 239 CURVE SMOOTH",
"355 239 OFFCURVE",
"384 259 OFFCURVE",
"384 307 CURVE SMOOTH",
"384 356 OFFCURVE",
"355 374 OFFCURVE",
"321 374 CURVE SMOOTH",
"287 374 OFFCURVE",
"260 356 OFFCURVE",
"260 307 CURVE SMOOTH"
);
},
{
closed = 1;
nodes = (
"514 259 OFFCURVE",
"541 239 OFFCURVE",
"575 239 CURVE SMOOTH",
"609 239 OFFCURVE",
"638 259 OFFCURVE",
"638 307 CURVE SMOOTH",
"638 356 OFFCURVE",
"609 374 OFFCURVE",
"575 374 CURVE SMOOTH",
"541 374 OFFCURVE",
"514 356 OFFCURVE",
"514 307 CURVE SMOOTH"
);
}
);
width = 638;
}
);
unicode = 1803;
},
{
glyphname = uni1805;
lastChange = "2017-10-20 18:05:14 +0000";
layers = (
{
layerId = UUID0;
paths = (
{
closed = 1;
nodes = (
"72 259 OFFCURVE",
"99 239 OFFCURVE",
"133 239 CURVE SMOOTH",
"167 239 OFFCURVE",
"196 259 OFFCURVE",
"196 307 CURVE SMOOTH",
"196 356 OFFCURVE",
"167 374 OFFCURVE",
"133 374 CURVE SMOOTH",
"99 374 OFFCURVE",
"72 356 OFFCURVE",
"72 307 CURVE SMOOTH"
);
},
{
closed = 1;
nodes = (
"386 259 OFFCURVE",
"413 239 OFFCURVE",
"447 239 CURVE SMOOTH",
"481 239 OFFCURVE",
"510 259 OFFCURVE",
"510 307 CURVE SMOOTH",
"510 356 OFFCURVE",
"481 374 OFFCURVE",
"447 374 CURVE SMOOTH",
"413 374 OFFCURVE",
"386 356 OFFCURVE",
"386 307 CURVE SMOOTH"
);
},
{
closed = 1;
nodes = (
"229 59 OFFCURVE",
"256 39 OFFCURVE",
"290 39 CURVE SMOOTH",
"324 39 OFFCURVE",
"353 59 OFFCURVE",
"353 107 CURVE SMOOTH",
"353 156 OFFCURVE",
"324 174 OFFCURVE",
"290 174 CURVE SMOOTH",
"256 174 OFFCURVE",
"229 156 OFFCURVE",
"229 107 CURVE SMOOTH"
);
},
{
closed = 1;
nodes = (
"229 459 OFFCURVE",
"256 439 OFFCURVE",
"290 439 CURVE SMOOTH",
"324 439 OFFCURVE",
"353 459 OFFCURVE",
"353 507 CURVE SMOOTH",
"353 556 OFFCURVE",
"324 574 OFFCURVE",
"290 574 CURVE SMOOTH",
"256 574 OFFCURVE",
"229 556 OFFCURVE",
"229 507 CURVE SMOOTH"
);
}
);
width = 582;
}
);
unicode = 1805;
},
{
glyphname = uniA85E.str.med;
lastChange = "2017-10-20 18:05:14 +0000";
layers = (
{
layerId = UUID0;
paths = (
{
closed = 1;
nodes = (
"0 269 LINE",
"17 269 LINE",
"6 231 OFFCURVE",
"0 192 OFFCURVE",
"0 153 CURVE SMOOTH",
"0 20 OFFCURVE",
"73 -62 OFFCURVE",
"189 -62 CURVE SMOOTH",
"320 -62 OFFCURVE",
"376 34 OFFCURVE",
"376 146 CURVE SMOOTH",
"376 238 OFFCURVE",
"332 309 OFFCURVE",
"249 349 CURVE",
"209 285 LINE",
"275 254 OFFCURVE",
"298 206 OFFCURVE",
"298 148 CURVE SMOOTH",
"298 66 OFFCURVE",
"262 18 OFFCURVE",
"189 18 CURVE SMOOTH",
"120 18 OFFCURVE",
"78 66 OFFCURVE",
"78 153 CURVE SMOOTH",
"78 295 OFFCURVE",
"147 433 OFFCURVE",
"376 594 CURVE",
"556 594 LINE",
"556 670 LINE",
"0 670 LINE",
"0 594 LINE",
"170 594 LINE SMOOTH",
"198 594 OFFCURVE",
"236 595 OFFCURVE",
"265 597 CURVE",
"265 593 LINE",
"167 522 OFFCURVE",
"91 437 OFFCURVE",
"46 345 CURVE",
"0 345 LINE"
);
}
);
width = 536;
}
);
},
{
glyphname = uniA85E.str.med.cnt;
lastChange = "2017-10-20 18:05:14 +0000";
layers = (
{
layerId = UUID0;
paths = (
{
closed = 1;
nodes = (
"0 269 LINE",
"17 269 LINE",
"6 231 OFFCURVE",
"0 192 OFFCURVE",
"0 153 CURVE SMOOTH",
"0 20 OFFCURVE",
"73 -62 OFFCURVE",
"189 -62 CURVE SMOOTH",
"320 -62 OFFCURVE",
"376 34 OFFCURVE",
"376 146 CURVE SMOOTH",
"376 193 OFFCURVE",
"364 234 OFFCURVE",
"338 269 CURVE",
"506 269 LINE",
"506 345 LINE",
"247 345 LINE",
"213 281 LINE",
"274 251 OFFCURVE",
"298 204 OFFCURVE",
"298 148 CURVE SMOOTH",
"298 66 OFFCURVE",
"262 18 OFFCURVE",
"189 18 CURVE SMOOTH",
"120 18 OFFCURVE",
"78 66 OFFCURVE",
"78 153 CURVE SMOOTH",
"78 295 OFFCURVE",
"147 433 OFFCURVE",
"376 594 CURVE",
"376 670 LINE",
"0 670 LINE",
"0 594 LINE",
"170 594 LINE SMOOTH",
"198 594 OFFCURVE",
"236 595 OFFCURVE",
"265 597 CURVE",
"265 593 LINE",
"167 522 OFFCURVE",
"91 437 OFFCURVE",
"46 345 CURVE",
"0 345 LINE"
);
}
);
width = 486;
}
);
},
{
glyphname = uniA85E.str.fin;
lastChange = "2017-10-20 18:05:14 +0000";
layers = (
{
layerId = UUID0;
paths = (
{
closed = 1;
nodes = (
"0 269 LINE",
"17 269 LINE",
"6 231 OFFCURVE",
"0 192 OFFCURVE",
"0 153 CURVE SMOOTH",
"0 20 OFFCURVE",
"73 -62 OFFCURVE",
"189 -62 CURVE SMOOTH",
"320 -62 OFFCURVE",
"376 34 OFFCURVE",
"376 146 CURVE SMOOTH",
"376 238 OFFCURVE",
"332 309 OFFCURVE",
"249 349 CURVE",
"209 285 LINE",
"275 254 OFFCURVE",
"298 206 OFFCURVE",
"298 148 CURVE SMOOTH",
"298 66 OFFCURVE",
"262 18 OFFCURVE",
"189 18 CURVE SMOOTH",
"120 18 OFFCURVE",
"78 66 OFFCURVE",
"78 153 CURVE SMOOTH",
"78 295 OFFCURVE",
"147 433 OFFCURVE",
"376 594 CURVE",
"376 670 LINE",
"0 670 LINE",
"0 594 LINE",
"170 594 LINE SMOOTH",
"198 594 OFFCURVE",
"236 595 OFFCURVE",
"265 597 CURVE",
"265 593 LINE",
"167 522 OFFCURVE",
"91 437 OFFCURVE",
"46 345 CURVE",
"0 345 LINE"
);
}
);
width = 446;
}
);
},
{
glyphname = uni3002;
lastChange = "2017-10-20 18:05:14 +0000";
layers = (
{
layerId = UUID0;
paths = (
{
closed = 1;
nodes = (
"311 350 OFFCURVE",
"345 385 OFFCURVE",
"389 385 CURVE SMOOTH",
"433 385 OFFCURVE",
"468 350 OFFCURVE",
"468 306 CURVE SMOOTH",
"468 262 OFFCURVE",
"433 228 OFFCURVE",
"389 228 CURVE SMOOTH",
"345 228 OFFCURVE",
"311 262 OFFCURVE",
"311 306 CURVE SMOOTH"
);
},
{
closed = 1;
nodes = (
"260 236 OFFCURVE",
"318 178 OFFCURVE",
"389 178 CURVE SMOOTH",
"460 178 OFFCURVE",
"518 236 OFFCURVE",
"518 307 CURVE SMOOTH",
"518 378 OFFCURVE",
"460 436 OFFCURVE",
"389 436 CURVE SMOOTH",
"318 436 OFFCURVE",
"260 378 OFFCURVE",
"260 307 CURVE SMOOTH"
);
}
);
width = 518;
}
);
unicode = 3002;
},
{
glyphname = uni3001;
lastChange = "2017-10-20 18:05:14 +0000";
layers = (
{
layerId = UUID0;
paths = (
{
closed = 1;
nodes = (
"397 414 LINE",
"348 365 OFFCURVE",
"300 305 OFFCURVE",
"260 248 CURVE",
"303 209 LINE",
"346 258 OFFCURVE",
"403 305 OFFCURVE",
"458 345 CURVE"
);
}
);
width = 458;
}
);
unicode = 3001;
},
{
glyphname = uniA856.mir.ini;
lastChange = "2017-10-20 18:05:14 +0000";
layers = (
{
layerId = UUID0;
paths = (
{
closed = 1;
nodes = (
"682 594 LINE",
"687 620 OFFCURVE",
"693 645 OFFCURVE",
"700 670 CURVE",
"70 670 LINE",
"70 -56 LINE",
"388 -56 LINE",
"388 347 LINE",
"562 347 LINE",
"553 301 OFFCURVE",
"548 242 OFFCURVE",
"548 184 CURVE SMOOTH",
"548 95 OFFCURVE",
"558 14 OFFCURVE",
"577 -56 CURVE",
"844 -56 LINE",
"844 20 LINE",
"636 20 LINE",
"627 73 OFFCURVE",
"622 129 OFFCURVE",
"622 184 CURVE SMOOTH",
"622 266 OFFCURVE",
"633 347 OFFCURVE",
"652 423 CURVE",
"314 423 LINE",
"314 20 LINE",
"144 20 LINE",
"144 594 LINE"
);
}
);
width = 824;
}
);
},
{
glyphname = uniA85C.mir;
lastChange = "2017-10-20 18:05:14 +0000";
layers = (
{
layerId = UUID0;
paths = (
{
closed = 1;
nodes = (
"700 -56 LINE",
"660 17 OFFCURVE",
"610 111 OFFCURVE",
"586 158 CURVE",
"536 108 OFFCURVE",
"488 84 OFFCURVE",
"435 84 CURVE SMOOTH",
"361 84 OFFCURVE",
"310 126 OFFCURVE",
"310 202 CURVE SMOOTH",
"310 293 OFFCURVE",
"392 341 OFFCURVE",
"478 378 CURVE",
"431 462 OFFCURVE",
"384 553 OFFCURVE",
"349 626 CURVE",
"278 590 OFFCURVE",
"205 546 OFFCURVE",
"144 502 CURVE",
"144 670 LINE",
"70 670 LINE",
"70 -56 LINE",
"144 -56 LINE",
"144 410 LINE",
"194 450 OFFCURVE",
"261 496 OFFCURVE",
"318 525 CURVE",
"334 491 OFFCURVE",
"356 447 OFFCURVE",
"376 413 CURVE",
"288 365 OFFCURVE",
"232 301 OFFCURVE",
"232 202 CURVE SMOOTH",
"232 92 OFFCURVE",
"310 4 OFFCURVE",
"435 4 CURVE SMOOTH",
"486 4 OFFCURVE",
"527 19 OFFCURVE",
"563 44 CURVE",
"579 12 OFFCURVE",
"599 -24 OFFCURVE",
"616 -56 CURVE"
);
}
);
width = 720;
}
);
},
{
glyphname = uniA85C.mir.ini;
lastChange = "2017-10-20 18:05:14 +0000";
layers = (
{
layerId = UUID0;
paths = (
{
closed = 1;
nodes = (
"775 20 LINE",
"745 20 LINE SMOOTH",
"693 20 OFFCURVE",
"652 40 OFFCURVE",
"621 93 CURVE SMOOTH",
"610 112 OFFCURVE",
"597 136 OFFCURVE",
"586 158 CURVE",
"536 108 OFFCURVE",
"488 84 OFFCURVE",
"435 84 CURVE SMOOTH",
"361 84 OFFCURVE",
"310 126 OFFCURVE",
"310 202 CURVE SMOOTH",
"310 293 OFFCURVE",
"392 341 OFFCURVE",
"478 378 CURVE",
"431 462 OFFCURVE",
"384 553 OFFCURVE",
"349 626 CURVE",
"278 590 OFFCURVE",
"205 546 OFFCURVE",
"144 502 CURVE",
"144 670 LINE",
"70 670 LINE",
"70 -56 LINE",
"144 -56 LINE",
"144 410 LINE",
"194 450 OFFCURVE",
"261 496 OFFCURVE",
"318 525 CURVE",
"334 491 OFFCURVE",
"356 447 OFFCURVE",
"376 413 CURVE",
"288 365 OFFCURVE",
"232 301 OFFCURVE",
"232 202 CURVE SMOOTH",
"232 92 OFFCURVE",
"310 4 OFFCURVE",
"435 4 CURVE SMOOTH",
"486 4 OFFCURVE",
"527 19 OFFCURVE",
"563 45 CURVE",
"596 -13 OFFCURVE",
"656 -56 OFFCURVE",
"745 -56 CURVE SMOOTH",
"775 -56 LINE"
);
}
);
width = 755;
}
);
},
{
export = 0;
glyphname = uniA85C.mir.ini.cnt;
lastChange = "2017-10-23 13:14:32 +0000";
layers = (
{
layerId = UUID0;
paths = (
{
closed = 1;
nodes = (
"765 345 LINE",
"745 345 LINE SMOOTH",
"662 345 OFFCURVE",
"617 303 OFFCURVE",
"571 195 CURVE SMOOTH",
"534 108 OFFCURVE",
"500 84 OFFCURVE",
"429 84 CURVE SMOOTH",
"358 84 OFFCURVE",
"310 126 OFFCURVE",
"310 202 CURVE SMOOTH",
"310 293 OFFCURVE",
"392 341 OFFCURVE",
"478 378 CURVE",
"431 462 OFFCURVE",
"384 553 OFFCURVE",
"349 626 CURVE",
"278 590 OFFCURVE",
"205 546 OFFCURVE",
"144 502 CURVE",
"144 670 LINE",
"70 670 LINE",
"70 -56 LINE",
"144 -56 LINE",
"144 410 LINE",
"194 450 OFFCURVE",
"261 496 OFFCURVE",
"318 525 CURVE",
"334 491 OFFCURVE",
"356 447 OFFCURVE",
"376 413 CURVE",
"288 365 OFFCURVE",
"232 301 OFFCURVE",
"232 202 CURVE SMOOTH",
"232 92 OFFCURVE",
"307 4 OFFCURVE",
"429 4 CURVE SMOOTH",
"526 4 OFFCURVE",
"591 49 OFFCURVE",
"637 160 CURVE SMOOTH",
"676 254 OFFCURVE",
"705 269 OFFCURVE",
"745 269 CURVE SMOOTH",
"765 269 LINE"
);
}
);
width = 745;
}
);
},
{
glyphname = uniA85E.mir;
lastChange = "2017-10-20 18:05:14 +0000";
layers = (
{
layerId = UUID0;
paths = (
{
closed = 1;
nodes = (
"601 20 LINE",
"372 181 OFFCURVE",
"303 319 OFFCURVE",
"303 461 CURVE SMOOTH",
"303 548 OFFCURVE",
"345 596 OFFCURVE",
"414 596 CURVE SMOOTH",
"487 596 OFFCURVE",
"523 548 OFFCURVE",
"523 466 CURVE SMOOTH",
"523 408 OFFCURVE",
"500 360 OFFCURVE",
"434 329 CURVE",
"474 265 LINE",
"557 305 OFFCURVE",
"601 376 OFFCURVE",
"601 468 CURVE SMOOTH",
"601 580 OFFCURVE",
"545 676 OFFCURVE",
"414 676 CURVE SMOOTH",
"298 676 OFFCURVE",
"225 594 OFFCURVE",
"225 461 CURVE SMOOTH",
"225 297 OFFCURVE",
"326 139 OFFCURVE",
"490 21 CURVE",
"490 17 LINE",
"461 19 OFFCURVE",
"423 20 OFFCURVE",
"395 20 CURVE SMOOTH",
"144 20 LINE",
"144 670 LINE",
"70 670 LINE",
"70 -56 LINE",
"601 -56 LINE"
);
}
);
width = 671;
}
);
},
{
glyphname = uniA85E.mir.ini;
lastChange = "2017-10-20 18:05:14 +0000";
layers = (
{
layerId = UUID0;
paths = (
{
closed = 1;
nodes = (
"781 20 LINE",
"601 20 LINE",
"372 181 OFFCURVE",
"303 319 OFFCURVE",
"303 461 CURVE SMOOTH",
"303 548 OFFCURVE",
"345 596 OFFCURVE",
"414 596 CURVE SMOOTH",
"487 596 OFFCURVE",
"523 548 OFFCURVE",
"523 466 CURVE SMOOTH",
"523 408 OFFCURVE",
"500 360 OFFCURVE",
"434 329 CURVE",
"474 265 LINE",
"557 305 OFFCURVE",
"601 376 OFFCURVE",
"601 468 CURVE SMOOTH",
"601 580 OFFCURVE",
"545 676 OFFCURVE",
"414 676 CURVE SMOOTH",
"298 676 OFFCURVE",
"225 594 OFFCURVE",
"225 461 CURVE SMOOTH",
"225 297 OFFCURVE",
"326 139 OFFCURVE",
"490 21 CURVE",
"490 17 LINE",
"461 19 OFFCURVE",
"423 20 OFFCURVE",
"395 20 CURVE SMOOTH",
"144 20 LINE",
"144 670 LINE",
"70 670 LINE",
"70 -56 LINE",
"781 -56 LINE"
);
}
);
width = 761;
}
);
},
{
glyphname = uniA85F.mir;
lastChange = "2017-10-20 18:05:14 +0000";
layers = (
{
layerId = UUID0;
paths = (
{
closed = 1;
nodes = (
"144 -56 LINE",
"144 269 LINE",
"241 269 LINE",
"240 260 OFFCURVE",
"240 250 OFFCURVE",
"240 239 CURVE SMOOTH",
"240 74 OFFCURVE",
"338 -63 OFFCURVE",
"511 -63 CURVE SMOOTH",
"696 -63 OFFCURVE",
"802 94 OFFCURVE",
"802 279 CURVE SMOOTH",
"802 528 OFFCURVE",
"648 670 OFFCURVE",
"386 670 CURVE",
"386 594 LINE",
"608 594 OFFCURVE",
"724 473 OFFCURVE",
"724 279 CURVE SMOOTH",
"724 129 OFFCURVE",
"648 17 OFFCURVE",
"511 17 CURVE SMOOTH",
"388 17 OFFCURVE",
"318 113 OFFCURVE",
"318 239 CURVE SMOOTH",
"318 344 OFFCURVE",
"363 392 OFFCURVE",
"427 392 CURVE SMOOTH",
"482 392 OFFCURVE",
"521 356 OFFCURVE",
"521 295 CURVE SMOOTH",
"521 258 OFFCURVE",
"506 216 OFFCURVE",
"479 190 CURVE",
"542 141 LINE",
"580 180 OFFCURVE",
"599 230 OFFCURVE",
"599 295 CURVE SMOOTH",
"599 394 OFFCURVE",
"531 472 OFFCURVE",
"427 472 CURVE SMOOTH",
"348 472 OFFCURVE",
"285 426 OFFCURVE",
"256 345 CURVE",
"144 345 LINE",
"144 670 LINE",
"70 670 LINE",
"70 -56 LINE"
);
}
);
width = 842;
}
);
},
{
glyphname = uniA860.mir;
lastChange = "2017-10-20 18:05:14 +0000";
layers = (
{
layerId = UUID0;
paths = (
{
closed = 1;
nodes = (
"652 228 LINE",
"555 357 OFFCURVE",
"483 514 OFFCURVE",
"436 670 CURVE",
"314 670 LINE",
"314 20 LINE",
"144 20 LINE",
"144 670 LINE",
"70 670 LINE",
"70 -56 LINE",
"660 -56 LINE",
"660 20 LINE",
"388 20 LINE",
"388 479 LINE SMOOTH",
"388 516 OFFCURVE",
"387 556 OFFCURVE",
"385 589 CURVE",
"389 589 LINE",
"427 463 OFFCURVE",
"482 343 OFFCURVE",
"559 228 CURVE"
);
}
);
width = 730;
}
);
},
{
glyphname = uniA860.mir.ini;
lastChange = "2017-10-20 18:05:14 +0000";
layers = (
{
layerId = UUID0;
paths = (
{
closed = 1;
nodes = (
"652 228 LINE",
"555 357 OFFCURVE",
"483 514 OFFCURVE",
"436 670 CURVE",
"314 670 LINE",
"314 20 LINE",
"144 20 LINE",
"144 670 LINE",
"70 670 LINE",
"70 -56 LINE",
"840 -56 LINE",
"840 20 LINE",
"388 20 LINE",
"388 479 LINE SMOOTH",
"388 516 OFFCURVE",
"387 556 OFFCURVE",
"385 589 CURVE",
"389 589 LINE",
"427 463 OFFCURVE",
"482 343 OFFCURVE",
"559 228 CURVE"
);
}
);
width = 820;
}
);
},
{
glyphname = uniA868.mir;
lastChange = "2017-10-20 18:05:14 +0000";
layers = (
{
layerId = UUID0;
paths = (
{
closed = 1;
nodes = (
"136 -56 LINE",
"154 53 OFFCURVE",
"163 164 OFFCURVE",
"163 303 CURVE SMOOTH",
"163 410 OFFCURVE",
"156 512 OFFCURVE",
"144 594 CURVE",
"242 586 OFFCURVE",
"319 509 OFFCURVE",
"319 253 CURVE SMOOTH",
"319 150 OFFCURVE",
"307 43 OFFCURVE",
"282 -56 CURVE",
"356 -56 LINE",
"381 43 OFFCURVE",
"393 150 OFFCURVE",
"393 256 CURVE SMOOTH",
"393 586 OFFCURVE",
"268 670 OFFCURVE",
"109 670 CURVE SMOOTH",
"62 670 LINE",
"80 555 OFFCURVE",
"89 429 OFFCURVE",
"89 303 CURVE SMOOTH",
"89 164 OFFCURVE",
"78 53 OFFCURVE",
"60 -56 CURVE"
);
}
);
width = 453;
}
);
},
{
glyphname = uniA868.mir.ini;
lastChange = "2017-10-20 18:05:14 +0000";
layers = (
{
layerId = UUID0;
paths = (
{
closed = 1;
nodes = (
"136 -56 LINE",
"154 53 OFFCURVE",
"163 164 OFFCURVE",
"163 303 CURVE SMOOTH",
"163 410 OFFCURVE",
"156 512 OFFCURVE",
"144 594 CURVE",
"242 586 OFFCURVE",
"319 509 OFFCURVE",
"319 253 CURVE SMOOTH",
"319 150 OFFCURVE",
"307 43 OFFCURVE",
"282 -56 CURVE",
"566 -56 LINE",
"566 20 LINE",
"372 20 LINE",
"386 97 OFFCURVE",
"393 177 OFFCURVE",
"393 256 CURVE SMOOTH",
"393 586 OFFCURVE",
"268 670 OFFCURVE",
"109 670 CURVE SMOOTH",
"62 670 LINE",
"80 555 OFFCURVE",
"89 429 OFFCURVE",
"89 303 CURVE SMOOTH",
"89 164 OFFCURVE",
"78 53 OFFCURVE",
"60 -56 CURVE"
);
}
);
width = 546;
}
);
},
{
glyphname = uniA862.ini.cnt;
lastChange = "2017-10-20 18:05:14 +0000";
layers = (
{
layerId = UUID0;
paths = (
{
closed = 1;
nodes = (
"578 670 LINE",
"70 670 LINE",
"70 -56 LINE",
"578 -56 LINE",
"578 20 LINE",
"144 20 LINE",
"144 321 LINE",
"213 283 OFFCURVE",
"297 269 OFFCURVE",
"404 269 CURVE SMOOTH",
"708 269 LINE",
"708 345 LINE",
"425 345 LINE",
"458 442 OFFCURVE",
"510 525 OFFCURVE",
"578 594 CURVE"
);
},
{
closed = 1;
nodes = (
"144 594 LINE",
"386 594 LINE SMOOTH",
"421 594 OFFCURVE",
"460 595 OFFCURVE",
"489 596 CURVE",
"489 592 LINE",
"422 523 OFFCURVE",
"371 430 OFFCURVE",
"350 346 CURVE",
"266 349 OFFCURVE",
"208 363 OFFCURVE",
"144 405 CURVE"
);
}
);
width = 688;
}
);
},
{
glyphname = uni3014;
lastChange = "2017-10-20 18:05:14 +0000";
layers = (
{
layerId = UUID0;
paths = (
{
closed = 1;
nodes = (
"522 -32 LINE",
"367 43 LINE",
"367 571 LINE",
"522 646 LINE",
"495 712 LINE",
"293 612 LINE",
"293 2 LINE",
"495 -98 LINE"
);
}
);
width = 586;
}
);
unicode = 3014;
},
{
glyphname = uni3015;
lastChange = "2017-10-20 18:05:14 +0000";
layers = (
{
layerId = UUID0;
paths = (
{
closed = 1;
nodes = (
"293 2 LINE",
"293 612 LINE",
"91 712 LINE",
"63 646 LINE",
"219 571 LINE",
"219 43 LINE",
"63 -32 LINE",
"91 -98 LINE"
);
}
);
width = 586;
}
);
unicode = 3015;
},
{
glyphname = twodotenleader;
lastChange = "2017-10-20 18:05:14 +0000";
layers = (
{
layerId = UUID0;
paths = (
{
closed = 1;
nodes = (
"50 30 OFFCURVE",
"72 14 OFFCURVE",
"99 14 CURVE SMOOTH",
"126 14 OFFCURVE",
"149 30 OFFCURVE",
"149 69 CURVE SMOOTH",
"149 108 OFFCURVE",
"126 122 OFFCURVE",
"99 122 CURVE SMOOTH",
"72 122 OFFCURVE",
"50 108 OFFCURVE",
"50 69 CURVE SMOOTH"
);
},
{
closed = 1;
nodes = (
"250 30 OFFCURVE",
"272 14 OFFCURVE",
"299 14 CURVE SMOOTH",
"326 14 OFFCURVE",
"349 30 OFFCURVE",
"349 69 CURVE SMOOTH",
"349 108 OFFCURVE",
"326 122 OFFCURVE",
"299 122 CURVE SMOOTH",
"272 122 OFFCURVE",
"250 108 OFFCURVE",
"250 69 CURVE SMOOTH"
);
}
);
width = 399;
}
);
unicode = 2025;
},
{
glyphname = ellipsis;
lastChange = "2017-10-20 18:05:14 +0000";
layers = (
{
layerId = UUID0;
paths = (
{
closed = 1;
nodes = (
"50 30 OFFCURVE",
"72 14 OFFCURVE",
"99 14 CURVE SMOOTH",
"126 14 OFFCURVE",
"149 30 OFFCURVE",
"149 69 CURVE SMOOTH",
"149 108 OFFCURVE",
"126 122 OFFCURVE",
"99 122 CURVE SMOOTH",
"72 122 OFFCURVE",
"50 108 OFFCURVE",
"50 69 CURVE SMOOTH"
);
},
{
closed = 1;
nodes = (
"250 30 OFFCURVE",
"272 14 OFFCURVE",
"299 14 CURVE SMOOTH",
"326 14 OFFCURVE",
"349 30 OFFCURVE",
"349 69 CURVE SMOOTH",
"349 108 OFFCURVE",
"326 122 OFFCURVE",
"299 122 CURVE SMOOTH",
"272 122 OFFCURVE",
"250 108 OFFCURVE",
"250 69 CURVE SMOOTH"
);
},
{
closed = 1;
nodes = (
"450 30 OFFCURVE",
"472 14 OFFCURVE",
"499 14 CURVE SMOOTH",
"526 14 OFFCURVE",
"549 30 OFFCURVE",
"549 69 CURVE SMOOTH",
"549 108 OFFCURVE",
"526 122 OFFCURVE",
"499 122 CURVE SMOOTH",
"472 122 OFFCURVE",
"450 108 OFFCURVE",
"450 69 CURVE SMOOTH"
);
}
);
width = 599;
}
);
unicode = 2026;
},
{
glyphname = uniA85D;
lastChange = "2017-10-20 18:05:14 +0000";
layers = (
{
layerId = UUID0;
paths = (
{
closed = 1;
nodes = (
"70 132 LINE",
"144 132 LINE",
"144 208 LINE",
"178 178 OFFCURVE",
"216 148 OFFCURVE",
"252 122 CURVE",
"283 190 OFFCURVE",
"328 217 OFFCURVE",
"377 217 CURVE SMOOTH",
"441 217 OFFCURVE",
"471 177 OFFCURVE",
"471 124 CURVE SMOOTH",
"471 59 OFFCURVE",
"425 20 OFFCURVE",
"342 20 CURVE SMOOTH",
"70 20 LINE",
"70 -56 LINE",
"342 -56 LINE SMOOTH",
"472 -56 OFFCURVE",
"549 16 OFFCURVE",
"549 124 CURVE SMOOTH",
"549 226 OFFCURVE",
"473 297 OFFCURVE",
"377 297 CURVE SMOOTH",
"317 297 OFFCURVE",
"266 270 OFFCURVE",
"236 224 CURVE",
"211 244 OFFCURVE",
"175 276 OFFCURVE",
"151 299 CURVE",
"250 399 OFFCURVE",
"382 503 OFFCURVE",
"541 594 CURVE",
"541 670 LINE",
"70 670 LINE",
"70 594 LINE",
"314 594 LINE SMOOTH",
"342 594 OFFCURVE",
"380 595 OFFCURVE",
"409 597 CURVE",
"409 593 LINE",
"331 546 OFFCURVE",
"227 469 OFFCURVE",
"144 392 CURVE",
"144 470 LINE",
"70 470 LINE"
);
}
);
width = 611;
}
);
unicode = A85D;
},
{
glyphname = uni3007;
lastChange = "2017-10-20 18:05:14 +0000";
layers = (
{
layerId = UUID0;
paths = (
{
closed = 1;
nodes = (
"108 501 OFFCURVE",
"241 634 OFFCURVE",
"404 634 CURVE SMOOTH",
"567 634 OFFCURVE",
"700 501 OFFCURVE",
"700 338 CURVE SMOOTH",
"700 175 OFFCURVE",
"567 43 OFFCURVE",
"404 43 CURVE SMOOTH",
"241 43 OFFCURVE",
"108 175 OFFCURVE",
"108 338 CURVE SMOOTH"
);
},
{
closed = 1;
nodes = (
"39 137 OFFCURVE",
"202 -26 OFFCURVE",
"403 -26 CURVE SMOOTH",
"605 -26 OFFCURVE",
"769 137 OFFCURVE",
"769 338 CURVE SMOOTH",
"769 540 OFFCURVE",
"605 704 OFFCURVE",
"403 704 CURVE SMOOTH",
"202 704 OFFCURVE",
"39 540 OFFCURVE",
"39 338 CURVE SMOOTH"
);
}
);
width = 808;
}
);
unicode = 3007;
},
{
glyphname = uni3008;
lastChange = "2017-10-20 18:05:14 +0000";
layers = (
{
layerId = UUID0;
paths = (
{
closed = 1;
nodes = (
"507 712 LINE",
"427 712 LINE",
"259 307 LINE",
"442 -129 LINE",
"522 -129 LINE",
"339 307 LINE"
);
}
);
width = 586;
}
);
unicode = 3008;
},
{
glyphname = uni3009;
lastChange = "2017-10-20 18:05:14 +0000";
layers = (
{
layerId = UUID0;
paths = (
{
closed = 1;
nodes = (
"144 -129 LINE",
"327 307 LINE",
"159 712 LINE",
"79 712 LINE",
"247 307 LINE",
"64 -129 LINE"
);
}
);
width = 586;
}
);
unicode = 3009;
},
{
glyphname = uni300A;
lastChange = "2017-10-20 18:05:14 +0000";
layers = (
{
layerId = UUID0;
paths = (
{
closed = 1;
nodes = (
"615 712 LINE",
"534 712 LINE",
"366 307 LINE",
"549 -129 LINE",
"630 -129 LINE",
"445 307 LINE"
);
},
{
closed = 1;
nodes = (
"458 712 LINE",
"378 712 LINE",
"210 307 LINE",
"393 -129 LINE",
"474 -129 LINE",
"289 307 LINE"
);
}
);
width = 679;
}
);
unicode = 300A;
},
{
glyphname = uni300B;
lastChange = "2017-10-20 18:05:14 +0000";
layers = (
{
layerId = UUID0;
paths = (
{
closed = 1;
nodes = (
"233 307 LINE",
"49 -129 LINE",
"129 -129 LINE",
"313 307 LINE",
"145 712 LINE",
"64 712 LINE"
);
},
{
closed = 1;
nodes = (
"390 307 LINE",
"205 -129 LINE",
"286 -129 LINE",
"469 307 LINE",
"301 712 LINE",
"220 712 LINE"
);
}
);
width = 679;
}
);
unicode = 300B;
},
{
glyphname = uni300C;
lastChange = "2017-10-20 18:05:14 +0000";
layers = (
{
layerId = UUID0;
paths = (
{
closed = 1;
nodes = (
"367 -98 LINE",
"367 642 LINE",
"532 642 LINE",
"532 712 LINE",
"293 712 LINE",
"293 -98 LINE"
);
}
);
width = 586;
}
);
unicode = 300C;
},
{
glyphname = uni300D;
lastChange = "2017-10-20 18:05:14 +0000";
layers = (
{
layerId = UUID0;
paths = (
{
closed = 1;
nodes = (
"293 -98 LINE",
"293 712 LINE",
"219 712 LINE",
"219 -27 LINE",
"54 -27 LINE",
"54 -98 LINE"
);
}
);
width = 586;
}
);
unicode = 300D;
},
{
glyphname = uni300E;
lastChange = "2017-10-20 18:05:14 +0000";
layers = (
{
layerId = UUID0;
paths = (
{
closed = 1;
nodes = (
"244 712 LINE",
"244 -98 LINE",
"422 -98 LINE",
"422 546 LINE",
"562 546 LINE",
"562 712 LINE"
);
},
{
closed = 1;
nodes = (
"500 656 LINE",
"500 602 LINE",
"361 602 LINE",
"361 -42 LINE",
"305 -42 LINE",
"305 656 LINE"
);
}
);
width = 610;
}
);
unicode = 300E;
},
{
glyphname = uni300F;
lastChange = "2017-10-20 18:05:14 +0000";
layers = (
{
layerId = UUID0;
paths = (
{
closed = 1;
nodes = (
"366 -98 LINE",
"366 712 LINE",
"188 712 LINE",
"188 68 LINE",
"49 68 LINE",
"49 -98 LINE"
);
},
{
closed = 1;
nodes = (
"110 -42 LINE",
"110 12 LINE",
"249 12 LINE",
"249 656 LINE",
"305 656 LINE",
"305 -42 LINE"
);
}
);
width = 610;
}
);
unicode = 300F;
},
{
glyphname = uni3010;
lastChange = "2017-10-20 18:05:14 +0000";
layers = (
{
layerId = UUID0;
paths = (
{
closed = 1;
nodes = (
"530 -97 LINE",
"405 24 OFFCURVE",
"343 163 OFFCURVE",
"343 320 CURVE SMOOTH",
"343 485 OFFCURVE",
"421 624 OFFCURVE",
"537 712 CURVE",
"244 712 LINE",
"244 -97 LINE"
);
}
);
width = 586;
}
);
unicode = 3010;
},
{
glyphname = uni3011;
lastChange = "2017-10-20 18:05:14 +0000";
layers = (
{
layerId = UUID0;
paths = (
{
closed = 1;
nodes = (
"49 712 LINE",
"165 624 OFFCURVE",
"243 485 OFFCURVE",
"243 320 CURVE SMOOTH",
"243 163 OFFCURVE",
"181 24 OFFCURVE",
"56 -97 CURVE",
"342 -97 LINE",
"342 712 LINE"
);
}
);
width = 586;
}
);
unicode = 3011;
},
{
glyphname = uni3016;
lastChange = "2017-10-20 18:05:14 +0000";
layers = (
{
layerId = UUID0;
paths = (
{
closed = 1;
nodes = (
"550 -97 LINE",
"465 -5 OFFCURVE",
"420 152 OFFCURVE",
"420 296 CURVE SMOOTH",
"420 444 OFFCURVE",
"473 618 OFFCURVE",
"562 712 CURVE",
"244 712 LINE",
"244 -97 LINE"
);
},
{
closed = 1;
nodes = (
"303 656 LINE",
"451 656 LINE",
"389 560 OFFCURVE",
"359 412 OFFCURVE",
"359 295 CURVE SMOOTH",
"359 175 OFFCURVE",
"390 36 OFFCURVE",
"441 -41 CURVE",
"303 -41 LINE"
);
}
);
width = 610;
}
);
unicode = 3016;
},
{
glyphname = uni3017;
lastChange = "2017-10-20 18:05:14 +0000";
layers = (
{
layerId = UUID0;
paths = (
{
closed = 1;
nodes = (
"366 -97 LINE",
"366 712 LINE",
"48 712 LINE",
"136 618 OFFCURVE",
"189 444 OFFCURVE",
"189 296 CURVE SMOOTH",
"189 152 OFFCURVE",
"145 -5 OFFCURVE",
"60 -97 CURVE"
);
},
{
closed = 1;
nodes = (
"220 36 OFFCURVE",
"250 175 OFFCURVE",
"250 295 CURVE SMOOTH",
"250 412 OFFCURVE",
"220 560 OFFCURVE",
"158 656 CURVE",
"308 656 LINE",
"308 -41 LINE",
"169 -41 LINE"
);
}
);
width = 610;
}
);
unicode = 3017;
},
{
glyphname = uni3018;
lastChange = "2017-10-20 18:05:14 +0000";
layers = (
{
layerId = UUID0;
paths = (
{
closed = 1;
nodes = (
"445 -10 LINE",
"445 625 LINE",
"513 663 LINE",
"481 712 LINE",
"269 592 LINE",
"269 22 LINE",
"481 -98 LINE",
"513 -49 LINE"
);
},
{
closed = 1;
nodes = (
"327 560 LINE",
"387 591 LINE",
"387 23 LINE",
"327 54 LINE"
);
}
);
width = 586;
}
);
unicode = 3018;
},
{
glyphname = uni3019;
lastChange = "2017-10-20 18:05:14 +0000";
layers = (
{
layerId = UUID0;
paths = (
{
closed = 1;
nodes = (
"73 -49 LINE",
"104 -98 LINE",
"317 22 LINE",
"317 592 LINE",
"104 712 LINE",
"73 663 LINE",
"141 625 LINE",
"141 -10 LINE"
);
},
{
closed = 1;
nodes = (
"259 54 LINE",
"199 23 LINE",
"199 591 LINE",
"259 560 LINE"
);
}
);
width = 586;
}
);
unicode = 3019;
},
{
glyphname = uni301A;
lastChange = "2017-10-20 18:05:14 +0000";
layers = (
{
layerId = UUID0;
paths = (
{
closed = 1;
nodes = (
"244 712 LINE",
"244 -98 LINE",
"518 -98 LINE",
"518 -34 LINE",
"422 -34 LINE",
"422 648 LINE",
"518 648 LINE",
"518 712 LINE"
);
},
{
closed = 1;
nodes = (
"305 648 LINE",
"361 648 LINE",
"361 -34 LINE",
"305 -34 LINE"
);
}
);
width = 586;
}
);
unicode = 301A;
},
{
glyphname = uni301B;
lastChange = "2017-10-20 18:05:14 +0000";
layers = (
{
layerId = UUID0;
paths = (
{
closed = 1;
nodes = (
"68 712 LINE",
"68 648 LINE",
"164 648 LINE",
"164 -34 LINE",
"68 -34 LINE",
"68 -98 LINE",
"342 -98 LINE",
"342 712 LINE"
);
},
{
closed = 1;
nodes = (
"281 -34 LINE",
"225 -34 LINE",
"225 648 LINE",
"281 648 LINE"
);
}
);
width = 586;
}
);
unicode = 301B;
},
{
glyphname = uni200E;
lastChange = "2017-10-20 18:05:14 +0000";
layers = (
{
layerId = UUID0;
paths = (
{
closed = 1;
nodes = (
"17 0 LINE",
"17 603 LINE",
"147 603 LINE",
"80 539 LINE",
"104 515 LINE",
"210 620 LINE",
"104 725 LINE",
"80 701 LINE",
"147 637 LINE",
"-18 637 LINE",
"-18 0 LINE"
);
}
);
width = 0;
}
);
unicode = 200E;
},
{
glyphname = uni200F;
lastChange = "2017-10-20 18:05:14 +0000";
layers = (
{
layerId = UUID0;
paths = (
{
closed = 1;
nodes = (
"17 0 LINE",
"17 637 LINE",
"-147 637 LINE",
"-81 701 LINE",
"-104 725 LINE",
"-210 620 LINE",
"-104 515 LINE",
"-81 539 LINE",
"-147 603 LINE",
"-18 603 LINE",
"-18 0 LINE"
);
}
);
width = 0;
}
);
unicode = 200F;
},
{
glyphname = uni25CC;
lastChange = "2017-10-20 18:05:14 +0000";
layers = (
{
layerId = UUID0;
paths = (
{
closed = 1;
nodes = (
"199 522 OFFCURVE",
"187 510 OFFCURVE",
"187 496 CURVE SMOOTH",
"187 482 OFFCURVE",
"199 470 OFFCURVE",
"213 470 CURVE SMOOTH",
"227 470 OFFCURVE",
"239 482 OFFCURVE",
"239 496 CURVE SMOOTH",
"239 510 OFFCURVE",
"227 522 OFFCURVE",
"213 522 CURVE SMOOTH"
);
},
{
closed = 1;
nodes = (
"367 522 OFFCURVE",
"355 510 OFFCURVE",
"355 496 CURVE SMOOTH",
"355 482 OFFCURVE",
"367 470 OFFCURVE",
"381 470 CURVE SMOOTH",
"395 470 OFFCURVE",
"407 482 OFFCURVE",
"407 496 CURVE SMOOTH",
"407 510 OFFCURVE",
"395 522 OFFCURVE",
"381 522 CURVE SMOOTH"
);
},
{
closed = 1;
nodes = (
"199 112 OFFCURVE",
"187 100 OFFCURVE",
"187 86 CURVE SMOOTH",
"187 72 OFFCURVE",
"199 60 OFFCURVE",
"213 60 CURVE SMOOTH",
"227 60 OFFCURVE",
"239 72 OFFCURVE",
"239 86 CURVE SMOOTH",
"239 100 OFFCURVE",
"227 112 OFFCURVE",
"213 112 CURVE SMOOTH"
);
},
{
closed = 1;
nodes = (
"367 112 OFFCURVE",
"355 100 OFFCURVE",
"355 86 CURVE SMOOTH",
"355 72 OFFCURVE",
"367 60 OFFCURVE",
"381 60 CURVE SMOOTH",
"395 60 OFFCURVE",
"407 72 OFFCURVE",
"407 86 CURVE SMOOTH",
"407 100 OFFCURVE",
"395 112 OFFCURVE",
"381 112 CURVE SMOOTH"
);
},
{
closed = 1;
nodes = (
"283 540 OFFCURVE",
"271 528 OFFCURVE",
"271 514 CURVE SMOOTH",
"271 500 OFFCURVE",
"283 488 OFFCURVE",
"297 488 CURVE SMOOTH",
"311 488 OFFCURVE",
"323 500 OFFCURVE",
"323 514 CURVE SMOOTH",
"323 528 OFFCURVE",
"311 540 OFFCURVE",
"297 540 CURVE SMOOTH"
);
},
{
closed = 1;
nodes = (
"283 94 OFFCURVE",
"271 82 OFFCURVE",
"271 68 CURVE SMOOTH",
"271 54 OFFCURVE",
"283 42 OFFCURVE",
"297 42 CURVE SMOOTH",
"311 42 OFFCURVE",
"323 54 OFFCURVE",
"323 68 CURVE SMOOTH",
"323 82 OFFCURVE",
"311 94 OFFCURVE",
"297 94 CURVE SMOOTH"
);
},
{
closed = 1;
nodes = (
"48 277 OFFCURVE",
"60 265 OFFCURVE",
"74 265 CURVE SMOOTH",
"88 265 OFFCURVE",
"100 277 OFFCURVE",
"100 291 CURVE SMOOTH",
"100 305 OFFCURVE",
"88 317 OFFCURVE",
"74 317 CURVE SMOOTH",
"60 317 OFFCURVE",
"48 305 OFFCURVE",
"48 291 CURVE SMOOTH"
);
},
{
closed = 1;
nodes = (
"494 277 OFFCURVE",
"506 265 OFFCURVE",
"520 265 CURVE SMOOTH",
"534 265 OFFCURVE",
"546 277 OFFCURVE",
"546 291 CURVE SMOOTH",
"546 305 OFFCURVE",
"534 317 OFFCURVE",
"520 317 CURVE SMOOTH",
"506 317 OFFCURVE",
"494 305 OFFCURVE",
"494 291 CURVE SMOOTH"
);
},
{
closed = 1;
nodes = (
"113 119 OFFCURVE",
"125 107 OFFCURVE",
"139 107 CURVE SMOOTH",
"153 107 OFFCURVE",
"165 119 OFFCURVE",
"165 133 CURVE SMOOTH",
"165 147 OFFCURVE",
"153 159 OFFCURVE",
"139 159 CURVE SMOOTH",
"125 159 OFFCURVE",
"113 147 OFFCURVE",
"113 133 CURVE SMOOTH"
);
},
{
closed = 1;
nodes = (
"113 435 OFFCURVE",
"125 423 OFFCURVE",
"139 423 CURVE SMOOTH",
"153 423 OFFCURVE",
"165 435 OFFCURVE",
"165 449 CURVE SMOOTH",
"165 463 OFFCURVE",
"153 475 OFFCURVE",
"139 475 CURVE SMOOTH",
"125 475 OFFCURVE",
"113 463 OFFCURVE",
"113 449 CURVE SMOOTH"
);
},
{
closed = 1;
nodes = (
"429 119 OFFCURVE",
"441 107 OFFCURVE",
"455 107 CURVE SMOOTH",
"469 107 OFFCURVE",
"481 119 OFFCURVE",
"481 133 CURVE SMOOTH",
"481 147 OFFCURVE",
"469 159 OFFCURVE",
"455 159 CURVE SMOOTH",
"441 159 OFFCURVE",
"429 147 OFFCURVE",
"429 133 CURVE SMOOTH"
);
},
{
closed = 1;
nodes = (
"429 435 OFFCURVE",
"441 423 OFFCURVE",
"455 423 CURVE SMOOTH",
"469 423 OFFCURVE",
"481 435 OFFCURVE",
"481 449 CURVE SMOOTH",
"481 463 OFFCURVE",
"469 475 OFFCURVE",
"455 475 CURVE SMOOTH",
"441 475 OFFCURVE",
"429 463 OFFCURVE",
"429 449 CURVE SMOOTH"
);
},
{
closed = 1;
nodes = (
"66 193 OFFCURVE",
"78 181 OFFCURVE",
"92 181 CURVE SMOOTH",
"106 181 OFFCURVE",
"118 193 OFFCURVE",
"118 207 CURVE SMOOTH",
"118 221 OFFCURVE",
"106 233 OFFCURVE",
"92 233 CURVE SMOOTH",
"78 233 OFFCURVE",
"66 221 OFFCURVE",
"66 207 CURVE SMOOTH"
);
},
{
closed = 1;
nodes = (
"66 361 OFFCURVE",
"78 349 OFFCURVE",
"92 349 CURVE SMOOTH",
"106 349 OFFCURVE",
"118 361 OFFCURVE",
"118 375 CURVE SMOOTH",
"118 389 OFFCURVE",
"106 401 OFFCURVE",
"92 401 CURVE SMOOTH",
"78 401 OFFCURVE",
"66 389 OFFCURVE",
"66 375 CURVE SMOOTH"
);
},
{
closed = 1;
nodes = (
"476 193 OFFCURVE",
"488 181 OFFCURVE",
"502 181 CURVE SMOOTH",
"516 181 OFFCURVE",
"528 193 OFFCURVE",
"528 207 CURVE SMOOTH",
"528 221 OFFCURVE",
"516 233 OFFCURVE",
"502 233 CURVE SMOOTH",
"488 233 OFFCURVE",
"476 221 OFFCURVE",
"476 207 CURVE SMOOTH"
);
},
{
closed = 1;
nodes = (
"476 361 OFFCURVE",
"488 349 OFFCURVE",
"502 349 CURVE SMOOTH",
"516 349 OFFCURVE",
"528 361 OFFCURVE",
"528 375 CURVE SMOOTH",
"528 389 OFFCURVE",
"516 401 OFFCURVE",
"502 401 CURVE SMOOTH",
"488 401 OFFCURVE",
"476 389 OFFCURVE",
"476 375 CURVE SMOOTH"
);
}
);
width = 594;
}
);
unicode = 25CC;
},
{
glyphname = uni1801;
lastChange = "2017-10-20 18:05:14 +0000";
layers = (
{
layerId = UUID0;
paths = (
{
closed = 1;
nodes = (
"54 303 OFFCURVE",
"76 288 OFFCURVE",
"103 288 CURVE SMOOTH",
"130 288 OFFCURVE",
"153 303 OFFCURVE",
"153 342 CURVE SMOOTH",
"153 381 OFFCURVE",
"130 396 OFFCURVE",
"103 396 CURVE SMOOTH",
"76 396 OFFCURVE",
"54 381 OFFCURVE",
"54 342 CURVE SMOOTH"
);
},
{
closed = 1;
nodes = (
"254 303 OFFCURVE",
"276 288 OFFCURVE",
"303 288 CURVE SMOOTH",
"330 288 OFFCURVE",
"353 303 OFFCURVE",
"353 342 CURVE SMOOTH",
"353 381 OFFCURVE",
"330 396 OFFCURVE",
"303 396 CURVE SMOOTH",
"276 396 OFFCURVE",
"254 381 OFFCURVE",
"254 342 CURVE SMOOTH"
);
},
{
closed = 1;
nodes = (
"454 303 OFFCURVE",
"476 288 OFFCURVE",
"503 288 CURVE SMOOTH",
"530 288 OFFCURVE",
"553 303 OFFCURVE",
"553 342 CURVE SMOOTH",
"553 381 OFFCURVE",
"530 396 OFFCURVE",
"503 396 CURVE SMOOTH",
"476 396 OFFCURVE",
"454 381 OFFCURVE",
"454 342 CURVE SMOOTH"
);
},
{
closed = 1;
nodes = (
"654 303 OFFCURVE",
"676 288 OFFCURVE",
"703 288 CURVE SMOOTH",
"729 288 OFFCURVE",
"752 303 OFFCURVE",
"752 342 CURVE SMOOTH",
"752 381 OFFCURVE",
"729 396 OFFCURVE",
"703 396 CURVE SMOOTH",
"676 396 OFFCURVE",
"654 381 OFFCURVE",
"654 342 CURVE SMOOTH"
);
}
